<svg xmlns="http://www.w3.org/2000/svg" viewBox="0 0 500 500"><g id="freepik--background-complete--inject-2"><rect y="382.4" width="500" height="0.25" style="fill:#ebebeb"></rect><rect x="52.46" y="391.92" width="16.06" height="0.25" style="fill:#ebebeb"></rect><rect x="171.14" y="389.21" width="53.53" height="0.25" style="fill:#ebebeb"></rect><rect x="69.52" y="401.21" width="36.25" height="0.25" style="fill:#ebebeb"></rect><rect x="379.14" y="389.08" width="43.19" height="0.25" style="fill:#ebebeb"></rect><rect x="431.24" y="389.08" width="6.33" height="0.25" style="fill:#ebebeb"></rect><rect x="317" y="395.31" width="53.89" height="0.25" style="fill:#ebebeb"></rect><path d="M237,337.8H43.91a5.71,5.71,0,0,1-5.7-5.71V60.66A5.71,5.71,0,0,1,43.91,55H237a5.71,5.71,0,0,1,5.71,5.71V332.09A5.71,5.71,0,0,1,237,337.8ZM43.91,55.2a5.46,5.46,0,0,0-5.45,5.46V332.09a5.46,5.46,0,0,0,5.45,5.46H237a5.47,5.47,0,0,0,5.46-5.46V60.66A5.47,5.47,0,0,0,237,55.2Z" style="fill:#ebebeb"></path><path d="M453.31,337.8H260.21a5.72,5.72,0,0,1-5.71-5.71V60.66A5.72,5.72,0,0,1,260.21,55h193.1A5.71,5.71,0,0,1,459,60.66V332.09A5.71,5.71,0,0,1,453.31,337.8ZM260.21,55.2a5.47,5.47,0,0,0-5.46,5.46V332.09a5.47,5.47,0,0,0,5.46,5.46h193.1a5.47,5.47,0,0,0,5.46-5.46V60.66a5.47,5.47,0,0,0-5.46-5.46Z" style="fill:#ebebeb"></path><rect x="143.49" y="278.38" width="35.1" height="6.92" style="fill:#e6e6e6"></rect><rect x="77.29" y="101.68" width="6.48" height="280.72" transform="translate(161.06 484.08) rotate(180)" style="fill:#e6e6e6"></rect><rect x="54.85" y="278.38" width="88.64" height="6.92" transform="translate(198.34 563.69) rotate(180)" style="fill:#f5f5f5"></rect><rect x="143.49" y="364.84" width="35.1" height="6.92" style="fill:#e6e6e6"></rect><rect x="54.85" y="364.84" width="88.64" height="6.92" transform="translate(198.34 736.6) rotate(180)" style="fill:#f5f5f5"></rect><rect x="143.49" y="105.46" width="35.1" height="6.92" style="fill:#e6e6e6"></rect><rect x="54.85" y="105.46" width="88.64" height="6.92" transform="translate(198.34 217.85) rotate(180)" style="fill:#f5f5f5"></rect><rect x="143.49" y="191.92" width="35.1" height="6.92" style="fill:#e6e6e6"></rect><rect x="54.85" y="191.92" width="88.64" height="6.92" transform="translate(198.34 390.77) rotate(180)" style="fill:#f5f5f5"></rect><rect x="165.93" y="101.68" width="6.48" height="280.72" transform="translate(338.34 484.08) rotate(180)" style="fill:#e6e6e6"></rect><rect x="137.01" y="101.68" width="6.48" height="280.72" transform="translate(280.5 484.08) rotate(180)" style="fill:#f5f5f5"></rect><rect x="54.85" y="101.68" width="6.48" height="280.72" transform="translate(116.18 484.08) rotate(180)" style="fill:#f5f5f5"></rect><rect x="393" y="292.54" width="72.97" height="9" style="fill:#ebebeb"></rect><polygon points="475 382.4 456.53 301.54 449.09 301.54 472.18 382.4 475 382.4" style="fill:#e0e0e0"></polygon><polygon points="383.97 382.4 402.44 301.54 409.88 301.54 386.8 382.4 383.97 382.4" style="fill:#e0e0e0"></polygon><polygon points="420.77 382.4 427.24 301.54 434.67 301.54 423.6 382.4 420.77 382.4" style="fill:#e0e0e0"></polygon><rect x="279.23" y="292.54" width="72.97" height="9" style="fill:#ebebeb"></rect><polygon points="361.23 382.4 342.76 301.54 335.32 301.54 358.41 382.4 361.23 382.4" style="fill:#e0e0e0"></polygon><polygon points="270.21 382.4 288.68 301.54 296.12 301.54 273.03 382.4 270.21 382.4" style="fill:#e0e0e0"></polygon><polygon points="307.01 382.4 313.47 301.54 320.91 301.54 309.83 382.4 307.01 382.4" style="fill:#e0e0e0"></polygon><rect x="212.15" y="141.23" width="213.2" height="8.05" style="fill:#f0f0f0"></rect><rect x="425.35" y="141.23" width="21.98" height="8.05" transform="translate(872.69 290.51) rotate(180)" style="fill:#e0e0e0"></rect><rect x="382.6" y="103.01" width="43.67" height="38.23" style="fill:#f5f5f5"></rect><rect x="382.6" y="100.18" width="43.67" height="2.83" style="fill:#e6e6e6"></rect><rect x="382.19" y="107.25" width="38.58" height="21.54" style="fill:#ebebeb"></rect><rect x="236.06" y="122.65" width="65.73" height="18.58" style="fill:#f5f5f5"></rect><rect x="236.06" y="121.28" width="65.73" height="1.38" style="fill:#e6e6e6"></rect><rect x="235.43" y="124.71" width="58.08" height="10.47" style="fill:#ebebeb"></rect><rect x="344.14" y="117.31" width="31.5" height="23.92" style="fill:#f5f5f5"></rect><rect x="344.14" y="114.48" width="31.5" height="2.83" style="fill:#e6e6e6"></rect><rect x="343.84" y="121.55" width="27.84" height="14.45" style="fill:#fafafa"></rect><path d="M357.12,114.48c-.27,2.52-2.54,12.18,1.91,10.46s7.27-2.74,8.17,1.56,7.28-.39,5.44-12Z" style="fill:#e0e0e0"></path><path d="M362.92,126c-4.66,0-3.67,3.49-1.28,2.5S364.64,126,362.92,126Z" style="fill:#e0e0e0"></path><rect x="71.32" y="137.74" width="37.84" height="54.19" style="fill:#f5f5f5"></rect><rect x="71.32" y="133.73" width="37.84" height="4.01" style="fill:#e6e6e6"></rect><rect x="70.96" y="143.75" width="33.43" height="30.54" style="fill:#ebebeb"></rect><rect x="93.16" y="244.47" width="27.3" height="33.91" style="fill:#f5f5f5"></rect><rect x="93.16" y="240.46" width="27.3" height="4.01" style="fill:#e6e6e6"></rect><rect x="92.9" y="250.48" width="24.12" height="20.48" style="fill:#fafafa"></rect><polygon points="425.85 186.37 425.85 262.27 414.49 262.27 399.44 189.28 425.85 186.37" style="fill:#e0e0e0"></polygon><path d="M420.09,192.79H404.3a8,8,0,0,1-7.35-4.87l-2.88-6.8a8,8,0,0,1,7.35-11.1h18.67a8,8,0,0,1,8,8v6.8A8,8,0,0,1,420.09,192.79ZM401.42,177a1,1,0,0,0-.82.44,1,1,0,0,0-.09.93l2.88,6.8a1,1,0,0,0,.91.6h15.79a1,1,0,0,0,1-1V178a1,1,0,0,0-1-1Z" style="fill:#ebebeb"></path></g><g id="freepik--Shadow--inject-2"><ellipse id="freepik--path--inject-2" cx="250" cy="416.24" rx="193.89" ry="11.32" style="fill:#f5f5f5"></ellipse></g><g id="freepik--Character--inject-2"><path d="M285.46,91.87c-6.67,6.88,2.47,12.83,5.86,12.35C291.32,104.22,284,99.42,285.46,91.87Z" style="fill:#263238"></path><path d="M284.27,91.06c-4.66,8.37,5.7,11.76,8.85,10.42C293.12,101.48,284.83,98.72,284.27,91.06Z" style="fill:#263238"></path><path d="M302.22,289.33c7.23-42.62,10-96.13,10-96.13L272.76,198s4.5,65.92,6.09,94.93c1.65,30.16,3.37,98.93,3.37,98.93h18.27S306.23,326.62,302.22,289.33Z" style="fill:#4A74D0"></path><path d="M299,403.9l1.56,8.5a1.43,1.43,0,0,1-1.44,1.67c-2.69,0-4-.42-8.68-.5-5.52-.08-10.13.61-16.6.5a2.87,2.87,0,0,1-1-5.62c6.3-1.72,9-4.94,12-6.83.62-3.07-.88-11.49-.88-11.49l15.08,1A104.17,104.17,0,0,0,299,403.9Z" style="fill:#263238"></path><path d="M368.83,404.37l-3.65-6.58c-1.75-4.16-4.36-12.14-4.36-12.14l-13.57,3.53s3.74,6.79,4.6,10c-2.08,2.43-4.89,7.86-10.73,9.19-2.74.62-2.53,5.4,1.1,5.71,6,.51,13.06-4.11,18.08-5.2,4.29-.93,4.91-.63,7.35-1.2A2.09,2.09,0,0,0,368.83,404.37Z" style="fill:#263238"></path><path d="M283,394.29l16.8.26a1.36,1.36,0,0,0,1.37-1.18l.73-5.55a1.37,1.37,0,0,0-1.31-1.54l-18.3-.57a1.37,1.37,0,0,0-1.39,1.54l.77,5.85A1.37,1.37,0,0,0,283,394.29Z" style="fill:#263238"></path><path d="M283,394.29l16.8.26a1.36,1.36,0,0,0,1.37-1.18l.73-5.55a1.37,1.37,0,0,0-1.31-1.54l-18.3-.57a1.37,1.37,0,0,0-1.39,1.54l.77,5.85A1.37,1.37,0,0,0,283,394.29Z" style="fill:#fff;opacity:0.1"></path><path d="M337.42,288.13c-6.31-42.86-4.76-76.24-14-96.28l-35.93,4.42s17.79,66.69,25.91,95,32.25,97.91,32.25,97.91L363,385.34S348.21,321.28,337.42,288.13Z" style="fill:#4A74D0"></path><path d="M346.45,392.25l16.42-3.57a1.32,1.32,0,0,0,1-1.54l-1-5.46a1.41,1.41,0,0,0-1.65-1.11l-17.94,3.62a1.32,1.32,0,0,0-.94,1.88l2.55,5.41A1.38,1.38,0,0,0,346.45,392.25Z" style="fill:#263238"></path><path d="M346.45,392.25l16.42-3.57a1.32,1.32,0,0,0,1-1.54l-1-5.46a1.41,1.41,0,0,0-1.65-1.11l-17.94,3.62a1.32,1.32,0,0,0-.94,1.88l2.55,5.41A1.38,1.38,0,0,0,346.45,392.25Z" style="fill:#fff;opacity:0.1"></path><path d="M271.88,146.24c-.64,6.47-1.53,12.75-2.67,19.12-.59,3.18-1.2,6.36-2,9.55a94.58,94.58,0,0,1-2.76,9.77c-.3.84-.62,1.69-1,2.6a27.31,27.31,0,0,1-1.31,2.66,33.14,33.14,0,0,1-3.15,4.67,52.56,52.56,0,0,1-7.31,7.5,77.37,77.37,0,0,1-8.07,6,73.87,73.87,0,0,1-8.68,4.86,3.45,3.45,0,0,1-3.75-5.72l.13-.11a132.92,132.92,0,0,0,12.92-12.61,54.33,54.33,0,0,0,5.11-6.76,28,28,0,0,0,1.79-3.4,23.72,23.72,0,0,0,1.19-3.52c.7-2.66,1.3-5.63,1.83-8.6s1-6,1.43-9.08c.89-6.09,1.71-12.32,2.5-18.4v-.07a6.93,6.93,0,0,1,13.76,1.57Z" style="fill:#ff8b7b"></path><path d="M263.78,130.65c-9.48,7.36-11.52,29-11.52,29l23.58,7.3a86,86,0,0,0,5.3-18.69C283.45,135.48,272.59,123.81,263.78,130.65Z" style="fill:#4A74D0"></path><path d="M302.74,119.51A148.63,148.63,0,0,0,273,124.68a21.45,21.45,0,0,0-15.29,24.06c2.69,16.12,8.27,22.32,15,49.28l50.63-6.17c-.56-13.89-6.53-29.13-8.06-61.15A11.77,11.77,0,0,0,302.74,119.51Z" style="fill:#4A74D0"></path><path d="M286.66,100.59c1.35,7.31,5,16.92,8,20.57-2.9,4.37-6.83,9.52-14.93,11.34s-7.93-4-6.44-7.33c7.26-3.25,6.11-6.33,3.22-11.16Z" style="fill:#ff8b7b"></path><path d="M283.3,108.86a16.5,16.5,0,0,0-1-2.57L276.49,114a15.41,15.41,0,0,1,2.16,4.76C281.55,116.93,284.26,112.15,283.3,108.86Z" style="opacity:0.2"></path><path d="M257.47,88.22c-5.87,4.38-4.28,5.56-4.28,5.56s-.47,7.83,9.49,8.6C266.79,92.56,257.47,88.22,257.47,88.22Z" style="fill:#263238"></path><path d="M280.75,87.41c4.39,8.37,7.39,13,5.79,19.63-2.4,9.9-14.67,12.15-21.49,5.25-6.14-6.22-12.29-18.87-6.28-26.8A13,13,0,0,1,280.75,87.41Z" style="fill:#ff8b7b"></path><path d="M271.09,98.3a5.57,5.57,0,0,1,3.48-2.47A11,11,0,0,1,271.09,98.3Z" style="opacity:0.2"></path><path d="M271.73,99.09a4.61,4.61,0,0,1,3.62-1.38A9.11,9.11,0,0,1,271.73,99.09Z" style="opacity:0.2"></path><path d="M266.71,107.4c-1.38.85-4.62,4.76-3.45,7.47,3,.25,12.88-5,15-7C277.69,105.41,270.41,105.11,266.71,107.4Z" style="fill:#263238"></path><path d="M264.33,100.76s1.19,4.6.88,7.45c1.86.24,3.4-1.58,3.4-1.58Z" style="fill:#ff5652"></path><path d="M288.68,83.19c-.91-4.67-6.29-7.31-9-6.77a5.93,5.93,0,0,0,4-3.89s-3.63,2.8-7,2a4.13,4.13,0,0,0-1.94-4.79,10,10,0,0,1,.52,4.35s-8-4.31-14.13-.45c-6.26,4-7.09,12.22-11.12,14.68a5.88,5.88,0,0,1-7.13-.52s5.4,8.61,14.21,6.19c11-3,10.82-8.39,10.82-8.39A10.24,10.24,0,0,1,265.49,92c6.61-1.74,7.39-6.74,7.39-6.74-1.71,6,5.79,9.92,10.62,10.68,1.66,2.36,3-1.93,3-1.93A15.66,15.66,0,0,0,288.68,83.19Z" style="fill:#263238"></path><path d="M245.33,85.33c7.67,5.74,12.41-4.08,11.51-7.38C256.84,78,253,85.79,245.33,85.33Z" style="fill:#263238"></path><path d="M288.53,94.72a8.86,8.86,0,0,1-2.47,6c-2,2-4.28.13-4.76-2.81-.44-2.65.09-6.87,2.62-7.72S288.59,91.84,288.53,94.72Z" style="fill:#ff8b7b"></path><path d="M270.16,99.17c.32.69.21,1.43-.25,1.63s-1.09-.19-1.41-.89-.21-1.43.25-1.63S269.84,98.47,270.16,99.17Z" style="fill:#263238"></path><path d="M261.78,103c.33.69.21,1.43-.24,1.63s-1.1-.19-1.42-.89-.21-1.43.25-1.63S261.46,102.25,261.78,103Z" style="fill:#263238"></path><path d="M270.78,93.54a.49.49,0,0,0,.14-.18.44.44,0,0,0-.24-.59,4.53,4.53,0,0,0-4.13.17.45.45,0,0,0-.13.63.47.47,0,0,0,.63.13h0a3.6,3.6,0,0,1,3.27-.11A.47.47,0,0,0,270.78,93.54Z" style="fill:#263238"></path><path d="M256.9,100.15a.48.48,0,0,0,.28-.32,3.56,3.56,0,0,1,2-2.55.43.43,0,0,0,.27-.57.45.45,0,0,0-.58-.27,4.43,4.43,0,0,0-2.6,3.18.47.47,0,0,0,.35.55A.46.46,0,0,0,256.9,100.15Z" style="fill:#263238"></path><path d="M268.27,191c-1-4.23-2.41-9.14-3.69-13.54a55.34,55.34,0,0,1-2-21c1.13-11.39,0-24.8,5.1-29.86a8.07,8.07,0,0,1,2.48-1.33.41.41,0,0,1,.46.61c-1.59,2.4-4.11,9-2.55,20.08,13.41-1.43,31-6.63,31-6.63s-2.44-12.16-.74-19.67a.53.53,0,0,1,.51-.42l2.3-.11a.53.53,0,0,1,.55.61c-1.93,12.58,3.93,34.43,16.1,32.55.54,5,6.77,27.28,6.77,27.28S335.85,226.27,338.5,268c-23.29,13-69.18,7.67-69.18,7.67S270.87,201.64,268.27,191Z" style="fill:#263238"></path><path d="M370.16,227l-.52-.85c7.42-4.57,10.43-9.88,8.24-14.56-2.67-5.72-13.28-9.56-24.23-5.91-2.27.76-4.4,1.59-6.45,2.4-8.43,3.31-15.71,6.17-27.58,1.64l.35-.94c11.51,4.39,18.62,1.6,26.86-1.63,2.07-.81,4.21-1.65,6.5-2.42,11.63-3.87,22.55.2,25.46,6.43C381.21,216.33,378.07,222.11,370.16,227Z" style="fill:#4A74D0"></path><path d="M272.37,161.81c4.72-.69,18-2.78,27.7-5.68a1.33,1.33,0,0,1,1.65,1.72c-3.57,9.61-10.23,14.49-15.75,15.19-8.32,1.06-12.92-6-14.6-9.32A1.32,1.32,0,0,1,272.37,161.81Z" style="fill:#fff;opacity:0.2"></path><path d="M312.71,195.3a71,71,0,0,0-15.44-1.82h0c-7.65,0-16.42,1.79-13.41,4.77a3.46,3.46,0,0,1,1.14,2.68,22.67,22.67,0,0,0,1.63,10.51,4,4,0,0,0,3.75,2.3h26.46a3.9,3.9,0,0,0,3.93-2.78C322.13,204.65,317.38,196.43,312.71,195.3Zm1.7,8.1c-6.38-.56-18.88-1.14-21.41-1.14s-4.11-5.73.54-5.74c10.64,0,16.3,1.12,19.14,2.32S320.79,204,314.41,203.4Z" style="fill:#4A74D0"></path><path d="M312.71,195.3a71,71,0,0,0-15.44-1.82h0c-7.65,0-16.42,1.79-13.41,4.77a3.46,3.46,0,0,1,1.14,2.68,22.67,22.67,0,0,0,1.63,10.51,4,4,0,0,0,3.75,2.3h26.46a3.9,3.9,0,0,0,3.93-2.78C322.13,204.65,317.38,196.43,312.71,195.3Zm1.7,8.1c-6.38-.56-18.88-1.14-21.41-1.14s-4.11-5.73.54-5.74c10.64,0,16.3,1.12,19.14,2.32S320.79,204,314.41,203.4Z" style="fill:#fff;opacity:0.4"></path><path d="M318.58,216.17H287.19A1.22,1.22,0,0,1,286,215h0a1.22,1.22,0,0,1,1.22-1.22h31.39A1.22,1.22,0,0,1,319.8,215h0A1.22,1.22,0,0,1,318.58,216.17Z" style="fill:#4A74D0"></path><rect x="291.27" y="204.78" width="15.39" height="0.8" rx="0.4" style="fill:#4A74D0"></rect><rect x="291.27" y="206.6" width="15.39" height="0.8" rx="0.4" style="fill:#4A74D0"></rect><rect x="291.27" y="208.42" width="15.39" height="0.8" rx="0.4" style="fill:#4A74D0"></rect><rect x="291.27" y="210.24" width="15.39" height="0.8" rx="0.4" style="fill:#4A74D0"></rect><polygon points="317.71 216.17 288.06 216.17 287.01 217.9 318.75 217.9 317.71 216.17" style="fill:#fff"></polygon><path d="M231.77,205.74l-6,2.89a19.78,19.78,0,0,0-5.76,4.26l-1.44,1.54c-.71.76-.39,2.25.68,3.09l3.92,3.08a1.88,1.88,0,0,0,2,.34l3.72-2s8-2.8,6.74-9.23Z" style="fill:#4A74D0"></path><path d="M227.79,207.68s5.36-2.42,8.57-6.07c4,3.95,5.87,7.91,6,9.39-3.65,1.39-6.57,2.39-8.39,2.95S227.7,212.15,227.79,207.68Z" style="fill:#4A74D0"></path><path d="M317.3,129.2c.72.67,1.25,1.2,1.84,1.8s1.14,1.17,1.7,1.76c1.11,1.18,2.17,2.4,3.22,3.63,2.1,2.47,4.07,5,5.94,7.72a74.71,74.71,0,0,1,9.32,17.67c.27.82.55,1.63.79,2.48l.18.63.1.33.12.5a12.59,12.59,0,0,1,.34,2,14,14,0,0,1-1.57,7.66,23.73,23.73,0,0,1-8.14,8.51,50.1,50.1,0,0,1-8.93,4.65,61.61,61.61,0,0,1-9.28,3,3.45,3.45,0,0,1-2.5-6.36l.16-.09c5-2.85,10.16-6.05,14-9.62a14.32,14.32,0,0,0,3.9-5.1,1.73,1.73,0,0,0,0-1.25,1.59,1.59,0,0,0-.09-.2l0-.06-.08-.21-.18-.46c-.22-.61-.49-1.23-.74-1.83a74.18,74.18,0,0,0-8.61-14.22c-1.7-2.28-3.52-4.51-5.39-6.7-.94-1.09-1.9-2.16-2.86-3.23l-1.45-1.57-1.39-1.45-.19-.19a6.93,6.93,0,0,1,9.76-9.82Z" style="fill:#ff8b7b"></path><path d="M304,119.49c16.11-.56,25.84,17.44,25.84,17.44L316,154.54s-7-2.33-11.63-13.29C302.11,136,300.9,120.23,304,119.49Z" style="fill:#4A74D0"></path><path d="M312.66,194.21s7.27-2.05,11.9-3.53c-2-5.21-7.55-9.07-8.71-10-3.23,2.19-7.4,5.19-8.65,6.64S308.52,192.5,312.66,194.21Z" style="fill:#4A74D0"></path><path d="M315.5,187.36l-5.19-2.64-3.42,2.36a23.4,23.4,0,0,0-6.94,7.39l-.33.57a3,3,0,0,0,1.37,4.3l3.65,1.82a3.48,3.48,0,0,0,4.22-.87l2.91-3.6S318.16,191.06,315.5,187.36Z" style="fill:#4A74D0"></path><path d="M275.54,96.37a5.81,5.81,0,0,1-2.59,7.87,7.5,7.5,0,0,1-5.39.58c-1.25-.36-2.3-.38-2.36.92a2.53,2.53,0,0,1-1.41,2.39c-2.38.94-5.41-.18-7-3.22-.5-1-.92-2.51-.41-3.33l17-7.57A6.08,6.08,0,0,1,275.54,96.37Z" style="fill:#4A74D0;opacity:0.4"></path><path d="M278.93,91.9l-22.7,10.78a.67.67,0,0,1-.89-.31h0a.67.67,0,0,1,.32-.89l22.7-10.79a.68.68,0,0,1,.89.32h0A.66.66,0,0,1,278.93,91.9Z" style="fill:#263238"></path></g><g id="freepik--Desk--inject-2"><rect x="211.57" y="263.49" width="5.9" height="152.58" style="fill:#4A74D0"></rect><rect x="211.57" y="263.49" width="5.9" height="152.58" style="fill:#fff;opacity:0.1"></rect><rect x="138.42" y="223.13" width="253.91" height="13.81" style="fill:#4A74D0"></rect><rect x="148.57" y="236.94" width="233.62" height="26.55" style="fill:#4A74D0"></rect><rect x="148.57" y="236.94" width="233.62" height="26.55" style="fill:#fff;opacity:0.30000000000000004"></rect><rect x="150.1" y="310.92" width="230.55" height="20.53" style="fill:#4A74D0"></rect><rect x="150.1" y="310.92" width="230.55" height="20.53" style="fill:#fff;opacity:0.30000000000000004"></rect><rect x="148.57" y="263.49" width="5.9" height="152.58" style="fill:#4A74D0"></rect><rect x="148.57" y="263.49" width="5.9" height="152.58" style="fill:#fff;opacity:0.30000000000000004"></rect><rect x="313.28" y="263.49" width="5.9" height="152.58" style="fill:#4A74D0"></rect><rect x="313.28" y="263.49" width="5.9" height="152.58" style="fill:#fff;opacity:0.30000000000000004"></rect><rect x="376.29" y="263.49" width="5.9" height="152.58" style="fill:#4A74D0"></rect><rect x="376.29" y="263.49" width="5.9" height="152.58" style="fill:#fff;opacity:0.1"></rect><rect x="327.15" y="223.13" width="65.19" height="13.81" style="opacity:0.30000000000000004"></rect><rect x="160.45" y="217.9" width="173.39" height="5.23" style="fill:#4A74D0"></rect><rect x="160.45" y="217.9" width="173.39" height="5.23" style="fill:#fff;opacity:0.7000000000000001"></rect><rect x="298.69" y="217.9" width="35.15" height="5.23" style="fill:#4A74D0;opacity:0.30000000000000004"></rect><rect x="319.18" y="236.94" width="63.01" height="26.55" style="fill:#4A74D0;opacity:0.7000000000000001"></rect><rect x="319.18" y="310.92" width="57.11" height="20.53" style="fill:#4A74D0;opacity:0.7000000000000001"></rect></g><g id="freepik--Boards--inject-2"><rect x="163.72" y="223.13" width="21.73" height="40.36" style="opacity:0.2"></rect><polygon points="191.05 135.94 156.27 135.94 138.42 418.93 173.2 418.93 191.05 135.94" style="fill:#4A74D0"></polygon><polygon points="191.05 135.94 156.27 135.94 138.42 418.93 173.2 418.93 191.05 135.94" style="fill:#fff;opacity:0.7000000000000001"></polygon><polygon points="191.05 135.94 186.88 135.94 169.03 418.93 173.2 418.93 191.05 135.94" style="fill:#4A74D0;opacity:0.30000000000000004"></polygon><polygon points="155.91 193.12 152.66 193.12 138.42 418.93 151.94 418.93 155.91 193.12" style="fill:#4A74D0;opacity:0.2"></polygon><path d="M153.46,413.47a7.6,7.6,0,0,1-6.16-3,16.5,16.5,0,0,1-2.81-5.68c-1.64-6.16-.43-12.77.74-19.15l.31-1.69c4.38-24.36,4.49-49.33,4.59-73.48.09-22.78.19-46.34,3.87-69.39a.54.54,0,0,1,.15-.29,3.64,3.64,0,0,1,4.94.29,8.3,8.3,0,0,1,1.91,4.45c2.08,10.7,1.1,22,.15,32.85-.27,3.14-.56,6.39-.76,9.57-.73,11.39-.5,23-.28,34.15.3,15.27.61,31.05-1.5,46.58-.23,1.71-.5,3.42-.76,5.13-1.11,7.24-2.26,14.72-1,21.92a18.43,18.43,0,0,1,0,6.46,3.25,3.25,0,0,1-3.66,2.7,2.83,2.83,0,0,1-2.57-3.15l3.7-58.29c1-16,2.07-32.51-1.45-48.15a.5.5,0,0,1,1-.22c3.55,15.78,2.49,32.38,1.47,48.44l-3.71,58.28a1.86,1.86,0,0,0,1.7,2.09,2.24,2.24,0,0,0,2.56-1.89,17.35,17.35,0,0,0,0-6.1c-1.23-7.36-.07-14.92,1.05-22.24.26-1.71.52-3.41.76-5.12,2.1-15.45,1.79-31.19,1.49-46.42-.22-11.21-.45-22.8.28-34.23.21-3.19.49-6.45.76-9.59.95-10.83,1.92-22-.13-32.58a7.52,7.52,0,0,0-1.64-3.93,2.71,2.71,0,0,0-3.42-.38c-3.64,22.92-3.74,46.38-3.83,69.06-.1,24.2-.21,49.21-4.61,73.65l-.31,1.7c-1.15,6.28-2.34,12.77-.75,18.71a15.4,15.4,0,0,0,2.63,5.34,6.79,6.79,0,0,0,7.5,2.32,8.14,8.14,0,0,0,6-7c.37-3.53.45-7.19.51-10.42l.9-45.24c.4-20.12.82-40.93.89-61.38.08-19.19-.14-38.63-.64-57.77a12.77,12.77,0,0,0-.7-4.63,11.48,11.48,0,0,0-1.23-2,14,14,0,0,1-1.28-2.12c-1.14-2.53-.7-5.4-.28-8.17a30.59,30.59,0,0,0,.45-4.1c.05-3.13-.95-6-2-9a32.49,32.49,0,0,1-2-8c-.36-4.45,1.06-8.88,2.44-13.15a45.89,45.89,0,0,0,2.4-9.91,42.52,42.52,0,0,0-.42-8.6,46.76,46.76,0,0,1-.46-8.31c.39-6.09,4.32-12.66,10.23-13.08a7.34,7.34,0,0,1,6.64,3.56,7.82,7.82,0,0,1,.52,8,.5.5,0,0,1-.88-.48,6.82,6.82,0,0,0-.48-6.92,6.31,6.31,0,0,0-5.73-3.11c-5.29.38-9,6.6-9.3,12.15a45.83,45.83,0,0,0,.46,8.12,43.66,43.66,0,0,1,.42,8.8,47,47,0,0,1-2.45,10.14c-1.41,4.37-2.74,8.5-2.39,12.76a31.29,31.29,0,0,0,2,7.72c1,3,2.1,6.08,2.05,9.38a30.51,30.51,0,0,1-.46,4.25c-.42,2.74-.82,5.33.2,7.6a13,13,0,0,0,1.19,2,12.64,12.64,0,0,1,1.33,2.23,13.56,13.56,0,0,1,.78,5c.5,19.16.72,38.61.64,57.81-.07,20.45-.49,41.26-.89,61.39l-.9,45.24c-.06,3.25-.14,6.93-.51,10.51a9.15,9.15,0,0,1-6.74,7.82A8.75,8.75,0,0,1,153.46,413.47Z" style="fill:#4A74D0;opacity:0.1"></path><path d="M172.74,266.79a2.67,2.67,0,0,1-2.73-2.3c-1.53-8.82-1.2-17.93-.64-28.06v-.15a63.66,63.66,0,0,0-.18-13.17,60.69,60.69,0,0,0-1.36-6.07c-.29-1.12-.59-2.24-.84-3.37a112.75,112.75,0,0,1-1.93-13.1l-1.46-13.47c-.45-4.16-1.06-9.85,1.64-14.43a3.22,3.22,0,0,1,2.16-1.81,3.11,3.11,0,0,1,2.67,1.36c3.42,4,5.08,9.91,4.92,17.51-.06,2.83-.33,5.69-.6,8.47a96.12,96.12,0,0,0-.6,10.05.52.52,0,0,1-.49.51.5.5,0,0,1-.51-.5,95.21,95.21,0,0,1,.61-10.16c.26-2.75.53-5.6.59-8.39.15-7.35-1.42-13-4.68-16.85-.65-.76-1.23-1.1-1.76-1s-1,.53-1.45,1.33c-2.34,4-2,8.79-1.5,13.81l1.45,13.47a112.36,112.36,0,0,0,1.91,13c.26,1.12.55,2.22.83,3.33a58.82,58.82,0,0,1,1.39,6.17,65.13,65.13,0,0,1,.19,13.39v.14c-.55,10.07-.89,19.12.62,27.84a1.69,1.69,0,0,0,1.86,1.47,2.09,2.09,0,0,0,2-2,87,87,0,0,0-.56-13.28c-.17-1.85-.35-3.76-.47-5.62-.89-13.43,1.13-27.15,3.08-40.42,1.12-7.62,2.27-15.5,2.87-23.24a45.62,45.62,0,0,0,.11-7.61A51.25,51.25,0,0,0,177.39,163c-.09-.3-.21-.6-.38-.66a.17.17,0,0,0-.15,0c-.27.14-.52.93-.68,1.46-.08.23-.15.47-.23.67a3.61,3.61,0,0,1-3.95,2,5.47,5.47,0,0,1-3.41-2.49A12.45,12.45,0,0,1,167.21,154a21.3,21.3,0,0,1,5.37-9.06.5.5,0,0,1,.57-.11,3.41,3.41,0,0,1,1.7,4.24.5.5,0,1,1-.94-.34,2.46,2.46,0,0,0-.87-2.82,20.09,20.09,0,0,0-4.86,8.34,11.45,11.45,0,0,0,1.23,9.23,4.62,4.62,0,0,0,2.77,2.08,2.62,2.62,0,0,0,2.84-1.41c.07-.19.13-.4.2-.62.27-.85.54-1.72,1.18-2.05a1.22,1.22,0,0,1,.92-.06,1.8,1.8,0,0,1,1,1.31,51.86,51.86,0,0,1,2.55,10.82,46.48,46.48,0,0,1-.1,7.78c-.6,7.77-1.76,15.67-2.88,23.3-1.94,13.22-3.95,26.89-3.07,40.22.12,1.84.29,3.75.47,5.59a88.74,88.74,0,0,1,.56,13.44,3.11,3.11,0,0,1-3,2.94Z" style="fill:#4A74D0;opacity:0.1"></path><path d="M168.69,392.77a.5.5,0,0,1-.48-.39,97.75,97.75,0,0,1-2.61-15.15,89.28,89.28,0,0,1,.06-10.94c.55-11,1.66-22.15,2.74-33,1.86-18.74,3.79-38.12,2.83-56.95a.5.5,0,0,1,.47-.53.52.52,0,0,1,.53.48c1,18.91-1,38.32-2.84,57.09-1.07,10.8-2.18,22-2.73,32.91a87.34,87.34,0,0,0-.06,10.82,97.84,97.84,0,0,0,2.58,15,.49.49,0,0,1-.37.59Z" style="fill:#4A74D0;opacity:0.1"></path><polygon points="160.52 180.69 117.62 180.69 89.4 420 132.3 420 160.52 180.69" style="fill:#4A74D0"></polygon><polygon points="160.52 180.69 117.62 180.69 89.4 420 132.3 420 160.52 180.69" style="fill:#fff;opacity:0.7000000000000001"></polygon><polygon points="160.52 180.69 155.37 180.69 127.15 420 132.3 420 160.52 180.69" style="fill:#4A74D0;opacity:0.30000000000000004"></polygon><path d="M108.32,415.46h-.59a10.75,10.75,0,0,1-8-3.71,9.92,9.92,0,0,1-2.31-7.52,30.44,30.44,0,0,1,2.06-7.06,27.61,27.61,0,0,0,2-7.22,24.94,24.94,0,0,0-1.2-8.31c-1-3.65-1.93-7.42-.67-11.24a26.57,26.57,0,0,1,3.92-6.77c1.75-2.45,3.56-5,4-7.59a17.81,17.81,0,0,0,.18-3.43c0-2.37-.07-4.83,1.81-7a15.73,15.73,0,0,1,2-1.78,13.4,13.4,0,0,0,1.89-1.75,9.05,9.05,0,0,0,1.66-3.87c4-16.19,7.74-32.62,11.05-48.85,3.53-17.28,6.71-34.87,9.79-51.88l6.92-38.27a73,73,0,0,0,1.22-8.79c.15-2.54-1.9-4-3.13-4.68a12.8,12.8,0,0,0-13,1,16.41,16.41,0,0,0-4.2,4.52c-3,5-2.67,10.44-2.37,15.72l.08,1.44c1.09,20.69-3.22,41.86-7.4,62.33-3.9,19.14-7.93,38.92-7.53,58.24a5.19,5.19,0,0,0,4.53-.39,7.39,7.39,0,0,0,2.75-3.34c4.39-8.9,5.17-18.35,5.93-27.48.22-2.67.45-5.42.76-8.12,1.13-9.68,3.47-19.49,5.73-29,3.07-12.87,6.25-26.17,6.4-39.21,0-1.44,0-2.88,0-4.32-.08-6.21-.17-12.63,2.67-18.88a10.66,10.66,0,0,0,1.07-5.08c-.07-1-1.32-1.46-2.36-1.49-1.45,0-3,.58-3.18,1.8l-5.77,49.28c-1.59,13.59-3.24,27.65-10.43,41a.5.5,0,1,1-.88-.47c7.1-13.2,8.73-27.16,10.31-40.67l5.78-49.28c.21-1.83,2.29-2.72,4.19-2.68s3.24,1,3.33,2.43a11.58,11.58,0,0,1-1.15,5.55c-2.75,6-2.66,12.36-2.58,18.45,0,1.45,0,2.9,0,4.35-.15,13.16-3.34,26.51-6.42,39.43-2.26,9.46-4.6,19.24-5.72,28.86-.31,2.68-.54,5.42-.76,8.08-.76,9.23-1.55,18.77-6,27.84a8.14,8.14,0,0,1-3.13,3.76c-1.64,1-4.38,1.3-5.83.2a.46.46,0,0,1-.2-.38c-.45-19.52,3.61-39.45,7.54-58.73,4.16-20.41,8.47-41.52,7.38-62.08l-.08-1.43c-.31-5.43-.63-11.05,2.51-16.3a17.53,17.53,0,0,1,4.46-4.8,13.89,13.89,0,0,1,14-1.06c2.49,1.33,3.79,3.33,3.66,5.63a76.24,76.24,0,0,1-1.23,8.91L137,237.64c-3.08,17-6.27,34.62-9.8,51.91-3.32,16.24-7,32.69-11.06,48.89a9.92,9.92,0,0,1-1.86,4.27,14,14,0,0,1-2,1.88,15.42,15.42,0,0,0-1.82,1.66c-1.64,1.89-1.61,4.05-1.57,6.34a19.31,19.31,0,0,1-.19,3.63c-.53,2.82-2.41,5.44-4.23,8a26.08,26.08,0,0,0-3.78,6.5c-1.16,3.55-.26,7,.69,10.68a26.05,26.05,0,0,1,1.23,8.64,28,28,0,0,1-2.1,7.49,29.45,29.45,0,0,0-2,6.83,8.9,8.9,0,0,0,2.07,6.75,9.77,9.77,0,0,0,7.26,3.36c4.21.21,8-2.16,9.42-4.48a3.71,3.71,0,0,0,.28-3.88.49.49,0,0,1,.18-.68.51.51,0,0,1,.69.18,4.67,4.67,0,0,1-.29,4.9A11.82,11.82,0,0,1,108.32,415.46Z" style="fill:#4A74D0;opacity:0.1"></path><path d="M111.83,410.8a.49.49,0,0,1-.32-.12c-2.86-2.42-4.61-5.1-5.07-7.77a9.2,9.2,0,0,1,3.5-8.62,8.79,8.79,0,0,1,4.47-2c1.8-.23,3.94.38,4.41,1.79.06.18.11.38.17.59.26,1.05.41,1.24.9,1.14a1.24,1.24,0,0,0,.72-.62,40.86,40.86,0,0,0,5-8.94,28,28,0,0,0,1.21-6.4c.63-6.53.6-13.19.58-19.63-.05-11.24-.1-22.86,3.38-34.24.48-1.58,1-3.2,1.58-4.76a56,56,0,0,0,3-11.19c.11-.91-.85-1.28-1.27-1.4-1.34-.38-3.14,0-3.68,1.17-3.41,7.35-4.6,15-5.7,23.49l0,.12a40.55,40.55,0,0,1-2.62,11.36,47.06,47.06,0,0,1-2.81,5.23c-.55.94-1.1,1.88-1.61,2.82a81.29,81.29,0,0,0-4.66,11l-4.18,11.4c-1.6,4.35-2.75,8.22-.63,11.49a2.15,2.15,0,0,0,1.59,1.1,3.94,3.94,0,0,0,2.61-.91c4.7-3.24,7.65-8,8.76-14.21a65.75,65.75,0,0,0,.75-7.07,56,56,0,0,1,1.06-8.62.5.5,0,0,1,1,.22,53.68,53.68,0,0,0-1,8.47,68.7,68.7,0,0,1-.77,7.18c-1.16,6.46-4.25,11.45-9.17,14.85a4.94,4.94,0,0,1-3.29,1.09,3.17,3.17,0,0,1-2.32-1.55c-2.57-4-.78-8.83.53-12.39l4.18-11.39a83.06,83.06,0,0,1,4.72-11.09c.51-1,1.07-1.91,1.63-2.85a47.22,47.22,0,0,0,2.76-5.13,40.22,40.22,0,0,0,2.54-11.09l0-.12c1.11-8.59,2.32-16.3,5.78-23.78.78-1.69,3.13-2.2,4.87-1.71a2.34,2.34,0,0,1,2,2.48,56.47,56.47,0,0,1-3.09,11.4c-.54,1.55-1.09,3.16-1.57,4.72-3.44,11.24-3.39,22.78-3.34,33.95a195.18,195.18,0,0,1-.59,19.73,28.59,28.59,0,0,1-1.26,6.62,41.23,41.23,0,0,1-5.08,9.17,2.15,2.15,0,0,1-1.34,1c-1.53.33-1.89-1.1-2.08-1.87,0-.18-.09-.35-.14-.51-.27-.78-1.83-1.31-3.35-1.12a7.9,7.9,0,0,0-4,1.82,8.24,8.24,0,0,0-3.15,7.68c.41,2.37,2,4.78,4.52,7a3.07,3.07,0,0,0,1.7-1.35,1.29,1.29,0,0,0,.14-1,.5.5,0,1,1,1-.31,2.27,2.27,0,0,1-.2,1.77,4.2,4.2,0,0,1-2.56,1.92Z" style="fill:#4A74D0;opacity:0.1"></path><path d="M133.61,299.93a.34.34,0,0,1-.14,0,.48.48,0,0,1-.34-.61c4.52-15.91,5.58-32.28,6.6-48.11.6-9.15,1.21-18.6,2.48-27.89a56.58,56.58,0,0,1,1.87-9.28A73.36,73.36,0,0,1,150,201.19a.5.5,0,0,1,.68-.21.51.51,0,0,1,.2.68A72,72,0,0,0,145,214.32a55,55,0,0,0-1.84,9.12c-1.27,9.25-1.88,18.69-2.47,27.81-1,15.89-2.09,32.31-6.64,48.32A.51.51,0,0,1,133.61,299.93Z" style="fill:#4A74D0;opacity:0.1"></path></g></svg>