<?xml version="1.0" encoding="utf-8"?>
<!-- Generator: Adobe Illustrator 27.5.0, SVG Export Plug-In . SVG Version: 6.00 Build 0)  -->
<svg version="1.1" xmlns="http://www.w3.org/2000/svg" xmlns:xlink="http://www.w3.org/1999/xlink" x="0px" y="0px"
	 viewBox="0 0 650 500" style="enable-background:new 0 0 650 500;" xml:space="preserve">
<g id="BACKGROUND">
	<rect style="fill:#FFFFFF;" width="650" height="500"/>
</g>
<g id="OBJECTS">
	<g>
		<g>
			<g>
				<path style="fill:#E6EBF1;" d="M52.014,466.202c-0.905-24.143,4.49-49.443,21.048-68.374
					c16.558-18.931,45.974-29.703,70.883-21.291c5.224,1.764,10.283,4.324,15.85,4.602c4.519,0.226,8.983-1.093,13.042-2.92
					c21.917-9.861,32.082-32.494,45.065-51.327c12.644-18.34,29.92-34.645,51.663-43.477c21.743-8.831,48.287-9.307,68.614,1.905
					c19.739,10.888,32.845,31.746,55.174,37.128c22.019,5.308,44.208-6.428,66.643-10.111c26.767-4.395,54.82,3.117,77.243,17.053
					c22.423,13.936,28.067,19.958,41.675,41.323c16.574,26.022,23.745,63.319,27.83,94.122"/>
			</g>
			<g>
				<path style="fill:#E6EBF1;" d="M230.425,268.797c2.027-16.972-5.338-11.119-6.074-20.538c-0.349-4.47,1.42-24.132,3.691-35.773
					c1.541-7.899,7.341-2.745,8.801-7.382c2.638-8.376,2.839-15.615,6.53-18.454c1.873-1.441,4.681-1.692,6.273,0.053
					c1.216,1.333,1.2,3.566,2.635,4.659c2.589,1.97,5.682-1.744,6.817-4.792c2.732-7.336,5.464-14.673,8.196-22.009
					c0.641-1.721,1.425-3.603,3.087-4.385c3.639-1.712,6.85,3.108,7.728,7.033c1.516,6.777,1.923,13.801,1.202,20.709
					c-0.393,3.758,0.299,9.203,4.073,9.01c1.493-0.076,2.744-1.192,4.215-1.464c4.105-0.758,6.232,4.736,6.463,8.903
					c0.807,14.602-1.52,29.176-3.838,43.616c-0.521,3.247-1.08,6.594-2.837,9.374c-1.757,2.779-5.046,4.866-8.264,4.192
					c-3.219-0.674-5.424-4.925-3.413-7.527c-2.922-3.142-7.896,0.776-10.022,4.502c-2.127,3.726-6.023,8.284-9.718,6.104
					c-0.824-0.487-1.514-1.295-2.464-1.415c-1.149-0.145-2.141,0.779-2.839,1.702c-2.131,2.817-3.272,6.247-5.056,9.296
					c-1.784,3.049-4.583,5.897-8.106,6.16c-3.522,0.263-7.196-3.41-5.799-6.654"/>
			</g>
			<g>
				<path style="fill:#E6EBF1;" d="M361.01,50.703c-7.434,0.761-13.025,7.319-12.343,14.76c0.005,0.058,0.011,0.115,0.016,0.172
					c0.575,5.731,2.531,11.625,0.742,17.1c-0.278,0.852-0.72,1.751-1.55,2.087c-2.286,0.924-3.508-2.908-5.748-3.938
					c-1.598-0.735-3.569,0.203-4.564,1.654c-0.995,1.451-1.247,3.271-1.437,5.02c-1.769,16.251-0.567,32.823,3.546,48.645
					c0.687,2.643,1.611,5.215,2.672,7.731c0.905,2.145,2.232,5.207,5.452,4.321c2.023-0.557,3.412-2.41,3.618-4.499
					c0.311-3.156,3.529-8.736,6.923-6.364c0.663,0.463,1.127,1.163,1.407,1.922c1.944,5.257,3.555,10.638,4.819,16.099
					c1.149,4.963,2.068,10.138,5.821,13.976c1.364,1.395,3.093,2.431,5.008,2.804c6.23,1.215,10.236-4.295,12.329-9.522
					c4.51-11.263,4.576-24.021,9.783-34.979c0.986-2.076,2.407-4.264,4.656-4.74c3.484-0.737,7.225,3.044,10.316,0.169
					c1.113-1.035,1.643-2.557,1.597-4.076c-0.515-16.979-2.348-33.917-5.477-50.613c-0.324-1.729-0.806-3.667-2.334-4.539
					c-0.95-0.543-2.112-0.544-3.142-0.915c-3.162-1.138-4.031-5.085-4.731-8.372c-0.7-3.287-2.562-7.189-5.922-7.126L361.01,50.703z
					"/>
			</g>
		</g>
		<g>
			<g>
				<g>
					<g>
						<g>
							<path style="fill:#C0D9B4;" d="M504.24,197.883c-2.734-7.092-1.691-16.461,2.592-23.296
								c4.284-6.835,11.609-10.82,18.217-9.909c1.315,13.606-8.235,31.174-19.761,33.157"/>
						</g>
						<g>
							<path style="fill:#C0D9B4;" d="M501.169,218.825c-9.608-0.234-17.9-9.034-19.22-20.397
								c9.031-0.046,17.255,6.755,20.197,16.704"/>
						</g>
						<g>
							<path style="fill:#C0D9B4;" d="M501.203,218.59c9.221,1.044,20.426-4.828,26.687-14.051
								c-8.276-5.844-21.069-1.262-26.62,9.533"/>
						</g>
						<g>
							<path style="fill:#C0D9B4;" d="M502.414,240.044c-6.446-8.468-17.384-11.494-27.182-7.52
								c-0.681,0.276-1.488,0.773-1.564,1.618c-0.037,0.41,0.121,0.78,0.281,1.118c5.152,10.849,18.527,14.011,28.111,6.645"/>
						</g>
						<g>
							<path style="fill:#C0D9B4;" d="M501.646,239.923c8.967-11.499,24.275-14.598,34.258-6.936
								c-7.543,13.517-24.777,17.395-33.923,7.635"/>
						</g>
						<g>
							<path style="fill:#C0D9B4;" d="M505.128,268.91c-6.499-9.314-19.398-10.898-28.715-3.527
								c6.112,9.884,19.289,11.894,28.68,4.375"/>
						</g>
						<g>
							<path style="fill:#C0D9B4;" d="M505.681,270.793c7.814,5.189,18.521,4.259,26.655-2.315
								c-6.677-8.151-18.716-9.047-27.463-2.045"/>
						</g>
						<g>
							<path style="fill:#C0D9B4;" d="M503.345,294.694c-4.652-6.674-13.622-7.592-21.175-5.38
								c-1.055,0.309-2.336,1.042-2.413,2.328c-0.05,0.839,0.468,1.484,0.97,1.998c5.87,6.002,13.624,9.248,21.591,6.353"/>
						</g>
						<g>
							<path style="fill:#C0D9B4;" d="M503.278,301.16c9.034,3.091,18.001,0.158,24.313-7.953
								c-9.435-6.11-17.414-5.647-24.633,1.942"/>
						</g>
						<path style="fill:none;stroke:#C0D9B4;stroke-miterlimit:10;" d="M508.445,446.544
							c-5.678-17.478-16.742-72.828-13.153-114.883c1.238-14.513,7.516-28.319,9.117-42.741c2.077-18.721-1.67-36.841-2.877-55.258
							c-1.207-18.418,0.79-39.212,11.829-53.68"/>
					</g>
				</g>
				<g>
					<g>
						<path style="fill:#83BA63;" d="M559.536,313.465c5.779-6.57,8.88-17.061,7.711-26.089
							c-1.169-9.028-6.553-16.173-13.389-17.768c-7.259,14.134-5.676,36.769,4.678,43.396"/>
					</g>
					<g>
						<path style="fill:#83BA63;" d="M553.325,337.206c9.462,3.493,21.404-2.748,27.683-14.466
							c-8.776-3.569-19.775,0.547-27.012,10.11"/>
					</g>
					<g>
						<path style="fill:#83BA63;" d="M553.394,336.94c-9.44-2.47-17.773-13.159-19.819-25.527
							c10.629-3.065,21.076,6.853,21.74,20.638"/>
					</g>
					<g>
						<path style="fill:#83BA63;" d="M542.789,359.564c9.999-6.603,21.983-5.598,29.78,2.499c0.542,0.563,1.11,1.412,0.813,2.352
							c-0.144,0.455-0.46,0.792-0.765,1.093c-9.785,9.671-24.201,7.861-30.3-3.804"/>
					</g>
					<g>
						<path style="fill:#83BA63;" d="M543.59,359.732c-3.681-15.873-17.23-25.177-30.32-20.82
							c1.407,17.491,16.49,28.383,29.687,21.441"/>
					</g>
					<g>
						<path style="fill:#83BA63;" d="M527.462,389.58c10.423-7.493,23.683-4.171,29.518,7.396
							c-10.296,8.258-24.013,5.286-29.857-6.469"/>
					</g>
					<g>
						<path style="fill:#83BA63;" d="M526.096,391.391c-9.891,2.54-19.91-2.634-24.944-12.882
							c10.085-6.172,22.204-2.445,27.647,8.503"/>
					</g>
					<g>
						<path style="fill:#83BA63;" d="M513.807,462.119c-0.387-3.741-0.665-7.495-0.775-11.258
							c-0.097-3.764-0.009-7.534,0.271-11.293c0.574-7.521,2.054-14.953,3.986-22.233c0.963-3.641,1.999-7.263,3.203-10.843
							c1.192-3.581,2.588-7.087,4.032-10.57c2.961-6.936,6.324-13.686,9.797-20.361c6.978-13.319,14.339-26.488,19.217-40.708
							c2.476-7.077,4.408-14.365,5.41-21.802c1.028-7.417,1.111-15.036-0.432-22.412c1.704,7.341,1.792,14.994,0.92,22.474
							c-0.908,7.492-2.767,14.845-5.167,21.99c-4.761,14.354-12.161,27.591-19.063,40.919c-3.497,6.653-6.874,13.366-9.848,20.255
							c-1.451,3.458-2.853,6.939-4.051,10.491c-1.197,3.548-2.281,7.146-3.285,10.764c-2.016,7.229-3.562,14.598-4.241,22.076
							c-0.359,3.735-0.526,7.49-0.51,11.248C513.302,454.614,513.5,458.37,513.807,462.119z"/>
					</g>
				</g>
			</g>
			<g>
				<g>
					<g>
						<g>
							<path style="fill:#C0D9B4;" d="M105.017,220.242c0.553-7.581-3.17-16.241-9.256-21.535
								c-6.086-5.294-14.255-6.976-20.312-4.182c2.699,13.4,16.947,27.431,28.55,25.976"/>
						</g>
						<g>
							<path style="fill:#C0D9B4;" d="M114.046,239.385c9.125-3.019,14.499-13.85,12.456-25.106
								c-8.654,2.583-14.544,11.482-14.465,21.857"/>
						</g>
						<g>
							<path style="fill:#C0D9B4;" d="M113.946,239.171c-8.519,3.682-20.947,1.322-29.62-5.681
								c6.218-7.998,19.79-7.336,28.242,1.378"/>
						</g>
						<g>
							<path style="fill:#C0D9B4;" d="M119.028,260.049c3.704-9.977,13.289-16.054,23.82-15.102
								c0.732,0.066,1.648,0.307,1.967,1.093c0.154,0.381,0.111,0.781,0.056,1.152c-1.773,11.878-13.65,18.794-24.963,14.534"/>
						</g>
						<g>
							<path style="fill:#C0D9B4;" d="M119.727,259.71c-11.924-8.393-27.472-6.906-34.795,3.328
								c11.148,10.738,28.765,9.437,34.678-2.563"/>
						</g>
						<g>
							<path style="fill:#C0D9B4;" d="M124.827,288.457c3.509-10.802,15.39-16.069,26.448-11.727
								c-2.972,11.235-14.995,16.991-26.168,12.528"/>
						</g>
						<g>
							<path style="fill:#C0D9B4;" d="M124.845,290.419c-5.967,7.237-16.481,9.462-26.176,5.538
								c4.018-9.741,15.275-14.1,25.681-9.944"/>
						</g>
						<g>
							<path style="fill:#C0D9B4;" d="M134.032,312.608c2.51-7.739,10.825-11.226,18.695-11.306
								c1.099-0.011,2.538,0.318,2.985,1.526c0.292,0.788-0.016,1.556-0.347,2.193c-3.87,7.45-10.345,12.811-18.809,12.358"/>
						</g>
						<g>
							<path style="fill:#C0D9B4;" d="M135.977,318.774c-7.744,5.585-17.176,5.387-25.575-0.538
								c7.25-8.59,15.019-10.468,24.133-5.307"/>
						</g>
						<path style="fill:none;stroke:#C0D9B4;stroke-miterlimit:10;" d="M169.957,457.323c0.349-18.373-1.802-72.495-17.467-111.689
							c-5.406-13.525-15.428-24.908-21.155-38.242c-7.432-17.307-9.118-35.734-13.32-53.706
							c-4.203-17.972-12.162-37.287-26.931-47.919"/>
					</g>
				</g>
				<g>
					<g>
						<path style="fill:#83BA63;" d="M63.537,324c-9.192-5.689-16.628-16.976-18.49-28.067c-1.863-11.091,1.935-21.472,9.442-25.814
							c13.659,14.099,19.922,41.423,10.065,52.977"/>
					</g>
					<g>
						<path style="fill:#83BA63;" d="M79.41,349.832c-9.929,7.529-26.289,4.444-37.921-7.152c9.092-7.373,23.571-6.46,35.563,2.244"
							/>
					</g>
					<g>
						<path style="fill:#83BA63;" d="M79.233,349.543c10.271-6.312,16.281-21.941,14.254-37.297
							c-13.665,0.196-22.45,15.674-18.281,32.208"/>
					</g>
					<g>
						<path style="fill:#83BA63;" d="M99.898,372.474c-14.192-4.212-27.996,1.283-34.303,13.656
							c-0.439,0.86-0.804,2.068-0.116,3.072c0.334,0.486,0.829,0.771,1.298,1.017c15.041,7.916,31.432,0.596,34.45-15.385"/>
					</g>
					<g>
						<path style="fill:#83BA63;" d="M99.012,372.961c-1.353-20.086,11.32-35.952,28.359-35.506
							c4.622,21.181-9.292,39.476-27.387,36.013"/>
					</g>
					<g>
						<path style="fill:#83BA63;" d="M128.803,402.447c-15.013-5.112-29.494,3.58-32.235,19.349
							c15.138,6.062,30.285-2.381,32.968-18.376"/>
					</g>
					<g>
						<path style="fill:#83BA63;" d="M131.068,404.097c12.604-0.552,22.588-10.268,24.857-24.191
							c-14.139-3.671-27.125,5.09-29.625,19.986"/>
					</g>
					<g>
						<path style="fill:#83BA63;" d="M166.917,462.736c-2.222-3.584-4.133-7.352-6.057-11.1c-1.925-3.75-3.863-7.489-5.898-11.173
							c-4.079-7.362-8.619-14.47-13.572-21.257c-9.944-13.594-21.992-25.455-33.796-37.47c-5.918-6.004-11.797-12.059-17.408-18.373
							c-5.591-6.327-10.841-12.97-15.53-20c-2.352-3.508-4.567-7.11-6.597-10.815c-2.033-3.702-3.906-7.497-5.494-11.412
							c-3.212-7.804-5.425-16.065-6.029-24.482c0.753,8.405,3.106,16.597,6.44,24.31c3.313,7.734,7.527,15.059,12.276,21.997
							c2.372,3.473,4.878,6.853,7.493,10.146c2.603,3.304,5.306,6.528,8.103,9.67c5.61,6.271,11.499,12.297,17.434,18.279
							c5.935,5.982,11.883,11.966,17.6,18.178c5.722,6.203,11.235,12.622,16.205,19.461c4.998,6.821,9.382,14.061,13.385,21.49
							c2.003,3.716,3.857,7.506,5.676,11.309C162.978,455.289,164.788,459.096,166.917,462.736z"/>
					</g>
				</g>
			</g>
		</g>
		<g>
			<path style="fill:#E6EBF1;" d="M134.147,160.842l2.395-5.986c0.443-1.108,2.021-1.077,2.421,0.047l2.088,5.872
				c0.141,0.395,0.464,0.698,0.868,0.812l3.954,1.115c1.207,0.34,1.273,2.027,0.096,2.46l-3.95,1.455
				c-0.336,0.124-0.606,0.382-0.745,0.712l-2.15,5.106c-0.429,1.019-1.856,1.066-2.35,0.077l-2.192-4.385
				c-0.145-0.29-0.394-0.515-0.697-0.631l-5.183-1.974c-1.141-0.435-1.101-2.063,0.061-2.44l4.584-1.49
				C133.711,161.474,134.005,161.199,134.147,160.842z"/>
			<path style="fill:#E6EBF1;" d="M534.545,119.633l2.57-6.424c0.476-1.189,2.169-1.156,2.598,0.05l2.24,6.301
				c0.151,0.424,0.498,0.749,0.932,0.871l4.243,1.197c1.295,0.365,1.366,2.175,0.103,2.64l-4.239,1.562
				c-0.361,0.133-0.651,0.41-0.8,0.764l-2.307,5.48c-0.461,1.094-1.992,1.144-2.522,0.082l-2.353-4.705
				c-0.156-0.311-0.422-0.553-0.748-0.677l-5.562-2.119c-1.225-0.466-1.181-2.214,0.065-2.619l4.92-1.599
				C534.077,120.31,534.392,120.016,534.545,119.633z"/>
			<path style="fill:#E6EBF1;" d="M557.76,151.641l1.896-4.741c0.351-0.877,1.601-0.853,1.917,0.037l1.653,4.65
				c0.111,0.313,0.368,0.553,0.687,0.643l3.131,0.883c0.956,0.27,1.008,1.605,0.076,1.948l-3.128,1.152
				c-0.266,0.098-0.48,0.302-0.59,0.564l-1.703,4.044c-0.34,0.807-1.47,0.844-1.861,0.061l-1.736-3.472
				c-0.115-0.23-0.312-0.408-0.552-0.499l-4.104-1.563c-0.904-0.344-0.871-1.633,0.048-1.932l3.63-1.18
				C557.415,152.141,557.647,151.923,557.76,151.641z"/>
			<path style="fill:#E6EBF1;" d="M95.867,138.41l3.375-8.437c0.624-1.561,2.849-1.518,3.412,0.066l2.942,8.276
				c0.198,0.557,0.654,0.984,1.224,1.145l5.572,1.572c1.701,0.48,1.794,2.856,0.135,3.467l-5.567,2.051
				c-0.474,0.175-0.854,0.538-1.05,1.004l-3.03,7.197c-0.605,1.436-2.616,1.502-3.313,0.108l-3.09-6.18
				c-0.204-0.409-0.555-0.726-0.982-0.889l-7.304-2.783c-1.608-0.613-1.551-2.907,0.086-3.439l6.461-2.1
				C95.252,139.3,95.666,138.912,95.867,138.41z"/>
		</g>
	</g>
	<g>
		<g>
			<g>
				
					<rect x="359.461" y="280.567" transform="matrix(-1.836970e-16 1 -1 -1.836970e-16 688.6713 -35.4694)" style="fill:#8EA1AF;" width="5.22" height="92.069"/>
				<polygon style="fill:#8EA1AF;" points="268.505,463.395 273.574,463.249 368.533,180.338 363.982,178.81 				"/>
				<polygon style="fill:#8EA1AF;" points="516.42,463.395 511.029,463.374 416.07,180.462 420.622,178.935 				"/>
				<polygon style="fill:#8EA1AF;" points="454.633,465.949 448.969,466.158 363.845,180.133 368.447,178.764 				"/>
				
					<rect x="422.505" y="251.914" transform="matrix(-1.836970e-16 1 -1 -1.836970e-16 704.4346 -145.376)" style="fill:#8EA1AF;" width="4.801" height="55.231"/>
				
					<rect x="430.718" y="284.393" transform="matrix(-1.836970e-16 1 -1 -1.836970e-16 745.1262 -121.1104)" style="fill:#8EA1AF;" width="4.801" height="55.231"/>
				
					<rect x="441.943" y="316.581" transform="matrix(-1.836970e-16 1 -1 -1.836970e-16 789.2607 -99.5413)" style="fill:#8EA1AF;" width="4.917" height="56.557"/>
				
					<rect x="453.433" y="346.923" transform="matrix(-1.836970e-16 1 -1 -1.836970e-16 833.4155 -78.739)" style="fill:#8EA1AF;" width="5.288" height="60.83"/>
				
					<rect x="462.751" y="381.165" transform="matrix(-1.836970e-16 1 -1 -1.836970e-16 875.8701 -54.7433)" style="fill:#8EA1AF;" width="5.111" height="58.797"/>
				
					<rect x="389.845" y="152.928" transform="matrix(-1.836970e-16 1 -1 -1.836970e-16 573.518 -211.1916)" style="fill:#8EA1AF;" width="5.02" height="56.471"/>
				
					<rect x="401.848" y="186.207" transform="matrix(-1.836970e-16 1 -1 -1.836970e-16 619.4354 -189.2799)" style="fill:#8EA1AF;" width="5.019" height="57.741"/>
				
					<rect x="411.985" y="221.713" transform="matrix(-1.836970e-16 1 -1 -1.836970e-16 663.527 -165.4621)" style="fill:#8EA1AF;" width="5.019" height="54.64"/>
				
					<rect x="472.884" y="412.633" transform="matrix(-1.836970e-16 1 -1 -1.836970e-16 919.2419 -32.0606)" style="fill:#8EA1AF;" width="5.535" height="61.916"/>
			</g>
			<g>
				<g>
					<path style="fill:none;stroke:#373739;stroke-width:2;stroke-miterlimit:10;" d="M386.07,89.577l-0.224-1.258
						c-0.508-2.845-3.245-4.723-6.082-4.174l-10.394,2.011c-2.684,0.519-5.309-1.137-5.996-3.782l0,0
						c-0.752-2.894,1.097-5.821,4.033-6.386l23.397-4.506"/>
					
						<line style="fill:none;stroke:#373739;stroke-width:3;stroke-miterlimit:10;" x1="388.213" y1="105.29" x2="409.349" y2="228.233"/>
					<path style="fill:#255387;" d="M391.965,113.314l-4.245-25.491c-0.206-1.236-1.374-2.07-2.61-1.865l0,0
						c-1.235,0.206-2.07,1.374-1.865,2.61l4.245,25.491c0.206,1.235,1.374,2.07,2.61,1.865l0,0
						C391.335,115.718,392.17,114.55,391.965,113.314z"/>
					<path style="fill:#B3B8C4;" d="M369.875,80.308l28-5.372c1.662-0.319,2.751-1.924,2.432-3.586l-0.49-2.556
						c-0.319-1.662-1.924-2.751-3.586-2.432l-28,5.372c-1.662,0.319-2.75,1.924-2.432,3.586l0.491,2.557
						C366.607,79.538,368.213,80.627,369.875,80.308z"/>
				</g>
				<g>
					<path style="fill:#38303B;" d="M467.003,150.486c2.48-0.455,4.735-2.019,6.03-4.183c1.294-2.164,1.606-4.891,0.834-7.291
						c-0.586-1.822-1.764-3.477-1.923-5.384c-0.253-3.033,2.128-5.784,2.029-8.826c-0.096-2.953-2.456-5.291-3.523-8.047
						c-0.7-1.808-0.832-3.78-1.295-5.663c-0.924-3.763-3.159-7.102-5.857-9.883c-2.698-2.782-5.86-5.062-9.004-7.327
						c-0.595-0.429-1.354-0.876-2.014-0.557c-0.336,0.162-0.557,0.494-0.715,0.832c-0.602,1.288-0.496,2.78-0.38,4.198
						c1.487,18.132,2.491,36.304,3.012,54.49"/>
				</g>
				<g>
					<g>
						<path style="fill:#F7B094;" d="M411.851,291.672c0.864,2.15,1.728,4.299,2.592,6.449c0.168,0.418,0.338,0.843,0.382,1.292
							c0.172,1.753-1.547,3.117-1.94,4.835c-0.042,0.183-0.068,0.377-0.01,0.556c0.184,0.571,0.981,0.574,1.57,0.463
							c1.724-0.325,3.447-0.65,5.171-0.975c0.651-0.123,1.407-0.329,1.644-0.948c0.107-0.279,0.08-0.589,0.052-0.886
							c-0.407-4.341-0.814-8.681-1.221-13.022"/>
					</g>
					<g>
						<path style="fill:#302933;" d="M396.852,311.436c4.365,0.037,7.942,0.062,12.308,0.099c1.335,0.011,2.74,0.006,3.905-0.646
							c0.643-0.359,1.278-0.925,2.004-0.8c0.562,0.096,0.968,0.585,1.488,0.82c0.456,0.206,0.974,0.205,1.474,0.201
							c1.526-0.013,3.051-0.025,4.576-0.038c0.503-0.004,1.057-0.027,1.427-0.369c0.435-0.401,0.442-1.076,0.398-1.666
							c-0.176-2.334-0.668-4.644-1.46-6.847c-0.18-0.501-0.441-1.059-0.954-1.203c-0.472-0.132-0.95,0.146-1.369,0.399
							c-1.698,1.021-3.947,1.774-5.576,0.646c-0.423-0.293-0.778-0.701-1.259-0.884c-0.533-0.202-1.126-0.093-1.683,0.026
							c-4.804,1.031-9.47,2.702-13.837,4.953c-0.991,0.511-2.013,1.095-2.582,2.054c-0.569,0.959-0.482,2.396,0.469,2.979"/>
					</g>
					<g>
						<g>
							<path style="fill:#F09532;" d="M405.133,303.276c0.027,0.018,0.054,0.037,0.08,0.056c0.01,0.007,0.077,0.059,0.027,0.02
								c-0.055-0.044,0.03,0.025,0.04,0.034c0.02,0.017,0.039,0.034,0.059,0.051c0.092,0.082,0.178,0.169,0.259,0.261
								c0.036,0.04,0.088,0.085,0.112,0.134c-0.028-0.056-0.03-0.039,0.004,0.007c0.015,0.021,0.03,0.042,0.045,0.063
								c0.07,0.101,0.135,0.206,0.194,0.314c0.054,0.099,0.12,0.207,0.154,0.315c-0.012-0.037-0.026-0.065-0.005-0.012
								c0.012,0.03,0.024,0.061,0.035,0.091c0.02,0.055,0.04,0.11,0.058,0.166c0.077,0.234,0.132,0.473,0.168,0.716
								c0.039,0.259,0.379,0.426,0.615,0.349c0.283-0.092,0.392-0.337,0.349-0.615c-0.17-1.117-0.748-2.172-1.691-2.815
								c-0.217-0.148-0.564-0.048-0.684,0.179C404.819,302.846,404.901,303.118,405.133,303.276L405.133,303.276z"/>
						</g>
					</g>
					<g>
						<g>
							<path style="fill:#F09532;" d="M408.927,301.817c0.855,0.814,1.486,1.823,1.834,2.922c0.079,0.249,0.351,0.435,0.615,0.349
								c0.25-0.081,0.434-0.348,0.349-0.615c-0.404-1.275-1.122-2.44-2.091-3.363c-0.19-0.181-0.521-0.202-0.707,0
								C408.747,301.306,408.725,301.624,408.927,301.817L408.927,301.817z"/>
						</g>
					</g>
				</g>
				<g>
					<g>
						<path style="fill:#F7B094;" d="M461.174,326.052c1.326,1.9,2.652,3.8,3.978,5.7c0.258,0.37,0.519,0.746,0.663,1.173
							c0.562,1.67-0.805,3.386-0.801,5.147c0,0.188,0.019,0.383,0.115,0.544c0.307,0.515,1.085,0.338,1.634,0.097
							c1.606-0.705,3.212-1.41,4.819-2.115c0.607-0.266,1.297-0.637,1.388-1.293c0.041-0.296-0.054-0.592-0.148-0.875
							c-1.374-4.138-2.748-8.275-4.122-12.413"/>
					</g>
					<g>
						<path style="fill:#38303B;" d="M448.802,344.238c4.365,0.037,7.942,0.062,12.308,0.098c1.335,0.011,2.74,0.006,3.905-0.645
							c0.643-0.359,1.278-0.925,2.004-0.8c0.562,0.096,0.968,0.585,1.488,0.82c0.456,0.206,0.974,0.205,1.474,0.201
							c1.525-0.013,3.051-0.025,4.576-0.038c0.503-0.004,1.057-0.027,1.427-0.369c0.435-0.401,0.442-1.076,0.398-1.666
							c-0.176-2.334-0.668-4.644-1.46-6.847c-0.18-0.501-0.441-1.059-0.954-1.203c-0.472-0.132-0.949,0.146-1.369,0.399
							c-1.698,1.021-3.947,1.774-5.576,0.646c-0.424-0.293-0.778-0.701-1.26-0.884c-0.532-0.202-1.126-0.093-1.683,0.026
							c-4.804,1.031-9.47,2.702-13.837,4.953c-0.991,0.511-2.013,1.095-2.582,2.054c-0.569,0.959-0.482,2.396,0.469,2.979"/>
					</g>
					<g>
						<g>
							<path style="fill:#F09532;" d="M457.083,336.078c0.027,0.018,0.054,0.037,0.08,0.056c0.009,0.007,0.077,0.059,0.027,0.02
								c-0.055-0.044,0.03,0.025,0.04,0.034c0.02,0.017,0.039,0.034,0.059,0.051c0.092,0.082,0.178,0.169,0.259,0.261
								c0.036,0.04,0.088,0.085,0.112,0.134c-0.028-0.056-0.03-0.039,0.004,0.007c0.015,0.021,0.03,0.042,0.045,0.063
								c0.07,0.101,0.135,0.206,0.194,0.314c0.054,0.099,0.12,0.207,0.154,0.315c-0.012-0.037-0.026-0.065-0.005-0.011
								c0.012,0.03,0.024,0.06,0.035,0.091c0.021,0.055,0.04,0.11,0.058,0.166c0.076,0.234,0.131,0.473,0.168,0.716
								c0.039,0.26,0.379,0.426,0.615,0.349c0.283-0.091,0.392-0.337,0.349-0.615c-0.17-1.117-0.748-2.172-1.691-2.815
								c-0.217-0.148-0.564-0.048-0.684,0.179C456.77,335.648,456.852,335.921,457.083,336.078L457.083,336.078z"/>
						</g>
					</g>
					<g>
						<g>
							<path style="fill:#F09532;" d="M460.878,334.619c0.855,0.814,1.486,1.823,1.834,2.922c0.079,0.249,0.351,0.435,0.615,0.349
								c0.25-0.081,0.434-0.348,0.349-0.615c-0.404-1.275-1.122-2.44-2.091-3.363c-0.189-0.181-0.521-0.202-0.707,0
								C460.698,334.108,460.675,334.427,460.878,334.619L460.878,334.619z"/>
						</g>
					</g>
				</g>
				<g>
					<path style="fill:#B3B8C4;" d="M463.516,331.731c-0.547,0.146-1.112-0.151-1.296-0.686
						c-6.695-19.464-14.079-43.703-19.874-63.29c-2.192-7.41-4.901-17.435-3.488-18.717c0.927-0.842,4.024,13.813,5.276,13.849
						c5.326,0.153,10.652,0.306,15.979,0.46c4.099,20.235,8.904,44.416,13.025,64.777c0.113,0.559-0.229,1.104-0.78,1.251
						L463.516,331.731z"/>
				</g>
				<g>
					<path style="fill:#B3B8C4;" d="M461.121,270.84c-0.178-6.325-0.362-12.649-0.533-18.974
						c-0.332-12.219,2.836-22.609,3.777-28.971c1.272-8.595,1.233-6.152-0.353-14.695c-0.544-2.93-1.387-7.377-1.623-8.579
						c-1.156-5.879-2.688-12.341-3.996-12.639c-8.91-2.029-17.971,10.524-26.532,7.328c0.569,21.187,3.061,42.323,7.438,63.061
						c0.801,3.795,1.712,7.686,3.948,10.856c2.235,3.169,6.128,5.478,9.932,4.723"/>
				</g>
				<g>
					<path style="fill:#38303B;" d="M447.308,116.93c4.688,1.287,9.583-0.065,12.65-2.608c3.067-2.543,4.578-6.098,5.529-9.692
						c0.823-3.109,1.274-6.395,0.358-9.691c-0.916-3.296-3.383-6.624-7.13-8.446c-2.535-1.233-5.438-1.692-8.225-1.816
						c-1.818-0.081-3.684-0.019-5.184,0.629c-1.388,0.6-2.341,1.65-3.101,2.755c-2.672,3.884-3.326,8.61-3.662,13.261
						c-0.188,2.606-0.285,5.272,0.557,7.917c0.842,2.645,2.75,5.306,5.699,6.871"/>
				</g>
				<g>
					<g>
						<path style="fill:#F7B094;" d="M451.198,131.949c1.152-0.693,2.074-1.793,2.121-3.27c0.12-3.713,0.311-9.177,0.381-11.688
							c0.029-1.032,0.058-2.065,0.047-3.099c-0.002-0.234-0.013-0.488-0.141-0.671c-0.107-0.153-0.274-0.224-0.436-0.274
							c-1.594-0.498-3.213,0.332-4.831,0.589c-1.978,0.314-4.012-0.237-6.001-0.002c-0.239,0.028-0.504,0.087-0.64,0.317
							c-0.079,0.134-0.099,0.304-0.116,0.467c-0.324,2.952-0.862,9.242-1.235,12.958c-0.084,0.837-0.466,1.954,0.016,2.626
							l0.817,1.379c1.37,1.91,4.778,2.824,6.794,1.993C447.976,133.276,449.96,132.695,451.198,131.949z"/>
						<g>
							<path style="fill:#E89C82;" d="M453.607,113.222c-0.107-0.153-0.274-0.224-0.436-0.274c-1.594-0.498-3.213,0.332-4.831,0.589
								c-1.978,0.314-4.012-0.237-6.001-0.002c-0.239,0.028-0.504,0.087-0.64,0.317c-0.079,0.134-0.098,0.304-0.116,0.467
								c-0.181,1.65-0.362,3.3-0.543,4.95c1.663,1.253,3.513,2.116,5.451,2.327c2.66,0.289,5.456-0.828,7.168-3.134
								c0.014-0.49,0.027-0.98,0.041-1.47c0.029-1.032,0.058-2.065,0.047-3.099C453.745,113.659,453.734,113.405,453.607,113.222z"
								/>
						</g>
					</g>
					<g>
						<path style="fill:#F7B094;" d="M457.371,111.015c2.162,0.093,4.267-0.743,4.835-2.271c0.568-1.527-0.831-3.647-2.989-4.126"/>
					</g>
					<g>
						<path style="fill:#F7B094;" d="M457.69,111.22c-3.347,7.515-9.13,7.464-15.301,8.234c-1.09,0.136-2.853-0.052-3.943-0.382
							c-2.677-0.811-3.54-3.624-3.765-5.913c-0.391-3.983-0.304-7.956,0.259-11.841c0.388-2.674,1.028-5.366,2.703-7.57
							c1.675-2.204,4.557-3.863,7.861-3.777c4.114,0.108,7.848,2.825,10.184,5.831c3.448,4.435,4.728,10.069,2.412,14.497"/>
					</g>
					<g>
						<path style="fill:#F7B094;" d="M434.965,101.192c-0.349,2.464-0.391,2.037-0.831,3.399c-0.047,0.147-0.525,1.292-1.442,1.699
							c-0.723,0.321-1.028,1.297-0.526,1.96c0.28,0.369,0.578,0.565,1.018,0.729c0.622,0.232,1.271,0.18,1.709-0.277"/>
					</g>
				</g>
				<g>
					<path style="fill:#38303B;" d="M443.286,98.309c0.087,0.066-0.012,0.171-0.138,0.18c-0.126,0.009-0.248-0.041-0.361-0.086
						c-1.374-0.549-3.091-0.665-4.509-0.303c-0.218,0.055-0.439,0.122-0.678,0.111c-0.239-0.011-0.499-0.135-0.501-0.294
						c-0.001-0.068,0.046-0.131,0.1-0.186c0.23-0.234,0.613-0.38,1.01-0.479c1.281-0.32,2.831-0.2,4.052,0.314
						c0.457,0.192,0.885,0.452,1.069,0.786"/>
				</g>
				<g style="opacity:0.21;">
					<path style="fill:#E66E60;" d="M449.104,109.144c-0.216,1.797-1.994,3.017-3.97,2.725c-1.976-0.292-3.402-1.986-3.186-3.783
						c0.216-1.797,1.994-3.017,3.97-2.725C447.893,105.653,449.32,107.347,449.104,109.144z"/>
				</g>
				<path style="fill:#38303B;" d="M440.863,101.888c-0.123,0.953-0.687,1.657-1.261,1.572c-0.574-0.085-0.94-0.926-0.818-1.879
					c0.122-0.953,0.687-1.657,1.261-1.572C440.619,100.094,440.986,100.935,440.863,101.888z"/>
				<g>
					<path style="fill:#38303B;" d="M444.158,88.888c-6.41-4.701-5.929-9.8-4.408-8.457c3.885,3.431,8.195,3.871,13.314,4.692
						c1.219,0.196,2.963,3.218,4.176,3.448c3.273,0.619,5.61,3.764,5.976,6.914c0.366,3.15-0.872,6.243-2.531,8.937l-1.2-0.009
						c-0.014-0.028-0.031-0.055-0.045-0.084c-0.461,0.581-0.918,1.167-1.335,1.706c-0.449,0.58-1.428,0.34-1.559-0.382
						c-0.775-4.274-2.972-6.967-6.539-9.096c-0.982-0.441-2.654-1.339-3.703-1.587c-2.364-0.559-2.408-0.558-4.794-1.009
						c-2.386-0.451-4.4-1.751-4.46-3.362C436.682,80.832,446.197,90.384,444.158,88.888z"/>
				</g>
				<g>
					<path style="fill:#38303B;" d="M438.057,100.599c0.147-0.31,0.439-0.542,0.746-0.677c0.309-0.146,0.646-0.21,0.986-0.22
						c0.34,0.003,0.681,0.059,0.993,0.202c0.309,0.132,0.609,0.368,0.742,0.687c-0.318-0.108-0.606-0.12-0.888-0.154
						c-0.284-0.019-0.562-0.036-0.84-0.027c-0.278-0.005-0.557,0.02-0.843,0.042C438.67,100.487,438.38,100.504,438.057,100.599z"/>
				</g>
				<g>
					<defs>
						<path id="SVGID_1_" d="M434.807,114.125c-0.099-0.652-0.229-1.697-0.252-2.572c-0.004-0.134,0.002-0.272,0.074-0.385
							c0.082-0.129,0.239-0.185,0.386-0.229c0.827-0.247,1.687-0.385,2.55-0.411c0.526-0.016,1.072,0.015,1.537,0.261
							c0.465,0.245,0.826,0.755,0.75,1.275c-0.029,0.2-0.118,0.386-0.224,0.559c-0.167,0.271-0.378,0.516-0.621,0.721
							c-0.456,0.384-1.015,0.622-1.568,0.849c-0.903,0.37-1.821,0.724-2.784,0.882"/>
					</defs>
					<clipPath id="SVGID_00000072267385387862508360000005204733662664068781_">
						<use xlink:href="#SVGID_1_"  style="overflow:visible;"/>
					</clipPath>
					<g style="clip-path:url(#SVGID_00000072267385387862508360000005204733662664068781_);">
						<g>
							<path style="fill:#E66E60;" d="M430.267,111.465c1.628,1.758,3.381,2.316,5.683,1.896c0.718-0.131,2.458-1.205,2.803-1.844
								c-2.83,0.986-5.763,1.016-8.525-0.158"/>
						</g>
						<g>
							<path style="fill:#FFFFFF;" d="M430.267,111.465c1.827,0.876,4.044,1.177,7.013,0.704c0.672-0.107,1.345-0.326,1.687-0.705
								c-2.823,0.569-6.188,0.531-8.956-0.188L430.267,111.465z"/>
						</g>
					</g>
				</g>
				<g>
					<path style="fill:#D1D6E5;" d="M411.579,296.528c-0.402,0.015-0.761-0.249-0.862-0.639
						c-5.185-19.902-11.058-38.987-15.352-59.063c-1.616-7.557-1.094-14.025,0.413-15.195c0.989-0.768,0.498,10.347,1.743,10.479
						c5.299,0.562,9.828,0.749,15.126,1.311c2.534,20.516,7.273,41.194,9.817,61.78c0.062,0.499-0.318,0.94-0.82,0.958
						L411.579,296.528z"/>
				</g>
				<g>
					<path style="fill:#D1D6E5;" d="M397.275,237.501c6.322-0.267,12.643-0.535,18.965-0.802c6.425-0.272,10.006,0.09,16.414,0.63
						c10.009,0.843,16.184,1.194,24.548-1.159c6.743-1.896,10.155-8.924,8.85-16.752c-1.475-8.85-2.318-13.064-2.845-18.754
						c-13.709,7.269-32.099,10.157-52.773,14.827c-3.783,0.854-9.305,1.647-12.443,3.927c-3.138,2.28-3.371,3.266-3.477,8.113"/>
				</g>
				<g>
					<path style="fill:#D1D6E5;" d="M434.536,229.923c-4.017-2.168-4.723-7.049-4.99-11.291
						c-0.829-13.197-1.361-26.416-1.595-39.647c-0.245-13.86-0.106-28.049,5.071-41.245c1.472-3.753,3.422-7.492,6.659-10.242
						c3.238-2.75,7.998-4.337,12.158-3.157c6.064,1.72,8.438,8.149,9.36,13.815c1.264,7.767,1.37,15.672,1.474,23.549
						c0.291,22.082,0.582,44.165,0.872,66.247"/>
				</g>
				<g>
					<path style="fill:#2F64A6;" d="M459.983,137.839c-0.982-6.184-3.503-13.285-10.015-14.415
						c-2.584-0.448-5.221,0.247-7.432,1.658c-3.269,2.086-4.823,4.537-6.325,7.994c-0.505,1.164-1.249,4.673-1.3,5.941
						c-0.204,5.075,0.473,8.654,1.299,13.686c2.884,17.573,6.269,26.194,10.174,45.105c0.802,3.882,2.112,5.78,3.822,6.647
						c3.093,1.57,5.816,0.102,7.341-2.317c1.525-2.419,1.664-5.429,1.759-8.287c0.422-12.794,0.844-25.588,1.265-38.382
						c0.113-3.432,0.225-6.867,0.292-10.302C460.646,142.716,460.369,140.271,459.983,137.839z"/>
				</g>
				<g>
					<path style="fill:#B3B8C4;" d="M429.702,148.927c0.099-0.11,0.235,0.015,0.272,0.117c0.056,0.105,0.092,0.218,0.128,0.331
						c0.068,0.226,0.12,0.457,0.168,0.687c0.095,0.462,0.175,0.925,0.253,1.389l0.458,2.781c0.349,1.849,0.573,3.719,0.903,5.568
						c0.582,3.71,1.254,7.405,2.008,11.083c1.478,7.361,3.217,14.669,4.914,21.997c0.822,3.669,1.62,7.347,2.377,11.032
						c0.384,1.847,0.719,3.683,1.252,5.458c0.533,1.766,1.198,3.51,2.271,4.98c1.059,1.468,2.571,2.599,4.344,3.038
						c0.882,0.232,1.804,0.339,2.734,0.409c0.939,0.071,1.854,0.122,2.781,0.054c1.855-0.123,3.697-0.547,5.569-0.783
						c1.863-0.252,3.811-0.257,5.602,0.35c-1.82-0.518-3.729-0.42-5.568-0.116c-1.848,0.299-3.67,0.787-5.566,0.981
						c-0.947,0.102-1.915,0.089-2.851,0.036c-0.944-0.049-1.901-0.133-2.845-0.356c-1.91-0.418-3.618-1.625-4.788-3.173
						c-2.361-3.155-3.036-7.065-3.817-10.693c-0.786-3.673-1.612-7.337-2.464-10.997c-1.641-7.333-3.369-14.661-4.709-22.071
						c-0.665-3.706-1.248-7.426-1.736-11.157c-0.255-1.864-0.403-3.739-0.676-5.598l-0.345-2.801
						c-0.053-0.467-0.107-0.933-0.177-1.397c-0.036-0.232-0.075-0.463-0.13-0.69c-0.029-0.113-0.059-0.227-0.108-0.332
						C429.923,148.951,429.807,148.826,429.702,148.927z"/>
				</g>
				<g>
					<path style="fill:#B3B8C4;" d="M429.306,211.29c1.198-0.534,2.43-0.764,3.671-0.922c1.244-0.127,2.497-0.181,3.784,0.071
						c-1.198,0.536-2.43,0.766-3.671,0.922C431.846,211.486,430.593,211.54,429.306,211.29z"/>
				</g>
				<g>
					<path style="fill:#B3B8C4;" d="M403.184,228.336c0.932,2.226,2.305,4.109,4.065,5.583c1.752,1.483,3.84,2.518,6.19,3.063
						c-2.429,0.261-4.944-0.707-6.835-2.299C404.718,233.087,403.34,230.774,403.184,228.336z"/>
				</g>
				<g>
					<path style="fill:#B3B8C4;" d="M406.348,236.96c1.086,0.191,2.015,0.645,2.907,1.16c0.876,0.542,1.714,1.147,2.393,2.017
						c-1.087-0.189-2.016-0.643-2.907-1.16C407.867,238.433,407.029,237.827,406.348,236.96z"/>
				</g>
				<g>
					<path style="fill:#B3B8C4;" d="M465.923,224.762c-0.846-0.269-1.666-0.596-2.5-0.893c-0.407-0.147-0.84-0.352-1.2-0.439
						c-0.382-0.079-0.566-0.003-0.778,0.29c-0.388,0.659-0.837,1.514-1.255,2.26l-1.312,2.295c-0.896,1.515-1.81,3.028-2.762,4.503
						c-0.457,0.735-0.893,1.478-1.175,2.278c-0.305,0.79-0.391,1.671-0.093,2.515c-0.513-0.747-0.551-1.752-0.38-2.643
						c0.188-0.902,0.558-1.743,0.971-2.537c0.823-1.57,1.694-3.094,2.577-4.621c0.924-1.529,1.751-2.993,2.823-4.537
						c0.17-0.197,0.411-0.405,0.723-0.486c0.31-0.083,0.611-0.03,0.848,0.058c0.478,0.189,0.82,0.415,1.219,0.622
						C464.393,223.873,465.172,224.288,465.923,224.762z"/>
				</g>
				<g>
					<path style="fill:#B3B8C4;" d="M410.653,294.538c1.835-0.485,3.686-0.665,5.54-0.773c1.855-0.076,3.715-0.079,5.589,0.226
						c-1.835,0.487-3.686,0.667-5.54,0.772C414.386,294.838,412.527,294.841,410.653,294.538z"/>
				</g>
				<g>
					<path style="fill:#F7B094;" d="M432.233,187.005c-0.565-0.043-1.08-0.359-1.36-0.852c-5.125-9.029-3.414-15.006,0.46-25.021
						c2.509-6.485,6.023-18.865,9.887-24.646c2.318-3.467,6.029-7.231,10.136-5.233c1.683,0.818,2.832,2.429,3.289,4.243
						c1.228,4.871-0.161,9.716-1.766,14.312c-4.546,13.011-11.01,25.349-19.118,36.494
						C433.41,186.785,432.829,187.05,432.233,187.005L432.233,187.005z"/>
				</g>
				<g>
					<path style="fill:#F7B094;" d="M431.326,186.727c-13.45-9.763-23.552-23.947-32.67-37.843c-1.44-2.195-2.315-4.409-0.437-6.243
						c2.012-1.966,2.416-1.058,4.564,0.76c3.004,2.544,7.841,7.963,12.586,12.199c4.274,3.815,10.109,9.075,13.887,12.273
						c2.393,2.026,1.544,1.708,3.086,4.438c1.542,2.73,1.643,4.841,0.009,7.517"/>
				</g>
				<g>
					<path style="fill:#E3683E;" d="M452.568,128.803c2.934,1.941,3.541,3.871,4.353,6.561c1.172,3.885,0.235,7.851-1.201,12.11
						c-1.804,5.35-3.691,9.082-5.808,12.19c-4.922-2.516-11.41-5.82-16.332-8.336c-0.273-0.14-0.564-0.299-0.672-0.597
						c-0.096-0.266-0.027-0.585,0.044-0.883c0.96-4.076,2.354-6.792,3.737-10.727c0.999-2.843,2.058-5.376,3.758-7.713
						c1.7-2.337,4.585-3.944,7.465-3.799C450.123,127.72,452.568,128.803,452.568,128.803z"/>
				</g>
				<path style="fill:#255387;" d="M452.568,128.803c2.934,1.941,3.541,3.871,4.353,6.561c1.172,3.885,0.235,7.851-1.201,12.11
					c-1.804,5.35-3.691,9.082-5.808,12.19c-4.922-2.516-11.41-5.82-16.332-8.336c-0.273-0.14-0.564-0.299-0.672-0.597
					c-0.096-0.266-0.027-0.585,0.044-0.883c0.96-4.076,2.354-6.792,3.737-10.727c0.999-2.843,2.058-5.376,3.758-7.713
					c1.7-2.337,4.585-3.944,7.465-3.799C450.123,127.72,452.568,128.803,452.568,128.803z"/>
				<g>
					<path style="fill:#255387;" d="M443.194,183.791c1.728,5.148,3.677,10.215,6.376,14.914c0.875,1.524,1.954,3.107,3.621,3.663
						c1.911,0.637,3.888-0.365,5.191-1.97c-0.219,0.604-0.487,1.189-0.835,1.74c-1.525,2.418-4.248,3.886-7.341,2.317
						c-1.709-0.867-3.02-2.766-3.822-6.647C445.279,192.457,444.216,187.93,443.194,183.791z"/>
				</g>
				<g>
					<polygon style="fill:#B3B8C4;" points="467.709,100.58 440.002,83.789 451.341,76.33 468.52,86.74 					"/>
					<polygon style="opacity:0.46;fill:#727881;" points="447.485,78.867 457.573,86.051 459.152,81.063 451.341,76.33 					"/>
					
						<line style="opacity:0.46;fill:none;stroke:#727881;stroke-width:0.5;stroke-linecap:round;stroke-miterlimit:10;" x1="467.757" y1="87.515" x2="459.979" y2="82.738"/>
					
						<line style="opacity:0.46;fill:none;stroke:#727881;stroke-width:0.5;stroke-linecap:round;stroke-miterlimit:10;" x1="467.28" y1="89.137" x2="459.502" y2="84.36"/>
					<path style="fill:#D1D6E5;" d="M445.601,80.176c0.418-0.065,5.869-2.6,5.869-2.6l17.034,9.431l0.016-0.266l-17.178-10.41
						l-5.709,3.756L445.601,80.176z"/>
					<polygon style="fill:#D1D6E5;" points="468.415,105.041 434.461,86.057 440.954,75.343 472.367,98.519 					"/>
					
						<line style="opacity:0.49;fill:none;stroke:#727881;stroke-width:0.5;stroke-linecap:round;stroke-miterlimit:10;" x1="441.166" y1="77.701" x2="451.869" y2="85.877"/>
					
						<line style="opacity:0.49;fill:none;stroke:#727881;stroke-width:0.5;stroke-linecap:round;stroke-miterlimit:10;" x1="440.043" y1="79.555" x2="451.067" y2="87.202"/>
					
						<line style="opacity:0.49;fill:none;stroke:#727881;stroke-width:0.5;stroke-linecap:round;stroke-miterlimit:10;" x1="437.637" y1="83.459" x2="449.374" y2="90.377"/>
					
						<line style="opacity:0.49;fill:none;stroke:#727881;stroke-width:0.5;stroke-linecap:round;stroke-miterlimit:10;" x1="438.958" y1="81.554" x2="450.011" y2="88.735"/>
					<polygon style="opacity:0.55;fill:#727881;" points="463.961,99.264 469.872,102.637 472.367,98.519 466.591,94.258 					"/>
					
						<line style="opacity:0.46;fill:none;stroke:#727881;stroke-width:0.5;stroke-linecap:round;stroke-miterlimit:10;" x1="466.985" y1="91.081" x2="459.207" y2="86.304"/>
					
						<line style="opacity:0.49;fill:none;stroke:#727881;stroke-width:0.5;stroke-linecap:round;stroke-miterlimit:10;" x1="436.62" y1="85.137" x2="448.357" y2="92.055"/>
					
						<line style="opacity:0.52;fill:none;stroke:#727881;stroke-width:0.5;stroke-linecap:round;stroke-miterlimit:10;" x1="462.691" y1="93.131" x2="458.961" y2="99.524"/>
					
						<line style="opacity:0.52;fill:none;stroke:#727881;stroke-width:0.5;stroke-linecap:round;stroke-miterlimit:10;" x1="464.19" y1="94.175" x2="460.725" y2="100.5"/>
					
						<line style="opacity:0.52;fill:none;stroke:#727881;stroke-width:0.5;stroke-linecap:round;stroke-miterlimit:10;" x1="461.006" y1="92.099" x2="457.24" y2="98.694"/>
					<path style="opacity:0.55;fill:#727881;" d="M453.256,86.089c-0.096,0.367-3.865,7.212-3.865,7.212l6.19,3.539l3.674-6.479
						L453.256,86.089z"/>
					<path style="fill:#B3B8C4;" d="M472.367,98.519l-0.081-0.06c-3.032,1.352-6.895,3.071-7.092,3.144
						c-0.282,0.105-23.936-12.289-30.613-15.746l-0.121,0.199l33.954,18.984L472.367,98.519z"/>
				</g>
				<g>
					<path style="fill:#38303B;" d="M457.588,106.305c-2.293-0.255-4.271-1.711-5.93-3.306c-1.66-1.596-3.151-3.4-5.083-4.658
						c-1.97-1.283-4.299-1.931-6.29-3.181c-1.991-1.25-3.703-3.458-3.256-5.749c3.955,1.518,7.839,3.22,11.635,5.098
						c3.734,1.848,7.504,3.968,9.978,7.304"/>
				</g>
				<g>
					<path style="fill:#F7B094;" d="M399.642,150.197c-2.519-3.193-3.415-3.641-5.681-4.997c-1.931-1.155-1.799-1.978-2.61-2.651
						c-0.811-0.673-1.823-1.413-1.598-2.442c0.062-0.282,0.44-1.094,0.433-1.383c-0.019-0.835-1.206-0.873-1.064-2.129
						c0.125-1.111,0.684-1.514,0.79-1.815c0.243-0.692-0.95-1.011-0.83-2.13c0.124-1.156,1.659-1.512,2.807-1.328
						c1.148,0.184,1.722,0.583,2.66-0.104c-0.346-0.122-0.948,0.028-1.006-0.155c-0.091-0.286-0.238-0.915-0.26-1.653
						c1.072-0.911,2.873-0.602,4.126,0.038c1.253,0.64,2.098,1.962,2.277,3.358c0.161,1.257,0.708,3.614,1.224,5.022
						c0.286,0.781,1.707,4.271,3.693,7.269"/>
				</g>
			</g>
		</g>
		<g>
			<g>
				<path style="fill:#B3B8C4;" d="M239.363,225.321c1.809-1.703,3.697-3.323,5.655-4.852c0.13-0.101,0.277-0.208,0.441-0.195
					c0.128,0.01,0.237,0.092,0.337,0.172c0.647,0.521,3.171,4.227,3.545,4.853c0.053,0.088,0.107,0.186,0.092,0.288
					c-0.018,0.125-0.134,0.21-0.24,0.28c-2.149,1.419-4.298,2.838-6.447,4.257"/>
			</g>
			<g>
				<path style="fill:#2F64A6;" d="M235.825,227.659c1.501-1.027,2.529-1.857,3.595-2.687c1.204,1.437,4.133,5.065,3.99,5.176
					c-1.225,0.948-2.41,1.778-3.793,2.568"/>
			</g>
			<g>
				<path style="fill:#1E4B77;" d="M222.553,244.077c-0.776,0.027-1.289-0.918-1.126-1.677c0.163-0.759,0.761-1.338,1.335-1.861
					c4.464-4.066,8.478-7.473,13.419-10.944c0.399,0.524,1.22,1.096,1.62,1.62c0.105,0.137,0.581-0.036,0.59,0.137
					c0.012,0.25-0.186,0.454-0.369,0.624c-3.12,2.892-6.239,5.783-9.359,8.675"/>
			</g>
			<g>
				<g>
					<path style="fill:#F7B094;" d="M198.772,442.654c-0.8,2.174-1.6,4.349-2.4,6.523c-0.156,0.423-0.313,0.853-0.343,1.302
						c-0.12,1.758,1.638,3.07,2.082,4.775c0.047,0.182,0.079,0.375,0.027,0.555c-0.167,0.576-0.964,0.603-1.556,0.509
						c-1.733-0.274-3.465-0.548-5.198-0.822c-0.654-0.104-1.416-0.287-1.671-0.899c-0.115-0.276-0.098-0.586-0.079-0.884
						c0.278-4.351,0.557-8.702,0.835-13.052"/>
				</g>
				<g>
					<path style="fill:#302933;" d="M214.348,461.966c-4.362,0.166-7.937,0.296-12.299,0.462c-1.334,0.051-2.738,0.087-3.923-0.53
						c-0.653-0.34-1.305-0.887-2.026-0.741c-0.559,0.113-0.95,0.614-1.463,0.863c-0.45,0.219-0.967,0.234-1.467,0.244
						c-1.525,0.032-3.05,0.065-4.575,0.097c-0.503,0.011-1.058,0.004-1.438-0.327c-0.446-0.388-0.474-1.062-0.447-1.653
						c0.107-2.338,0.531-4.662,1.257-6.887c0.165-0.506,0.409-1.072,0.918-1.23c0.468-0.146,0.953,0.118,1.38,0.358
						c1.728,0.97,3.997,1.657,5.593,0.481c0.415-0.306,0.757-0.724,1.233-0.92c0.526-0.217,1.123-0.126,1.683-0.023
						c4.832,0.889,9.546,2.421,13.977,4.542c1.006,0.481,2.044,1.035,2.642,1.977s0.553,2.381-0.381,2.991"/>
				</g>
				<g>
					<g>
						<path style="fill:#F09532;" d="M205.313,453.199c-0.98,0.711-1.49,1.809-1.634,2.99c-0.032,0.261,0.253,0.511,0.5,0.5
							c0.298-0.013,0.466-0.221,0.5-0.5c0.012-0.098-0.011,0.061,0-0.002c0.004-0.026,0.008-0.052,0.012-0.077
							c0.01-0.058,0.021-0.116,0.033-0.174c0.024-0.116,0.053-0.231,0.087-0.344c0.034-0.114,0.074-0.225,0.116-0.336
							c0.02-0.053,0.011-0.027-0.005,0.01c0.013-0.03,0.026-0.06,0.04-0.09c0.025-0.054,0.051-0.107,0.078-0.16
							c0.051-0.099,0.107-0.196,0.167-0.29c0.032-0.05,0.065-0.098,0.099-0.146c0.001-0.001,0.075-0.1,0.032-0.044
							c-0.039,0.05,0.015-0.017,0.022-0.026c0.075-0.091,0.155-0.178,0.24-0.259c0.043-0.041,0.086-0.081,0.132-0.119
							c0.02-0.017,0.041-0.033,0.061-0.05c-0.089,0.077,0.01-0.007,0.025-0.018c0.211-0.153,0.336-0.442,0.179-0.684
							C205.862,453.169,205.539,453.034,205.313,453.199L205.313,453.199z"/>
					</g>
				</g>
				<g>
					<g>
						<path style="fill:#F09532;" d="M201.277,452.012c-0.941,0.951-1.631,2.133-1.997,3.42c-0.072,0.251,0.087,0.555,0.349,0.615
							c0.266,0.061,0.538-0.08,0.615-0.349c0.042-0.146,0.087-0.291,0.137-0.434c0.024-0.067,0.048-0.134,0.074-0.201
							c0.016-0.042,0.032-0.083,0.049-0.125c0.005-0.014,0.031-0.076,0.011-0.029c0.118-0.279,0.257-0.55,0.41-0.812
							c0.148-0.254,0.312-0.5,0.49-0.734c0.06-0.079-0.072,0.087,0.037-0.047c0.022-0.028,0.045-0.056,0.067-0.083
							c0.045-0.055,0.091-0.11,0.138-0.163c0.105-0.121,0.215-0.238,0.328-0.352c0.19-0.192,0.192-0.515,0-0.707
							C201.794,451.821,201.468,451.819,201.277,452.012L201.277,452.012z"/>
					</g>
				</g>
			</g>
			<g>
				<g>
					<path style="fill:#F7B094;" d="M175.691,443.2c-0.8,2.174-1.6,4.349-2.4,6.523c-0.156,0.423-0.313,0.853-0.344,1.302
						c-0.12,1.758,1.638,3.07,2.082,4.775c0.047,0.182,0.079,0.375,0.027,0.555c-0.167,0.576-0.964,0.602-1.556,0.509
						c-1.733-0.274-3.465-0.548-5.198-0.822c-0.654-0.104-1.416-0.287-1.671-0.899c-0.115-0.276-0.098-0.586-0.079-0.884
						c0.278-4.351,0.557-8.702,0.835-13.052"/>
				</g>
				<g>
					<path style="fill:#38303B;" d="M191.267,462.513c-4.362,0.166-7.937,0.296-12.299,0.462c-1.334,0.051-2.738,0.087-3.923-0.53
						c-0.653-0.34-1.304-0.887-2.026-0.741c-0.559,0.113-0.95,0.614-1.463,0.863c-0.449,0.219-0.967,0.234-1.467,0.244
						c-1.525,0.033-3.05,0.065-4.575,0.097c-0.503,0.011-1.058,0.004-1.438-0.327c-0.446-0.388-0.474-1.062-0.447-1.653
						c0.107-2.338,0.531-4.662,1.257-6.887c0.165-0.507,0.41-1.072,0.918-1.23c0.468-0.146,0.953,0.118,1.38,0.358
						c1.728,0.971,3.997,1.657,5.593,0.481c0.415-0.306,0.757-0.724,1.233-0.92c0.526-0.217,1.123-0.126,1.683-0.023
						c4.832,0.889,9.546,2.421,13.977,4.542c1.006,0.481,2.044,1.035,2.642,1.977c0.597,0.941,0.553,2.381-0.381,2.991"/>
				</g>
				<g>
					<g>
						<path style="fill:#F09532;" d="M182.231,453.745c-0.979,0.711-1.49,1.809-1.634,2.99c-0.032,0.261,0.253,0.511,0.5,0.5
							c0.298-0.013,0.466-0.221,0.5-0.5c0.012-0.098-0.011,0.061,0-0.002c0.004-0.026,0.008-0.052,0.012-0.077
							c0.01-0.058,0.021-0.116,0.033-0.174c0.024-0.116,0.053-0.231,0.087-0.344c0.034-0.114,0.074-0.225,0.116-0.336
							c0.02-0.053,0.011-0.027-0.005,0.01c0.013-0.03,0.026-0.06,0.04-0.09c0.025-0.054,0.051-0.107,0.078-0.16
							c0.051-0.099,0.107-0.196,0.167-0.29c0.032-0.05,0.065-0.099,0.099-0.146c0.001-0.001,0.075-0.1,0.032-0.044
							c-0.039,0.05,0.015-0.018,0.022-0.026c0.075-0.091,0.155-0.178,0.24-0.259c0.043-0.041,0.086-0.081,0.132-0.119
							c0.02-0.017,0.041-0.033,0.061-0.05c-0.089,0.077,0.01-0.007,0.025-0.018c0.211-0.153,0.336-0.442,0.179-0.684
							C182.78,453.715,182.458,453.581,182.231,453.745L182.231,453.745z"/>
					</g>
				</g>
				<g>
					<g>
						<path style="fill:#F09532;" d="M178.195,452.558c-0.941,0.951-1.631,2.133-1.997,3.42c-0.072,0.251,0.087,0.556,0.349,0.615
							c0.266,0.061,0.538-0.08,0.615-0.349c0.042-0.146,0.087-0.291,0.137-0.434c0.024-0.067,0.048-0.134,0.074-0.201
							c0.016-0.042,0.032-0.083,0.049-0.124c0.006-0.014,0.031-0.076,0.011-0.029c0.118-0.279,0.257-0.55,0.41-0.811
							c0.148-0.254,0.312-0.5,0.49-0.734c0.06-0.078-0.072,0.087,0.037-0.047c0.022-0.028,0.045-0.056,0.067-0.083
							c0.045-0.055,0.091-0.109,0.138-0.163c0.105-0.121,0.215-0.238,0.328-0.352c0.19-0.192,0.192-0.515,0-0.707
							C178.712,452.367,178.386,452.365,178.195,452.558L178.195,452.558z"/>
					</g>
				</g>
			</g>
			<g>
				<path style="fill:#255387;" d="M197.9,448.831c0.566,0,1.036-0.433,1.076-0.997c1.456-20.531,2.35-45.854,2.905-66.273
					c0.21-7.725,0.246-18.109-1.449-18.984c-1.113-0.575-0.331,14.384-1.531,14.741c-5.107,1.52-10.214,3.039-15.321,4.559
					c1.25,20.608,2.835,45.211,4.096,65.947c0.035,0.569,0.506,1.008,1.076,1.008H197.9z"/>
			</g>
			<g>
				<path style="fill:#255387;" d="M184.35,386.494c-1.123-6.227-2.245-12.453-3.368-18.68c-1.141-6.329-2.293-12.695-4.519-18.729
					c-3.008-8.152-7.587-14.62-7.786-23.307c-0.068-2.979-0.156-7.505-0.171-8.73c-0.074-5.991,0.101-12.63,1.32-13.189
					c8.305-3.813,19.747,6.616,27.471,1.732c3.788,20.854,5.681,42.051,5.65,63.246c-0.006,3.878-0.1,7.874-1.638,11.434
					c-1.538,3.561-4.875,6.618-8.753,6.659"/>
			</g>
			<g>
				<g>
					<path style="fill:#38303B;" d="M184.301,222.331c-4.853,0.294-9.364-2.038-11.841-5.158c-2.477-3.12-3.223-6.91-3.413-10.623
						c-0.164-3.212,0.071-6.52,1.646-9.557c1.576-3.037,4.675-5.785,8.717-6.796c2.734-0.684,5.67-0.535,8.423-0.083
						c1.796,0.295,3.609,0.741,4.943,1.684c1.235,0.873,1.951,2.097,2.467,3.335c1.814,4.352,1.481,9.11,0.851,13.731
						c-0.353,2.589-0.808,5.217-2.176,7.633c-1.369,2.415-3.784,4.626-6.993,5.55"/>
				</g>
				<g>
					<g>
						<path style="fill:#F7B094;" d="M177.4,236.226c-0.984-0.916-1.66-2.181-1.402-3.637c0.648-3.659,1.587-9.044,2.035-11.515
							c0.184-1.016,0.369-2.032,0.592-3.042c0.05-0.228,0.113-0.475,0.276-0.627c0.136-0.128,0.315-0.163,0.483-0.179
							c1.662-0.159,3.076,0.987,4.606,1.572c1.871,0.715,3.975,0.595,5.872,1.234c0.228,0.077,0.475,0.189,0.561,0.443
							c0.049,0.147,0.034,0.317,0.018,0.481c-0.291,2.955-1.061,9.221-1.461,12.935c-0.09,0.836,0.053,2.008-0.557,2.567
							l-1.084,1.181c-1.734,1.587-5.257,1.779-7.059,0.551C180.28,238.188,178.459,237.21,177.4,236.226z"/>
						<g>
							<path style="fill:#E89C82;" d="M178.902,217.404c0.136-0.128,0.315-0.163,0.483-0.179c1.662-0.159,3.076,0.987,4.606,1.572
								c1.871,0.715,3.975,0.595,5.872,1.234c0.228,0.077,0.475,0.189,0.561,0.442c0.049,0.148,0.034,0.318,0.018,0.481
								c-0.163,1.652-0.326,3.304-0.489,4.955c-1.885,0.884-3.873,1.347-5.813,1.154c-2.662-0.265-5.168-1.934-6.369-4.543
								c0.088-0.482,0.175-0.965,0.263-1.447c0.184-1.016,0.369-2.032,0.593-3.042C178.676,217.803,178.739,217.557,178.902,217.404
								z"/>
						</g>
					</g>
					<g>
						<path style="fill:#F7B094;" d="M175.673,214.468c-2.135-0.355-4.023-1.607-4.264-3.218c-0.241-1.611,1.564-3.397,3.775-3.422"
							/>
					</g>
					<g>
						<path style="fill:#F7B094;" d="M175.318,214.604c1.727,8.043,7.396,9.185,13.276,11.21c1.039,0.358,2.803,0.537,3.938,0.438
							c2.786-0.242,4.211-2.817,4.902-5.01c1.203-3.817,1.937-7.723,2.186-11.641c0.172-2.696,0.099-5.462-1.086-7.965
							c-1.185-2.502-3.663-4.719-6.914-5.315c-4.048-0.742-8.261,1.148-11.167,3.607c-4.287,3.63-6.701,8.879-5.347,13.689"/>
					</g>
					<g>
						<path style="fill:#F7B094;" d="M199.622,209.473c-0.166,2.483-0.037,2.074,0.113,3.497c0.016,0.154,0.248,1.372,1.061,1.959
							c0.642,0.463,0.739,1.481,0.111,2.026c-0.35,0.303-0.682,0.434-1.147,0.504c-0.657,0.099-1.281-0.086-1.615-0.623"/>
					</g>
				</g>
				<g>
					<path style="fill:#38303B;" d="M192.074,204.937c-0.099,0.047-0.023,0.17,0.098,0.205c0.121,0.035,0.251,0.011,0.371-0.01
						c1.458-0.254,3.162-0.014,4.475,0.633c0.202,0.099,0.404,0.21,0.641,0.249c0.236,0.038,0.516-0.029,0.55-0.184
						c0.015-0.066-0.018-0.137-0.059-0.202c-0.177-0.276-0.522-0.498-0.89-0.677c-1.188-0.577-2.73-0.779-4.03-0.527
						c-0.487,0.094-0.959,0.26-1.208,0.549"/>
				</g>
				<g style="opacity:0.21;">
					<path style="fill:#E66E60;" d="M184.148,214.341c-0.158,1.803,1.33,3.363,3.323,3.484c1.994,0.121,3.738-1.242,3.897-3.045
						c0.159-1.803-1.329-3.363-3.323-3.484C186.052,211.175,184.307,212.538,184.148,214.341z"/>
				</g>
				<path style="fill:#38303B;" d="M193.707,208.939c-0.076,0.958,0.331,1.763,0.91,1.798c0.579,0.035,1.111-0.713,1.187-1.671
					c0.077-0.958-0.331-1.762-0.91-1.798C194.315,207.233,193.783,207.981,193.707,208.939z"/>
				<g>
					<path style="fill:#38303B;" d="M193.162,195.539c7.241-3.28,7.821-8.368,6.056-7.367c-4.509,2.557-8.816,2.1-13.995,1.848
						c-1.233-0.06-3.562,2.539-4.797,2.513c-3.33-0.069-6.265,2.527-7.272,5.534c-1.007,3.007-0.433,6.288,0.635,9.267l1.176,0.239
						c0.02-0.025,0.042-0.048,0.062-0.072c0.331,0.663,0.658,1.331,0.955,1.944c0.32,0.66,1.328,0.627,1.604-0.053
						c1.639-4.023,3.808-7.456,7.737-8.804c1.052-0.23,2.123-0.369,3.201-0.396c2.428-0.06,1.808-0.232,4.236-0.182
						c2.428,0.05,4.999-0.335,6.886-1.789C201.718,196.626,190.857,196.583,193.162,195.539z"/>
				</g>
				<g>
					<path style="fill:#38303B;" d="M196.718,208.255c-0.296-0.159-0.577-0.235-0.847-0.329c-0.275-0.08-0.543-0.162-0.816-0.215
						c-0.27-0.065-0.545-0.106-0.827-0.146c-0.283-0.025-0.567-0.073-0.901-0.033c0.196-0.285,0.538-0.454,0.868-0.519
						c0.335-0.076,0.68-0.06,1.014,0.007c0.331,0.08,0.648,0.213,0.92,0.419C196.4,207.635,196.638,207.921,196.718,208.255z"/>
				</g>
				<g>
					<path style="fill:#38303B;" d="M195.437,191.75c0.861,0.211,0.702,0.245,1.569,0.291c0.647,0.034,1.281-0.098,1.909-0.228
						c2.047-0.427,4.095-0.853,6.142-1.28c0.221-0.046,0.464-0.088,0.671,0.05c0.346,0.231,0.384,0.807,0.332,1.26
						c-0.205,1.79-1.057,3.398-2.296,4.332c1.621,0.38,3.297,0.141,4.725-0.673c0.401,1.491-0.047,3.104-0.899,4.158
						c-0.852,1.053-2.051,1.617-3.271,1.928c-2.653,0.677-5.559,0.25-8.138-1.195c0.645,0.555,0.522,1.825-0.058,2.368
						c-0.58,0.543-1.407,0.546-2.171,0.452c-1.683-0.208-3.359-0.783-4.921-1.69c0.397,1.024-0.191,2.213-1.025,2.573
						c-0.833,0.359-1.8,0.093-2.672-0.301c-1.371-0.62-2.663-1.555-3.78-2.737"/>
				</g>
				<g>
					<defs>
						<path id="SVGID_00000093171931900170247100000005714588535847187876_" d="M197.112,222.161
							c0.232-0.618,0.573-1.613,0.777-2.465c0.031-0.13,0.054-0.266,0.007-0.391c-0.054-0.143-0.196-0.23-0.33-0.303
							c-0.759-0.412-1.571-0.725-2.41-0.928c-0.511-0.124-1.053-0.206-1.558-0.062c-0.506,0.144-0.963,0.569-0.996,1.093
							c-0.013,0.202,0.036,0.403,0.104,0.593c0.107,0.3,0.263,0.583,0.459,0.834c0.367,0.47,0.865,0.818,1.359,1.153
							c0.807,0.548,1.633,1.084,2.542,1.436"/>
					</defs>
					<clipPath id="SVGID_00000049918136753168415730000000546699576432124550_">
						<use xlink:href="#SVGID_00000093171931900170247100000005714588535847187876_"  style="overflow:visible;"/>
					</clipPath>
					<g style="clip-path:url(#SVGID_00000049918136753168415730000000546699576432124550_);">
						<g>
							<path style="fill:#E66E60;" d="M202.102,220.493c-1.956,1.385-3.785,1.57-5.951,0.684c-0.675-0.276-2.157-1.685-2.364-2.382
								c2.566,1.548,5.43,2.182,8.374,1.601"/>
						</g>
						<g>
							<path style="fill:#FFFFFF;" d="M202.102,220.493c-1.968,0.481-4.2,0.318-7.007-0.756c-0.636-0.243-1.249-0.597-1.505-1.038
								c2.646,1.139,5.946,1.794,8.803,1.661L202.102,220.493z"/>
						</g>
					</g>
				</g>
			</g>
			<g>
				<path style="fill:#2F64A6;" d="M175.037,449.661c0.402,0.007,0.756-0.264,0.85-0.655c4.813-19.995,9.196-41.763,13.114-61.915
					c1.475-7.586,3.214-17.823,1.686-18.964c-1.003-0.75-2.687,14.134-3.93,14.29c-5.287,0.661-10.575,1.322-15.862,1.983
					c-2.151,20.559-4.607,43.508-6.767,64.138c-0.052,0.5,0.335,0.933,0.838,0.943L175.037,449.661z"/>
			</g>
			<g>
				<path style="fill:#2F64A6;" d="M170.898,389.081c-0.086-6.327-0.171-12.653-0.257-18.98c-0.087-6.43-0.178-12.9-1.384-19.216
					c-1.629-8.535-5.085-15.667-3.856-24.269c0.421-2.95,1.078-7.428,1.264-8.639c0.91-5.922,0.181-12.291,1.475-12.643
					c8.818-2.398,20.384,9.616,28.805,6.066c0.314,21.193-1.297,42.413-4.806,63.316c-0.642,3.825-1.391,7.751-3.492,11.011
					c-2.102,3.26-5.895,5.729-9.727,5.132"/>
			</g>
			<g>
				<path style="fill:#2F64A6;" d="M195.584,336.715c3.951-2.286,4.512-7.186,4.654-11.434c0.439-13.216,0.581-26.445,0.424-39.677
					c-0.164-13.861-0.723-28.04-6.287-41.077c-1.583-3.708-3.642-7.387-6.959-10.041c-3.317-2.654-8.123-4.099-12.246-2.796
					c-6.01,1.899-8.193,8.394-8.948,14.085c-1.035,7.801-0.907,15.705-0.778,23.582c0.362,22.081,0.723,44.163,1.085,66.244"/>
			</g>
			<g>
				<path style="fill:#E3683E;" d="M167.428,245.423c0.798-6.21,3.108-13.382,9.585-14.704c2.57-0.525,5.226,0.093,7.478,1.438
					c3.329,1.988,4.955,4.393,6.558,7.804c0.54,1.148,1.387,4.634,1.475,5.9c0.354,5.067-0.217,8.664-0.894,13.718
					c-2.364,17.65-5.492,26.368-8.837,45.386c-0.686,3.904-1.941,5.84-3.624,6.757c-3.045,1.66-5.81,0.273-7.406-2.099
					c-1.596-2.372-1.824-5.378-2.003-8.232c-0.8-12.776-1.599-25.552-2.398-38.328c-0.214-3.428-0.428-6.858-0.596-10.289
					C166.909,250.317,167.114,247.865,167.428,245.423z"/>
			</g>
			<g>
				<path style="fill:#255387;" d="M197.22,253.356c-0.098-0.095-0.212,0.021-0.243,0.118c-0.046,0.1-0.073,0.207-0.1,0.313
					c-0.05,0.214-0.085,0.431-0.116,0.648c-0.062,0.435-0.107,0.872-0.153,1.309l-0.274,2.624c-0.228,1.743-0.285,3.505-0.471,5.254
					c-0.298,3.508-0.746,7.001-1.25,10.486c-0.971,6.978-2.41,13.876-3.723,20.781l-2.01,10.348
					c-0.677,3.41-1.049,7.041-2.801,10.255c-0.868,1.578-2.139,3.035-3.817,3.825c-1.671,0.822-3.514,0.916-5.255,1.031
					c-3.563,0.221-7.04-0.515-10.559-0.316c3.508-0.437,7.056,0.172,10.521-0.203c1.737-0.155,3.508-0.306,5.001-1.095
					c1.51-0.758,2.636-2.108,3.417-3.611c1.557-3.066,1.966-6.587,2.593-10.048c0.62-3.464,1.251-6.927,1.942-10.376
					c1.415-6.892,2.789-13.781,4.015-20.697c0.599-3.461,1.126-6.933,1.611-10.415l0.697-5.229l0.319-2.617
					c0.053-0.436,0.106-0.873,0.175-1.308c0.035-0.217,0.074-0.434,0.128-0.647c0.029-0.106,0.058-0.213,0.105-0.313
					C197.004,253.375,197.123,253.259,197.22,253.356z"/>
			</g>
			<g>
				<path style="fill:#255387;" d="M172.739,388.476c-0.185-2.408-0.066-4.788,0.124-7.163c0.222-2.372,0.518-4.737,1.12-7.076
					c0.188,2.408,0.068,4.788-0.124,7.163C173.635,383.772,173.339,386.137,172.739,388.476z"/>
			</g>
			<g>
				<path style="fill:#255387;" d="M189.403,377.516c-0.021,2.443-1.27,4.829-3.066,6.527c-1.8,1.693-4.257,2.798-6.697,2.672
					c2.317-0.673,4.344-1.822,6.012-3.399C187.327,381.746,188.595,379.789,189.403,377.516z"/>
			</g>
			<g>
				<path style="fill:#255387;" d="M187.197,385.993c-0.632,0.904-1.435,1.555-2.278,2.146c-0.861,0.565-1.764,1.069-2.839,1.318
					c0.631-0.906,1.434-1.556,2.278-2.146C185.22,386.748,186.123,386.243,187.197,385.993z"/>
			</g>
			<g>
				<path style="fill:#255387;" d="M165.461,326.347c0.888,0.008,1.768,0.08,2.652,0.118c0.448,0.042,0.858,0.036,1.361,0.136
					c0.246,0.055,0.529,0.173,0.744,0.41c0.219,0.237,0.308,0.543,0.345,0.8c0.066,1.878-0.03,3.557-0.08,5.343
					c-0.083,1.762-0.175,3.516-0.332,5.281c-0.083,0.891-0.226,1.799-0.556,2.659c-0.339,0.842-0.914,1.666-1.75,2.017
					c0.708-0.548,1.111-1.336,1.282-2.165c0.196-0.825,0.23-1.686,0.244-2.552c-0.003-1.755,0.048-3.523,0.113-5.282l0.138-2.64
					c0.052-0.854,0.137-1.816,0.167-2.58c-0.02-0.361-0.134-0.525-0.497-0.665c-0.35-0.121-0.825-0.183-1.247-0.28
					C167.185,326.747,166.319,326.579,165.461,326.347z"/>
			</g>
			<g>
				<path style="fill:#255387;" d="M175.951,447.191c-1.883,0.245-3.741,0.185-5.593,0.053c-1.85-0.163-3.694-0.399-5.513-0.943
					c1.883-0.247,3.741-0.187,5.593-0.054C172.288,446.414,174.132,446.65,175.951,447.191z"/>
			</g>
			<g>
				<path style="fill:#F7B094;" d="M196.618,293.747c0.564-0.06,1.069-0.391,1.334-0.892c4.856-9.177,2.969-15.101-1.199-24.996
					c-2.699-6.408-6.577-18.679-10.611-24.343c-2.419-3.398-6.24-7.049-10.286-4.932c-1.658,0.868-2.759,2.511-3.162,4.339
					c-1.083,4.905,0.447,9.707,2.188,14.253c4.928,12.871,11.754,25.013,20.188,35.913
					C195.436,293.563,196.024,293.81,196.618,293.747L196.618,293.747z"/>
			</g>
			<g>
				<path style="fill:#F7B094;" d="M197.517,293.444c13.156-10.156,22.834-24.633,31.537-38.791
					c1.375-2.237,2.184-4.475,0.252-6.253c-2.069-1.905-2.447-0.986-4.539,0.895c-2.928,2.631-7.602,8.191-12.22,12.565
					c-4.159,3.939-9.836,9.369-13.518,12.678c-2.332,2.096-1.493,1.753-2.954,4.527c-1.461,2.774-1.499,4.887,0.213,7.514"/>
			</g>
			<g>
				<path style="fill:#E3683E;" d="M174.573,236.172c-2.875,2.027-3.425,3.974-4.157,6.687c-1.057,3.918-0.003,7.854,1.558,12.07
					c1.961,5.294,3.958,8.969,6.165,12.013c4.846-2.66,11.234-6.155,16.079-8.815c0.269-0.147,0.555-0.315,0.654-0.617
					c0.089-0.268,0.009-0.585-0.07-0.882c-1.08-4.045-2.553-6.719-4.052-10.612c-1.083-2.812-2.216-5.313-3.985-7.599
					c-1.769-2.286-4.699-3.806-7.574-3.577C176.985,235.017,174.573,236.172,174.573,236.172z"/>
			</g>
			<path style="opacity:0.51;fill:#B23820;" d="M174.573,236.172c-2.875,2.027-3.425,3.974-4.157,6.687
				c-1.057,3.918-0.003,7.854,1.558,12.07c1.961,5.294,3.958,8.969,6.165,12.013c4.846-2.66,11.234-6.155,16.079-8.815
				c0.269-0.147,0.555-0.315,0.654-0.617c0.089-0.268,0.009-0.585-0.07-0.882c-1.08-4.045-2.553-6.719-4.052-10.612
				c-1.083-2.812-2.216-5.313-3.985-7.599c-1.769-2.286-4.699-3.806-7.574-3.577C176.985,235.017,174.573,236.172,174.573,236.172z"
				/>
			<g style="opacity:0.43;">
				<path style="fill:#B23820;" d="M185.567,290.859c-1.575,5.197-3.373,10.319-5.933,15.096c-0.83,1.549-1.861,3.163-3.511,3.768
					c-1.892,0.694-3.897-0.25-5.247-1.816c0.237,0.597,0.522,1.174,0.886,1.715c1.596,2.372,4.361,3.759,7.406,2.099
					c1.683-0.918,2.937-2.854,3.624-6.757C183.739,299.582,184.668,295.027,185.567,290.859z"/>
			</g>
			<g>
				<path style="fill:#E3683E;" d="M223.973,248.52c0.293-1.181,0.593-2.096,0.139-3.224c-0.197-0.489-0.447-0.994-0.376-1.517
					c0.05-0.371,0.257-0.699,0.458-1.014c1.752-2.737,3.399-5.573,5.152-8.31c0.605-0.945,1.256-2.018,2.292-2.45
					c0.443-0.185,0.979,0.128,1.264,0.514c0.251,0.34,0.182,1.023-0.04,1.383c-1.264,2.054-1.73,2.61-2.687,4.03
					c0.948-1.106,1.665-2.074,2.371-3.082c0.83-1.185,1.352-2.125,2.471-1.615c0.211,0.096,0.407,0.247,0.503,0.458
					c0.189,0.415-0.048,1.322-0.288,1.71c-0.911,1.472-1.681,2.712-2.647,4.149c0.912-1.249,1.617-2.189,2.529-3.437
					c0.268-0.367,0.753-0.964,1.185-1.106c0.918-0.303,1.8,0.501,1.699,1.462c-0.079,0.751-0.744,1.585-1.501,2.608
					c-0.79,1.067-0.594,1.186-1.541,2.213c0.632-0.869,0.731-0.948,1.225-1.541c0.79-0.948,1.085-1.693,1.817-1.936
					c0.733-0.243,1.81,0.615,1.774,1.386c-0.011,0.25-0.125,0.482-0.233,0.708c-3.003,6.242-6.242,9.008-11.142,15.962
					c-1.896-1.659-4.109-3.319-6.084-4.425L223.973,248.52z"/>
			</g>
			<g>
				<path style="fill:#255387;" d="M234.087,231.294c0.514-1.304,1.043-2.254,1.718-3.637c1.324,1.74,2.509,3.439,3.892,5.02
					c-1.264,0.435-1.936,0.514-3.556,0.988"/>
			</g>
			<g>
				<path style="fill:#255387;" d="M238.993,225.306l4.019,5.143c0.133-0.101,0.265-0.198,0.399-0.301
					c0.142-0.11-2.786-3.739-3.99-5.176C239.278,225.084,239.136,225.195,238.993,225.306z"/>
			</g>
			<g style="opacity:0.33;">
				<path style="fill:#255387;" d="M244.282,228.609c0.775-0.646,1.599-1.21,2.42-1.781c0.837-0.547,1.669-1.1,2.56-1.574
					c-0.77,0.644-1.598,1.21-2.42,1.782C246.003,227.583,245.167,228.137,244.282,228.609z"/>
			</g>
			<g style="opacity:0.33;">
				<path style="fill:#255387;" d="M244.235,226.163c0.557-0.58,1.209-1.049,1.858-1.512c0.666-0.44,1.333-0.87,2.042-1.245
					c-0.59,0.546-1.254,0.99-1.901,1.451C245.57,225.296,244.919,225.745,244.235,226.163z"/>
			</g>
			<g style="opacity:0.33;">
				<path style="fill:#255387;" d="M240.685,224.933c0.801-0.807,1.667-1.545,2.528-2.287c0.88-0.72,1.755-1.447,2.689-2.096
					c-0.805,0.812-1.669,1.546-2.528,2.287C242.496,223.556,241.623,224.279,240.685,224.933z"/>
			</g>
			<g style="opacity:0.33;">
				<path style="fill:#255387;" d="M241.189,225.237c0.79-0.794,1.638-1.511,2.482-2.235c0.863-0.702,1.72-1.409,2.643-2.044
					c-0.786,0.791-1.637,1.511-2.482,2.235C242.968,223.896,242.108,224.605,241.189,225.237z"/>
			</g>
		</g>
	</g>
	<g>
		<g>
			<g>
				<g>
					<path style="fill:#6EA652;" d="M419.924,441.76c0.092-6.685,0.185-13.369,0.277-20.053c0.044-3.199,0.104-6.485,1.18-9.449
						c1.077-2.963,3.419-5.572,6.249-5.771c1.354-0.096,2.732,0.354,4.056,0.019c3.335-0.846,2.791-7.158,3.509-10.929
						c1.975-10.38,9.613-18.098,17.955-23.018c2.862-1.688,6.153-2.9,9.294-2.088c3.141,0.813,5.896,4.251,5.333,7.837
						c-0.408,2.597-2.321,4.538-3.271,6.949c-2.157,5.475,0.828,12.701-2.417,17.446c-3.339,4.881-11.456,4.071-13.34,9.856
						c-0.625,1.918-0.307,4.054-0.635,6.063c-0.614,3.764-3.421,6.629-6.446,8.365c-3.025,1.735-6.374,2.631-9.455,4.235
						c-4.865,2.532-8.984,6.859-11.572,12.154"/>
				</g>
				<g>
					<path style="fill:#83BA63;" d="M427.875,446.282c-0.479-3.324-0.582-6.712-0.298-10.076c0.293-3.362,1.001-6.698,2.116-9.898
						c2.171-6.491,6.517-11.882,10.174-17.416c1.834-2.79,3.513-5.667,4.768-8.752c1.3-3.07,2.324-6.271,3.604-9.391
						c1.257-3.121,2.733-6.215,4.801-8.909c1.04-1.337,2.211-2.582,3.553-3.617c1.345-1.027,2.871-1.825,4.499-2.249
						c-1.597,0.529-3.052,1.396-4.333,2.456c-1.272,1.076-2.365,2.346-3.325,3.701c-1.95,2.704-3.317,5.768-4.478,8.897
						c-1.156,3.136-2.207,6.328-3.481,9.461c-1.251,3.152-2.942,6.121-4.773,8.95c-1.867,2.822-3.919,5.475-5.712,8.287
						c-0.903,1.402-1.761,2.839-2.542,4.299c-0.741,1.484-1.467,2.981-2.036,4.544C428.063,432.799,427.326,439.599,427.875,446.282
						z"/>
				</g>
				<g>
					<path style="fill:#6EA652;" d="M417.749,439.099c-0.123-7.112-0.246-14.224-0.369-21.337c-0.059-3.404-0.134-6.9-1.262-10.059
						c-1.128-3.159-3.566-5.948-6.499-6.177c-1.403-0.109-2.829,0.361-4.202-0.004c-3.459-0.919-4.36-6.004-5.119-10.021
						c-2.09-11.055-8.596-20.938-17.261-26.22c-2.973-1.812-6.388-3.122-9.639-2.275c-3.252,0.846-6.092,4.488-5.493,8.307
						c0.433,2.765,2.424,4.842,3.418,7.413c2.257,5.837-0.806,13.509,2.576,18.575c3.48,5.212,11.888,4.398,13.864,10.563
						c0.655,2.044,0.335,4.315,0.683,6.454c0.651,4.008,3.572,7.073,6.714,8.937c3.142,1.864,6.615,2.836,9.815,4.561
						c5.051,2.722,9.337,7.349,12.041,12.998"/>
				</g>
				<g>
					<path style="fill:#83BA63;" d="M416.056,439.827c0.251-3.518-0.336-7.038-1.555-10.309c-1.209-3.279-2.949-6.34-4.989-9.171
						c-4.105-5.656-9.359-10.437-13.509-16.224c-1.024-1.452-1.97-2.966-2.807-4.54c-0.831-1.578-1.546-3.206-2.199-4.852
						c-1.299-3.296-2.385-6.646-3.586-9.939c-1.203-3.287-2.627-6.504-4.641-9.362c-0.992-1.432-2.122-2.778-3.44-3.926
						c-1.327-1.13-2.84-2.064-4.508-2.636c1.7,0.469,3.285,1.333,4.677,2.432c1.388,1.108,2.596,2.428,3.668,3.842
						c2.131,2.849,3.663,6.095,4.962,9.374c1.324,3.278,2.385,6.638,3.712,9.875c0.659,1.619,1.376,3.211,2.198,4.741
						c0.828,1.527,1.766,2.994,2.778,4.412c3.995,5.725,9.273,10.512,13.321,16.362c1.995,2.929,3.691,6.085,4.823,9.452
						C416.045,432.73,416.533,436.328,416.056,439.827z"/>
				</g>
				<g>
					<path style="fill:#83BA63;" d="M419.629,433.018c4.054-7.072,8.109-14.143,12.163-21.214c1.94-3.384,3.919-6.872,4.662-10.847
						c0.743-3.975-0.024-8.603-2.781-11.106c-1.319-1.197-3.001-1.843-4.142-3.268c-2.871-3.589-0.773-9.276,0.837-13.806
						c4.43-12.466,3.817-27.214-1.626-39.125c-1.867-4.087-4.465-8.023-8.168-9.719c-3.703-1.696-8.642-0.329-10.294,3.881
						c-1.196,3.049-0.453,6.632-0.982,9.925c-1.201,7.479-8.726,12.624-8.365,20.22c0.371,7.815,9.139,13.547,7.468,21.129
						c-0.554,2.514-2.203,4.493-3.116,6.861c-1.711,4.437-0.625,10.382,1.378,14.65c2.004,4.269,5.51,5.91,7.653,10.087
						c3.382,6.594,3.079,14.344,2.429,21.984"/>
				</g>
				<g>
					<path style="fill:#6EA652;" d="M418.532,433.501c1.506-4.163,2.564-8.476,3.111-12.852c0.581-4.369,0.678-8.799,0.273-13.178
						c-0.733-8.754-3.929-17.246-3.906-26.274c0.028-8.978,2.391-17.625,3.463-26.359c0.53-4.366,0.688-8.798,0.137-13.166
						c-0.519-4.353-1.846-8.694-4.444-12.304c2.786,3.478,4.243,7.858,4.929,12.236c0.657,4.411,0.584,8.897,0.142,13.32
						c-0.93,8.838-3.285,17.47-3.228,26.272c-0.121,8.802,3.077,17.295,3.671,26.214
						C423.324,416.293,421.933,425.32,418.532,433.501z"/>
				</g>
			</g>
			<g>
				<polygon style="fill:#CAB4AE;" points="406.077,461.098 434.756,461.098 443.845,427.009 397.897,427.009 				"/>
				
					<rect x="394.765" y="425.215" transform="matrix(-1 -1.224647e-16 1.224647e-16 -1 841.7425 855.9753)" style="fill:#B29E9A;" width="52.213" height="5.544"/>
			</g>
		</g>
		<g>
			<g>
				<path style="fill:#5D727C;" d="M295.84,387.912h-3c0-16.934-13.873-30.71-30.924-30.71c-17.051,0-30.924,13.776-30.924,30.71h-3
					c0-18.588,15.218-33.71,33.924-33.71C280.621,354.202,295.84,369.324,295.84,387.912z"/>
			</g>
			<path style="fill:#9FB0C1;" d="M293.243,460.919h-61.796c-1.199,0-2.17-0.972-2.17-2.17v-69.311c0-1.199,0.972-2.17,2.17-2.17
				h61.796c1.199,0,2.17,0.972,2.17,2.17v69.311C295.413,459.948,294.442,460.919,293.243,460.919z"/>
			<path style="fill:#5D727C;" d="M297.659,395.213h-70.628c-0.776,0-1.404-0.629-1.404-1.404v-8.787
				c0-0.776,0.629-1.404,1.404-1.404h70.628c0.776,0,1.404,0.629,1.404,1.404v8.787
				C299.064,394.584,298.435,395.213,297.659,395.213z"/>
			<g style="opacity:0.49;">
				<g>
					<rect x="255.044" y="418.189" style="fill:#FFFFFF;" width="40.369" height="12.884"/>
					<rect x="255.044" y="405.305" style="fill:#FFFFFF;" width="40.369" height="5.154"/>
				</g>
			</g>
			<g>
				<path style="fill:#FFFFFF;" d="M234.02,382.934c-0.201,0.478-0.36,0.998-0.478,1.542c-0.581,2.67,0.788,5.299,3.11,6.739
					c0.816,0.506,1.507,1.266,1.957,2.115c0.898,1.698,1.044,3.679,1.173,5.595c0.344,5.134,0.687,10.268,1.031,15.402
					c0.113,1.685,0.255,3.465,1.596,4.701c0.583,0.538,1.401,0.817,2.177,0.653c1.736-0.366,2.093-2.279,2.239-3.875l2.007-21.902
					c0.141-1.537,0.648-3.039,1.59-4.261c3.463-4.495,7.593,1.305,10.767-0.649c0.813-0.501,1.284-1.402,1.993-2.042
					c1.3-1.174,3.189-1.326,4.875-1.803c0.017-0.005,0.034-0.009,0.051-0.014c1.495-0.42,1.21-2.616-0.342-2.634l-32.49-0.376
					C234.73,382.118,234.23,382.433,234.02,382.934z"/>
			</g>
			<g>
				<path style="fill:#FFFFFF;" d="M296.926,440.665c0.424,1.855,0.558,3.877,0.669,6.52c0.046,1.086,0.215,2.176,0.602,3.192
					c1.665,4.378,5.802,5.705,10.405,6.535c4.596,0.829,9.697,1.457,12.81,4.938c-1.218,1.318-3.325,0.844-5.096,0.553
					c-11.67-1.913-25.412-0.84-42.805-1.054c0.495-2.264,3.866-3.941,6.179-3.797s4.756,0.801,6.863-0.164
					c2.967-1.358,3.752-5.167,3.884-8.427c0.132-3.26,0.157-6.936,2.519-9.186v0C294.128,438.287,296.504,438.819,296.926,440.665z"
					/>
			</g>
		</g>
	</g>
	<rect x="30.488" y="461.098" style="fill:#5D727C;" width="600.766" height="4.851"/>
</g>
</svg>
