<svg xmlns="http://www.w3.org/2000/svg" viewBox="0 0 750 500"><g id="freepik--background-complete--inject-5"><path d="M664.29,379.13c-6,.1-21.29.35-27.13.41l-9.15,0h-.45v-.46l0-11.41v-.5h.5l18.14.07c4.52,0,13.62.14,18.14.2h.24v.23l-.23,11.41Zm0,0-.24-11.41.24.24c-4.53.06-13.62.16-18.14.19l-18.14.07.5-.5,0,11.41-.46-.46,9,0c5.75.07,21.34.32,27.29.42Z" style="fill:#ebebeb"></path><path d="M644.05,393.51c-6,.1-21.28.35-27.12.41l-9.15,0h-.45v-.46l0-11.41v-.5h.5l18.14.07c4.51,0,13.62.14,18.13.2h.24v.23l-.24,11.41Zm0,0-.23-11.41.23.24c-4.52.06-13.61.16-18.13.19l-18.14.07.5-.5,0,11.41-.46-.46,9,0c5.75.07,21.34.32,27.28.42Z" style="fill:#ebebeb"></path><path d="M122.71,379.13c-6,.1-21.29.35-27.13.41l-9.15,0H86v-.46l0-11.41v-.5h.5l18.14.07c4.52,0,13.62.14,18.14.2H123v.23l-.23,11.41Zm0,0-.24-11.41.24.24c-4.53.06-13.62.16-18.14.19l-18.14.07.5-.5,0,11.41-.46-.46,9,0c5.75.07,21.34.32,27.29.42Z" style="fill:#ebebeb"></path><rect x="66.2" y="382.1" width="36.27" height="11.4" style="fill:#ebebeb"></rect><rect x="648.25" y="382.1" width="36.27" height="11.4" style="fill:#ebebeb"></rect><path d="M361.19,154.86c-6,.1-21.28.35-27.12.41l-9.15,0h-.45v-.45l0-11.41V143h.5l18.14.07c4.51,0,13.62.13,18.13.2h.24v.23l-.24,11.41Zm0,0L361,143.45l.23.24c-4.52.06-13.61.15-18.13.19l-18.14.07.5-.5,0,11.41-.46-.46,9,0c5.75.07,21.34.32,27.28.42Z" style="fill:#ebebeb"></path><rect x="304.69" y="157.83" width="36.27" height="11.4" style="fill:#ebebeb"></rect><path d="M381.43,169.24c-6,.1-21.29.35-27.13.41l-9.14,0h-.46v-.45l0-11.41v-.5h.51l18.13.07c4.52,0,13.62.13,18.14.2h.24v.23l-.23,11.41Zm0,0-.24-11.41.24.24c-4.53.06-13.61.15-18.14.19l-18.13.07.49-.5,0,11.41-.45-.46,9,0c5.75.07,21.34.32,27.29.42Z" style="fill:#ebebeb"></path><rect x="465.77" y="315.94" width="36.27" height="11.4" style="fill:#ebebeb"></rect><path d="M663.69,59.63c-6.05.1-21.29.35-27.13.41l-9.15,0H627v-.46l-.05-11.41v-.5h.5l18.14.06c4.52,0,13.62.14,18.14.2h.24v.23l-.23,11.41Zm0,0-.24-11.41.24.24c-4.53.06-13.62.16-18.14.2l-18.14.06.5-.5,0,11.41-.46-.46,9,0c5.75.07,21.34.32,27.29.42Z" style="fill:#ebebeb"></path><rect x="647.65" y="62.6" width="36.27" height="11.4" style="fill:#ebebeb"></rect><path d="M101.75,59.64c-6,.1-21.29.35-27.13.42l-9.14,0H65v-.46l0-11.4v-.5h.5l18.13.07c4.52,0,13.62.13,18.14.19H102v.24l-.24,11.4Zm0,0-.23-11.4.23.23c-4.52.06-13.61.16-18.14.2l-18.13.07.5-.5,0,11.4-.45-.46,9,0c5.75.06,21.33.31,27.28.41Z" style="fill:#ebebeb"></path><rect x="109.01" y="78.25" width="74.43" height="48.6" style="fill:#dbdbdb"></rect><rect x="109.01" y="129.69" width="74.43" height="48.6" style="fill:#ebebeb"></rect><rect x="116.38" y="139.04" width="7.24" height="7.24" style="fill:#fff"></rect><rect x="125.12" y="139.04" width="7.24" height="7.24" style="fill:#c7c7c7"></rect><rect x="133.87" y="139.04" width="7.24" height="7.24" style="fill:#fff"></rect><rect x="142.61" y="139.04" width="7.24" height="7.24" style="fill:#fff"></rect><rect x="151.35" y="139.04" width="7.24" height="7.24" style="fill:#fff"></rect><rect x="160.1" y="139.04" width="7.24" height="7.24" style="fill:#fff"></rect><rect x="168.84" y="139.04" width="7.24" height="7.24" style="fill:#fff"></rect><rect x="116.38" y="147.84" width="7.24" height="7.24" style="fill:#fff"></rect><rect x="125.12" y="147.84" width="7.24" height="7.24" style="fill:#fff"></rect><rect x="133.87" y="147.84" width="7.24" height="7.24" style="fill:#fff"></rect><rect x="142.61" y="147.84" width="7.24" height="7.24" style="fill:#fff"></rect><rect x="151.35" y="147.84" width="7.24" height="7.24" style="fill:#c7c7c7"></rect><rect x="160.1" y="147.84" width="7.24" height="7.24" style="fill:#fff"></rect><rect x="168.84" y="147.84" width="7.24" height="7.24" style="fill:#fff"></rect><rect x="116.38" y="156.65" width="7.24" height="7.24" style="fill:#fff"></rect><rect x="125.12" y="156.65" width="7.24" height="7.24" style="fill:#fff"></rect><rect x="133.87" y="156.65" width="7.24" height="7.24" style="fill:#fff"></rect><rect x="142.61" y="156.65" width="7.24" height="7.24" style="fill:#fff"></rect><rect x="151.35" y="156.65" width="7.24" height="7.24" style="fill:#fff"></rect><rect x="160.1" y="156.65" width="7.24" height="7.24" style="fill:#fff"></rect><rect x="168.84" y="156.65" width="7.24" height="7.24" style="fill:#fff"></rect><rect x="116.38" y="165.45" width="7.24" height="7.24" style="fill:#fff"></rect><rect x="125.12" y="165.45" width="7.24" height="7.24" style="fill:#fff"></rect><rect x="133.87" y="165.45" width="7.24" height="7.24" style="fill:#c7c7c7"></rect><rect x="142.61" y="165.45" width="7.24" height="7.24" style="fill:#fff"></rect><rect x="151.35" y="165.45" width="7.24" height="7.24" style="fill:#fff"></rect><rect x="160.1" y="165.45" width="7.24" height="7.24" style="fill:#fff"></rect><rect x="168.84" y="165.45" width="7.24" height="7.24" style="fill:#fff"></rect><rect x="111.93" y="124.53" width="2.82" height="7.47" style="fill:#c7c7c7"></rect><rect x="118.51" y="124.53" width="2.82" height="7.47" style="fill:#c7c7c7"></rect><rect x="125.08" y="124.53" width="2.83" height="7.47" style="fill:#c7c7c7"></rect><rect x="131.66" y="124.53" width="2.82" height="7.47" style="fill:#c7c7c7"></rect><rect x="138.24" y="124.53" width="2.82" height="7.47" style="fill:#c7c7c7"></rect><rect x="144.82" y="124.53" width="2.82" height="7.47" style="fill:#c7c7c7"></rect><rect x="151.39" y="124.53" width="2.82" height="7.47" style="fill:#c7c7c7"></rect><rect x="157.97" y="124.53" width="2.82" height="7.47" style="fill:#c7c7c7"></rect><rect x="164.55" y="124.53" width="2.82" height="7.47" style="fill:#c7c7c7"></rect><rect x="171.13" y="124.53" width="2.82" height="7.47" style="fill:#c7c7c7"></rect><rect x="177.7" y="124.53" width="2.82" height="7.47" style="fill:#c7c7c7"></rect><path d="M147.42,83.22A1.19,1.19,0,1,1,146.23,82,1.19,1.19,0,0,1,147.42,83.22Z" style="fill:#263238"></path><path d="M500.76,267.82v206H625.87V267.82ZM614.51,398.41H512.12V344.53H614.51Zm0-66.71H512.12V277.82H614.51Z" style="fill:#dbdbdb"></path><rect x="625.88" y="267.82" width="56.57" height="205.95" style="fill:#ebebeb"></rect><rect x="512.12" y="277.82" width="24.33" height="53.87" style="fill:#ebebeb"></rect><path d="M614.77,461H512.51V409.16H614.77ZM513,460.53H614.27V409.66H513Z" style="fill:#ebebeb"></path><rect x="553.53" y="423.86" width="20.21" height="7.39" style="fill:#ebebeb"></rect><rect x="512.12" y="344.53" width="24.33" height="53.87" style="fill:#ebebeb"></rect><rect x="567.12" y="365.01" width="49.67" height="17.12" transform="translate(965.52 -218.38) rotate(90)" style="fill:#a6a6a6"></rect><rect x="586.59" y="376.51" width="10.72" height="17.12" transform="translate(977.02 -206.88) rotate(90)" style="fill:#dbdbdb"></rect><rect x="588.77" y="359.35" width="6.36" height="17.12" transform="translate(959.86 -224.04) rotate(90)" style="fill:#dbdbdb"></rect><rect x="541.98" y="290.13" width="43.26" height="41.57" style="fill:#ebebeb"></rect><rect x="585.24" y="290.13" width="16.44" height="41.57" style="fill:#c7c7c7"></rect><polygon points="541.98 310.91 585.24 310.91 551.45 311.98 541.98 310.91" style="fill:#c7c7c7"></polygon><polygon points="585.24 326.68 541.98 326.68 575.76 327.75 585.24 326.68" style="fill:#c7c7c7"></polygon><polygon points="541.98 299.29 569.38 299.29 545.02 300.17 541.98 299.29" style="fill:#c7c7c7"></polygon><polygon points="585.24 320.56 557.84 320.56 582.2 321.43 585.24 320.56" style="fill:#c7c7c7"></polygon><polygon points="552.36 294.67 583.26 294.67 578.11 295.19 552.36 294.67" style="fill:#c7c7c7"></polygon><polygon points="546.18 315.37 577.09 315.37 571.94 315.89 546.18 315.37" style="fill:#c7c7c7"></polygon><polygon points="565.19 303.25 585.24 303.25 588.82 304.65 565.19 303.25" style="fill:#ebebeb"></polygon><polygon points="536.46 303.25 556.5 303.25 560.09 304.65 536.46 303.25" style="fill:#ebebeb"></polygon><polygon points="562.18 321.94 542.13 321.94 538.55 323.33 562.18 321.94" style="fill:#ebebeb"></polygon><polygon points="585.24 317.19 601.34 317.19 604.92 318.59 585.24 317.19" style="fill:#c7c7c7"></polygon><polygon points="590.86 310.91 603.34 310.91 601.68 309.77 590.86 310.91" style="fill:#c7c7c7"></polygon><rect x="600.51" y="345.42" width="14.01" height="52.99" style="fill:#ebebeb"></rect><path d="M607.51,355.87a2.92,2.92,0,1,1,2.92-2.92A2.91,2.91,0,0,1,607.51,355.87Z" style="fill:#fff"></path><path d="M607.51,354.62a1.67,1.67,0,1,1,1.67-1.67A1.66,1.66,0,0,1,607.51,354.62Z" style="fill:#a6a6a6"></path><rect x="601.07" y="376.61" width="12.89" height="14.01" transform="translate(991.13 -223.9) rotate(90)" style="fill:#fff"></rect><rect x="530.4" y="387.47" width="52.99" height="11.02" style="fill:#c7c7c7"></rect><path d="M572.94,393a2.92,2.92,0,1,1,2.91,2.91A2.91,2.91,0,0,1,572.94,393Z" style="fill:#fff"></path><path d="M574.19,393a1.67,1.67,0,1,1,1.66,1.66A1.66,1.66,0,0,1,574.19,393Z" style="fill:#a6a6a6"></path><rect x="538.75" y="387.47" width="12.89" height="11.02" transform="translate(1090.39 785.95) rotate(180)" style="fill:#fff"></rect><path d="M401.4,49.14V250H682.45V49.14ZM677.3,244.8H406.56V54.29H677.3Z" style="fill:#ebebeb"></path><rect x="406.56" y="54.29" width="270.74" height="190.51" style="fill:#fff"></rect><path d="M523.93,90.93c3.69,0,65.73.41,69.63.29.28,0,.43-.42.15-.56-2.46-1.22-5.25-1-7.8-1.83a8.31,8.31,0,0,1-3.47-2.62,7.23,7.23,0,0,0-3.23-2.11A6.85,6.85,0,0,0,575.7,84a28.91,28.91,0,0,0-3.55,1.48c-3,1.12-5.88,0-8-2.15a17.49,17.49,0,0,0-5.87-4.51,7.8,7.8,0,0,0-6.21-.09c-2.28,1-3.84,3.11-6,4.35-2.54,1.48-5.57,1.13-8.37,1.58s-5,2.8-7.4,4.16a5.34,5.34,0,0,1-2.67.83,14.87,14.87,0,0,1-1.63-.23,2.25,2.25,0,0,0-2.22.62C523.66,90.21,523.69,90.93,523.93,90.93Z" style="fill:#ebebeb"></path><path d="M602.48,155.41c3.68,0,65.72.41,69.62.28.28,0,.43-.42.15-.55-2.46-1.22-5.24-1-7.8-1.84a8.35,8.35,0,0,1-3.47-2.61,7.09,7.09,0,0,0-3.22-2.11,6.78,6.78,0,0,0-3.52-.11,30.49,30.49,0,0,0-3.55,1.47c-3,1.13-5.88.06-8-2.15a17.69,17.69,0,0,0-5.86-4.51,7.78,7.78,0,0,0-6.22-.08c-2.27,1-3.83,3.1-6,4.35-2.54,1.48-5.57,1.13-8.36,1.57s-4.95,2.81-7.41,4.17a5.17,5.17,0,0,1-2.67.82,14.87,14.87,0,0,1-1.63-.23,2.23,2.23,0,0,0-2.22.63C602.2,154.68,602.23,155.41,602.48,155.41Z" style="fill:#ebebeb"></path><path d="M421,155.81c3.68,0,65.72.4,69.62.28.28,0,.43-.42.16-.56-2.46-1.22-5.25-1-7.8-1.83a8.25,8.25,0,0,1-3.47-2.62,7.29,7.29,0,0,0-3.23-2.11,6.89,6.89,0,0,0-3.52-.11,30.56,30.56,0,0,0-3.55,1.48c-3,1.12-5.88.06-8-2.15a17.59,17.59,0,0,0-5.87-4.51,7.8,7.8,0,0,0-6.21-.09c-2.28,1-3.84,3.11-6,4.35-2.53,1.49-5.56,1.13-8.36,1.58s-5,2.81-7.4,4.16a5.25,5.25,0,0,1-2.68.83,14.87,14.87,0,0,1-1.63-.23,2.22,2.22,0,0,0-2.21.63C420.73,155.08,420.76,155.81,421,155.81Z" style="fill:#ebebeb"></path><path d="M472.72,118.14c.07.21,97.78,0,96.55,0-.56,0,.85-.84.3-1.11-3.18-1.58-6.66-1.63-10.12-1.94a15.61,15.61,0,0,1-5.91-1.44c-1.85-1-3-2.64-4.3-4.18a18.37,18.37,0,0,0-16.69-6.33c-6.94,1.09-12.42,6.38-19.38,7.36-4.18.58-8.14-1-12.22-1.6a14.94,14.94,0,0,0-9.18,1.67,17.32,17.32,0,0,1-6.73,2.19c-1.91.13-3.83-.09-5.75-.11a12.92,12.92,0,0,0-8.46,3.39C470.52,116.31,469.53,118.14,472.72,118.14Z" style="fill:#ebebeb;opacity:0.5"></path><rect x="596.61" y="114" width="41.17" height="130.8" style="fill:#ebebeb"></rect><rect x="596.61" y="109.79" width="42.16" height="4.21" transform="translate(1235.38 223.79) rotate(180)" style="fill:#c7c7c7"></rect><rect x="629.89" y="120.2" width="4.17" height="124.6" style="fill:#fff"></rect><rect x="622.5" y="120.2" width="4.17" height="124.6" style="fill:#fff"></rect><rect x="615.11" y="120.2" width="4.17" height="124.6" style="fill:#fff"></rect><rect x="607.72" y="120.2" width="4.17" height="124.6" style="fill:#fff"></rect><rect x="600.33" y="120.2" width="4.17" height="124.6" style="fill:#fff"></rect><rect x="629.89" y="125.52" width="4.17" height="8.31" transform="translate(1263.94 259.35) rotate(180)" style="fill:#ebebeb"></rect><rect x="622.5" y="125.52" width="4.17" height="8.31" transform="translate(1249.16 259.35) rotate(180)" style="fill:#ebebeb"></rect><rect x="615.11" y="125.52" width="4.17" height="8.31" transform="translate(1234.39 259.35) rotate(180)" style="fill:#ebebeb"></rect><rect x="607.72" y="125.52" width="4.17" height="8.31" transform="translate(1219.61 259.35) rotate(180)" style="fill:#ebebeb"></rect><rect x="600.33" y="125.52" width="4.17" height="8.31" transform="translate(1204.83 259.35) rotate(180)" style="fill:#ebebeb"></rect><rect x="629.89" y="139.03" width="4.17" height="8.31" transform="translate(1263.94 286.36) rotate(180)" style="fill:#ebebeb"></rect><rect x="622.5" y="139.03" width="4.17" height="8.31" transform="translate(1249.16 286.36) rotate(180)" style="fill:#ebebeb"></rect><rect x="615.11" y="139.03" width="4.17" height="8.31" transform="translate(1234.39 286.36) rotate(180)" style="fill:#ebebeb"></rect><rect x="607.72" y="139.03" width="4.17" height="8.31" transform="translate(1219.61 286.36) rotate(180)" style="fill:#ebebeb"></rect><rect x="600.33" y="139.03" width="4.17" height="8.31" transform="translate(1204.83 286.36) rotate(180)" style="fill:#ebebeb"></rect><rect x="629.89" y="152.53" width="4.17" height="8.31" transform="translate(1263.94 313.38) rotate(180)" style="fill:#ebebeb"></rect><rect x="622.5" y="152.53" width="4.17" height="8.31" transform="translate(1249.16 313.38) rotate(180)" style="fill:#ebebeb"></rect><rect x="615.11" y="152.53" width="4.17" height="8.31" transform="translate(1234.39 313.38) rotate(180)" style="fill:#ebebeb"></rect><rect x="607.72" y="152.53" width="4.17" height="8.31" transform="translate(1219.61 313.38) rotate(180)" style="fill:#ebebeb"></rect><rect x="600.33" y="152.53" width="4.17" height="8.31" transform="translate(1204.83 313.38) rotate(180)" style="fill:#ebebeb"></rect><rect x="629.89" y="166.04" width="4.17" height="8.31" transform="translate(1263.94 340.39) rotate(180)" style="fill:#ebebeb"></rect><rect x="622.5" y="166.04" width="4.17" height="8.31" transform="translate(1249.16 340.39) rotate(180)" style="fill:#ebebeb"></rect><rect x="615.11" y="166.04" width="4.17" height="8.31" transform="translate(1234.39 340.39) rotate(180)" style="fill:#ebebeb"></rect><rect x="607.72" y="166.04" width="4.17" height="8.31" transform="translate(1219.61 340.39) rotate(180)" style="fill:#ebebeb"></rect><rect x="600.33" y="166.04" width="4.17" height="8.31" transform="translate(1204.83 340.39) rotate(180)" style="fill:#ebebeb"></rect><rect x="629.89" y="179.54" width="4.17" height="8.31" transform="translate(1263.94 367.4) rotate(180)" style="fill:#ebebeb"></rect><rect x="622.5" y="179.54" width="4.17" height="8.31" transform="translate(1249.16 367.4) rotate(180)" style="fill:#ebebeb"></rect><rect x="615.11" y="179.54" width="4.17" height="8.31" transform="translate(1234.39 367.4) rotate(180)" style="fill:#ebebeb"></rect><rect x="607.72" y="179.54" width="4.17" height="8.31" transform="translate(1219.61 367.4) rotate(180)" style="fill:#ebebeb"></rect><rect x="600.33" y="179.54" width="4.17" height="8.31" transform="translate(1204.83 367.4) rotate(180)" style="fill:#ebebeb"></rect><rect x="629.89" y="193.05" width="4.17" height="8.31" transform="translate(1263.94 394.41) rotate(180)" style="fill:#ebebeb"></rect><rect x="622.5" y="193.05" width="4.17" height="8.31" transform="translate(1249.16 394.41) rotate(180)" style="fill:#ebebeb"></rect><rect x="615.11" y="193.05" width="4.17" height="8.31" transform="translate(1234.39 394.41) rotate(180)" style="fill:#ebebeb"></rect><rect x="607.72" y="193.05" width="4.17" height="8.31" transform="translate(1219.61 394.41) rotate(180)" style="fill:#ebebeb"></rect><rect x="600.33" y="193.05" width="4.17" height="8.31" transform="translate(1204.83 394.41) rotate(180)" style="fill:#ebebeb"></rect><rect x="629.89" y="206.55" width="4.17" height="8.31" transform="translate(1263.94 421.42) rotate(180)" style="fill:#ebebeb"></rect><rect x="622.5" y="206.55" width="4.17" height="8.31" transform="translate(1249.16 421.42) rotate(180)" style="fill:#ebebeb"></rect><rect x="615.11" y="206.55" width="4.17" height="8.31" transform="translate(1234.39 421.42) rotate(180)" style="fill:#ebebeb"></rect><rect x="607.72" y="206.55" width="4.17" height="8.31" transform="translate(1219.61 421.42) rotate(180)" style="fill:#ebebeb"></rect><rect x="600.33" y="206.55" width="4.17" height="8.31" transform="translate(1204.83 421.42) rotate(180)" style="fill:#ebebeb"></rect><rect x="629.89" y="220.06" width="4.17" height="8.31" transform="translate(1263.94 448.43) rotate(180)" style="fill:#ebebeb"></rect><rect x="622.5" y="220.06" width="4.17" height="8.31" transform="translate(1249.16 448.43) rotate(180)" style="fill:#ebebeb"></rect><rect x="615.11" y="220.06" width="4.17" height="8.31" transform="translate(1234.39 448.43) rotate(180)" style="fill:#ebebeb"></rect><rect x="607.72" y="220.06" width="4.17" height="8.31" transform="translate(1219.61 448.43) rotate(180)" style="fill:#ebebeb"></rect><rect x="600.33" y="220.06" width="4.17" height="8.31" transform="translate(1204.83 448.43) rotate(180)" style="fill:#ebebeb"></rect><rect x="629.89" y="233.57" width="4.17" height="8.31" transform="translate(1263.94 475.44) rotate(180)" style="fill:#ebebeb"></rect><rect x="622.5" y="233.57" width="4.17" height="8.31" transform="translate(1249.16 475.44) rotate(180)" style="fill:#ebebeb"></rect><rect x="615.11" y="233.57" width="4.17" height="8.31" transform="translate(1234.39 475.44) rotate(180)" style="fill:#ebebeb"></rect><rect x="607.72" y="233.57" width="4.17" height="8.31" transform="translate(1219.61 475.44) rotate(180)" style="fill:#ebebeb"></rect><rect x="600.33" y="233.57" width="4.17" height="8.31" transform="translate(1204.83 475.44) rotate(180)" style="fill:#ebebeb"></rect><rect x="570.17" y="114" width="26.43" height="130.8" style="fill:#dbdbdb"></rect><rect x="569.03" y="109.79" width="27.58" height="4.21" transform="translate(1165.64 223.79) rotate(180)" style="fill:#c7c7c7"></rect><rect x="588.71" y="120.2" width="4.17" height="124.6" style="fill:#c7c7c7"></rect><rect x="581.33" y="120.2" width="4.17" height="124.6" style="fill:#c7c7c7"></rect><rect x="573.94" y="120.2" width="4.17" height="124.6" style="fill:#c7c7c7"></rect><rect x="588.71" y="125.52" width="4.17" height="8.31" transform="translate(1181.6 259.35) rotate(180)" style="fill:#dbdbdb"></rect><rect x="581.32" y="125.52" width="4.17" height="8.31" transform="translate(1166.82 259.35) rotate(180)" style="fill:#dbdbdb"></rect><rect x="573.94" y="125.52" width="4.17" height="8.31" transform="translate(1152.04 259.35) rotate(180)" style="fill:#dbdbdb"></rect><rect x="588.71" y="139.03" width="4.17" height="8.31" transform="translate(1181.6 286.36) rotate(180)" style="fill:#dbdbdb"></rect><rect x="581.32" y="139.03" width="4.17" height="8.31" transform="translate(1166.82 286.36) rotate(180)" style="fill:#dbdbdb"></rect><rect x="573.94" y="139.03" width="4.17" height="8.31" transform="translate(1152.04 286.36) rotate(180)" style="fill:#dbdbdb"></rect><rect x="588.71" y="152.53" width="4.17" height="8.31" transform="translate(1181.6 313.38) rotate(180)" style="fill:#dbdbdb"></rect><rect x="581.32" y="152.53" width="4.17" height="8.31" transform="translate(1166.82 313.38) rotate(180)" style="fill:#dbdbdb"></rect><rect x="573.94" y="152.53" width="4.17" height="8.31" transform="translate(1152.04 313.38) rotate(180)" style="fill:#dbdbdb"></rect><rect x="588.71" y="166.04" width="4.17" height="8.31" transform="translate(1181.6 340.39) rotate(180)" style="fill:#dbdbdb"></rect><rect x="581.32" y="166.04" width="4.17" height="8.31" transform="translate(1166.82 340.39) rotate(180)" style="fill:#dbdbdb"></rect><rect x="573.94" y="166.04" width="4.17" height="8.31" transform="translate(1152.04 340.39) rotate(180)" style="fill:#dbdbdb"></rect><rect x="588.71" y="179.54" width="4.17" height="8.31" transform="translate(1181.6 367.4) rotate(180)" style="fill:#dbdbdb"></rect><rect x="581.32" y="179.54" width="4.17" height="8.31" transform="translate(1166.82 367.4) rotate(180)" style="fill:#dbdbdb"></rect><rect x="573.94" y="179.54" width="4.17" height="8.31" transform="translate(1152.04 367.4) rotate(180)" style="fill:#dbdbdb"></rect><rect x="588.71" y="193.05" width="4.17" height="8.31" transform="translate(1181.6 394.41) rotate(180)" style="fill:#dbdbdb"></rect><rect x="581.32" y="193.05" width="4.17" height="8.31" transform="translate(1166.82 394.41) rotate(180)" style="fill:#dbdbdb"></rect><rect x="573.94" y="193.05" width="4.17" height="8.31" transform="translate(1152.04 394.41) rotate(180)" style="fill:#dbdbdb"></rect><rect x="588.71" y="206.55" width="4.17" height="8.31" transform="translate(1181.6 421.42) rotate(180)" style="fill:#dbdbdb"></rect><rect x="581.32" y="206.55" width="4.17" height="8.31" transform="translate(1166.82 421.42) rotate(180)" style="fill:#dbdbdb"></rect><rect x="573.94" y="206.55" width="4.17" height="8.31" transform="translate(1152.04 421.42) rotate(180)" style="fill:#dbdbdb"></rect><rect x="588.71" y="220.06" width="4.17" height="8.31" transform="translate(1181.6 448.43) rotate(180)" style="fill:#dbdbdb"></rect><rect x="581.32" y="220.06" width="4.17" height="8.31" transform="translate(1166.82 448.43) rotate(180)" style="fill:#dbdbdb"></rect><rect x="573.94" y="220.06" width="4.17" height="8.31" transform="translate(1152.04 448.43) rotate(180)" style="fill:#dbdbdb"></rect><rect x="588.71" y="233.57" width="4.17" height="8.31" transform="translate(1181.6 475.44) rotate(180)" style="fill:#dbdbdb"></rect><rect x="581.32" y="233.57" width="4.17" height="8.31" transform="translate(1166.82 475.44) rotate(180)" style="fill:#dbdbdb"></rect><rect x="573.94" y="233.57" width="4.17" height="8.31" transform="translate(1152.04 475.44) rotate(180)" style="fill:#dbdbdb"></rect><rect x="663.3" y="184.66" width="14" height="60.14" style="fill:#ebebeb"></rect><rect x="663.3" y="174.35" width="14" height="10.31" style="fill:#c7c7c7"></rect><rect x="667.8" y="190.04" width="9.5" height="54.76" style="fill:#dbdbdb"></rect><rect x="667.8" y="201.13" width="9.5" height="2.75" style="fill:#fff"></rect><rect x="667.8" y="212.51" width="9.5" height="2.75" style="fill:#fff"></rect><rect x="667.8" y="223.89" width="9.5" height="2.75" style="fill:#fff"></rect><rect x="667.8" y="235.27" width="9.5" height="2.75" style="fill:#fff"></rect><rect x="637.63" y="184.66" width="25.68" height="60.14" style="fill:#dbdbdb"></rect><rect x="641.48" y="174.35" width="21.82" height="10.31" transform="translate(1304.78 359.01) rotate(180)" style="fill:#a6a6a6"></rect><rect x="640.02" y="190.04" width="19.74" height="54.76" style="fill:#c7c7c7"></rect><rect x="640.02" y="201.13" width="19.74" height="2.75" transform="translate(1299.79 405.01) rotate(180)" style="fill:#fff"></rect><rect x="640.02" y="212.51" width="19.74" height="2.75" transform="translate(1299.79 427.77) rotate(180)" style="fill:#fff"></rect><rect x="640.02" y="223.89" width="19.74" height="2.75" transform="translate(1299.79 450.52) rotate(180)" style="fill:#fff"></rect><rect x="640.02" y="235.26" width="19.74" height="2.75" transform="translate(1299.79 473.28) rotate(180)" style="fill:#fff"></rect><rect x="509.97" y="153.41" width="21.9" height="25.86" transform="translate(1041.83 332.69) rotate(180)" style="fill:#dbdbdb"></rect><rect x="496.08" y="153.41" width="13.88" height="26.81" transform="translate(1006.05 333.64) rotate(180)" style="fill:#c7c7c7"></rect><rect x="495.16" y="164.84" width="13.78" height="15.39" transform="translate(1004.09 345.06) rotate(180)" style="fill:#dbdbdb"></rect><rect x="486.57" y="164.84" width="8.59" height="15.39" transform="translate(981.72 345.06) rotate(180)" style="fill:#c7c7c7"></rect><rect x="504.85" y="177.6" width="35.41" height="67.2" style="fill:#ebebeb"></rect><rect x="525.08" y="183.13" width="11.13" height="4.55" transform="translate(1061.29 370.81) rotate(180)" style="fill:#fff"></rect><rect x="510.84" y="183.13" width="11.13" height="4.55" transform="translate(1032.81 370.81) rotate(180)" style="fill:#fff"></rect><rect x="525.08" y="190.85" width="11.13" height="4.55" transform="translate(1061.29 386.26) rotate(180)" style="fill:#fff"></rect><rect x="510.84" y="190.85" width="11.13" height="4.55" transform="translate(1032.81 386.26) rotate(180)" style="fill:#fff"></rect><rect x="525.08" y="198.58" width="11.13" height="4.55" transform="translate(1061.29 401.7) rotate(180)" style="fill:#fff"></rect><rect x="510.84" y="198.58" width="11.13" height="4.55" transform="translate(1032.81 401.7) rotate(180)" style="fill:#fff"></rect><rect x="525.08" y="206.3" width="11.13" height="4.55" transform="translate(1061.29 417.15) rotate(180)" style="fill:#fff"></rect><rect x="510.84" y="206.3" width="11.13" height="4.55" transform="translate(1032.81 417.15) rotate(180)" style="fill:#fff"></rect><rect x="525.08" y="214.02" width="11.13" height="4.55" transform="translate(1061.29 432.6) rotate(180)" style="fill:#fff"></rect><rect x="510.84" y="214.02" width="11.13" height="4.55" transform="translate(1032.81 432.6) rotate(180)" style="fill:#fff"></rect><rect x="525.08" y="221.75" width="11.13" height="4.55" transform="translate(1061.29 448.04) rotate(180)" style="fill:#fff"></rect><rect x="510.84" y="221.75" width="11.13" height="4.55" transform="translate(1032.81 448.04) rotate(180)" style="fill:#fff"></rect><rect x="525.08" y="229.47" width="11.13" height="4.55" transform="translate(1061.29 463.49) rotate(180)" style="fill:#fff"></rect><rect x="510.84" y="229.47" width="11.13" height="4.55" transform="translate(1032.81 463.49) rotate(180)" style="fill:#fff"></rect><rect x="525.08" y="237.19" width="11.13" height="4.55" transform="translate(1061.29 478.94) rotate(180)" style="fill:#fff"></rect><rect x="510.84" y="237.19" width="11.13" height="4.55" transform="translate(1032.81 478.94) rotate(180)" style="fill:#fff"></rect><rect x="476.16" y="177.6" width="28.69" height="67.2" style="fill:#c7c7c7"></rect><rect x="479.04" y="237.19" width="9.14" height="4.55" style="fill:#ebebeb"></rect><rect x="490.73" y="237.19" width="9.14" height="4.55" style="fill:#ebebeb"></rect><rect x="479.04" y="229.47" width="9.14" height="4.55" style="fill:#ebebeb"></rect><rect x="490.73" y="229.47" width="9.14" height="4.55" style="fill:#ebebeb"></rect><rect x="479.04" y="221.75" width="9.14" height="4.55" style="fill:#ebebeb"></rect><rect x="490.73" y="221.75" width="9.14" height="4.55" style="fill:#ebebeb"></rect><rect x="479.04" y="214.02" width="9.14" height="4.55" style="fill:#ebebeb"></rect><rect x="490.73" y="214.02" width="9.14" height="4.55" style="fill:#ebebeb"></rect><rect x="479.04" y="206.3" width="9.14" height="4.55" style="fill:#ebebeb"></rect><rect x="490.73" y="206.3" width="9.14" height="4.55" style="fill:#ebebeb"></rect><rect x="479.04" y="198.58" width="9.14" height="4.55" style="fill:#ebebeb"></rect><rect x="490.73" y="198.58" width="9.14" height="4.55" style="fill:#ebebeb"></rect><rect x="479.04" y="190.85" width="9.14" height="4.55" style="fill:#ebebeb"></rect><rect x="490.73" y="190.85" width="9.14" height="4.55" style="fill:#ebebeb"></rect><rect x="479.04" y="183.13" width="9.14" height="4.55" style="fill:#ebebeb"></rect><rect x="490.73" y="183.13" width="9.14" height="4.55" style="fill:#ebebeb"></rect><g style="opacity:0.30000000000000004"><polygon points="504.86 54.29 406.56 152.59 406.56 127.3 479.57 54.29 504.86 54.29" style="fill:#ebebeb"></polygon><polygon points="677.3 78.08 677.3 103.37 535.87 244.8 510.58 244.8 677.3 78.08" style="fill:#ebebeb"></polygon><polygon points="677.3 203.45 677.3 228.75 661.25 244.8 635.95 244.8 677.3 203.45" style="fill:#ebebeb"></polygon><polygon points="638.23 54.29 447.72 244.8 435.08 244.8 625.59 54.29 638.23 54.29" style="fill:#ebebeb"></polygon><polygon points="441.72 54.29 406.56 89.45 406.56 86.29 438.56 54.29 441.72 54.29" style="fill:#ebebeb"></polygon><polygon points="677.3 185.23 677.3 188.39 620.89 244.8 617.73 244.8 677.3 185.23" style="fill:#ebebeb"></polygon><polygon points="677.3 112.25 677.3 115.41 547.91 244.8 544.75 244.8 677.3 112.25" style="fill:#ebebeb"></polygon></g><rect x="406.55" y="169.96" width="270.74" height="5.15" transform="translate(1083.84 345.06) rotate(180)" style="fill:#ebebeb"></rect><circle cx="305.89" cy="87.06" r="37.92" transform="translate(140.79 358.89) rotate(-74.61)" style="fill:#ebebeb"></circle><circle cx="307.63" cy="87.91" r="36.19" transform="translate(-0.9 172.62) rotate(-31.3)" style="fill:#dbdbdb"></circle><circle cx="307.63" cy="87.91" r="33.9" transform="translate(27.94 243.27) rotate(-45)" style="fill:#fff"></circle><path d="M340.76,80.71c-15.44,9.36-40.81,24.7-55,33.11a33.81,33.81,0,0,1-9.26-12.45l46.9-43.47A34,34,0,0,1,340.76,80.71Z" style="fill:#ebebeb;opacity:0.5"></path><path d="M341.5,89.09a33.34,33.34,0,0,1-2.24,11l-42.28,20a34.66,34.66,0,0,1-5.34-2.3C304.41,110.43,327.75,97,341.5,89.09Z" style="fill:#ebebeb;opacity:0.5"></path><rect x="307.3" y="56.47" width="0.66" height="5.14" style="fill:#c7c7c7"></rect><rect x="292.86" y="60.34" width="0.66" height="5.14" transform="translate(7.82 155.01) rotate(-30)" style="fill:#c7c7c7"></rect><rect x="282.3" y="70.9" width="0.65" height="5.14" transform="translate(77.67 281.48) rotate(-60)" style="fill:#c7c7c7"></rect><rect x="276.19" y="87.58" width="5.14" height="0.66" style="fill:#c7c7c7"></rect><rect x="280.05" y="102.02" width="5.14" height="0.65" transform="translate(-13.31 155.03) rotate(-30)" style="fill:#c7c7c7"></rect><rect x="290.62" y="112.59" width="5.14" height="0.66" transform="translate(48.98 310.58) rotate(-60.05)" style="fill:#c7c7c7"></rect><rect x="307.3" y="114.21" width="0.66" height="5.14" style="fill:#c7c7c7"></rect><rect x="321.74" y="110.34" width="0.66" height="5.14" transform="translate(-13.31 176.16) rotate(-30)" style="fill:#c7c7c7"></rect><rect x="332.3" y="99.78" width="0.65" height="5.14" transform="translate(77.67 339.23) rotate(-60)" style="fill:#c7c7c7"></rect><rect x="333.93" y="87.58" width="5.14" height="0.66" style="fill:#c7c7c7"></rect><rect x="330.06" y="73.15" width="5.14" height="0.65" transform="translate(7.83 176.16) rotate(-30)" style="fill:#c7c7c7"></rect><rect x="319.49" y="62.58" width="5.14" height="0.66" transform="translate(106.65 310.45) rotate(-60.02)" style="fill:#c7c7c7"></rect><polygon points="308.12 58.8 309.24 90.2 306.02 90.16 307.25 58.78 308.12 58.8" style="fill:#c7c7c7"></polygon><polygon points="327.68 76.96 306.55 90.44 305.02 87.62 327.26 76.19 327.68 76.96" style="fill:#a6a6a6"></polygon><path d="M308.72,87.91a1.1,1.1,0,1,1-1.09-1.1A1.09,1.09,0,0,1,308.72,87.91Z" style="fill:#c7c7c7"></path></g><g id="freepik--cleaning-trolley--inject-5"><polygon points="280.34 385.34 335.53 385.34 330.19 446.02 285.68 446.02 280.34 385.34" style="fill:#455a64"></polygon><polygon points="280.34 385.34 285.68 446.02 330.19 446.02 335.54 385.34 330.34 444.23 292.5 437.7 287.9 385.34 280.34 385.34" style="opacity:0.1"></polygon><rect x="278.35" y="381.46" width="59.16" height="3.88" transform="translate(615.87 766.8) rotate(180)" style="fill:#37474f"></rect><path d="M309.19,410.8c23.88,0,27.78-25.4,27.82-25.66l-1.32-.19A36.33,36.33,0,0,1,331,397.28c-5,8.09-12.32,12.19-21.83,12.19-22.8,0-28.76-24.33-28.82-24.57l-1.3.3C279.13,385.46,285.35,410.8,309.19,410.8Z" style="fill:#37474f"></path><rect x="395.22" y="214.29" width="6.75" height="235.42" transform="translate(709.33 747.39) rotate(-166.59)" style="fill:#37474f"></rect><rect x="419.91" y="217.3" width="8.58" height="14.58" transform="translate(784.75 541.44) rotate(-166.59)" style="fill:#263238"></rect><rect x="423.31" y="179.61" width="6.75" height="69.23" transform="translate(734.01 -151.15) rotate(103.41)" style="fill:#37474f"></rect><polygon points="394.27 178.64 393.79 202.91 461.13 218.96 471.65 197.09 458 193.83 454.83 199.7 456.32 193.43 453.78 192.83 450.59 202.28 452 192.4 420.35 184.86 419.2 189.69 418.96 184.53 407.55 181.81 406.03 188.2 405.04 181.21 394.27 178.64" style="fill:#5FDDAC"></polygon><rect x="364.13" y="215.11" width="6.75" height="235.42" transform="translate(789.1 593.72) rotate(169.59)" style="fill:#37474f"></rect><rect x="343.25" y="216.93" width="8.58" height="14.58" transform="translate(729.89 381.93) rotate(169.59)" style="fill:#263238"></rect><path d="M308.77,246.79c3.88,8.93,9.11,21.8,15.18,27.37,1.78,1.62,8.58-.39,12.87-5.73L336,245.32c.11,1.69.37,3.94.84,6.73a117.16,117.16,0,0,1,1.09,14.81,12.27,12.27,0,0,0,.88-1.54c1.89-3.89-1.8-21.27-.44-32.26,1.3-10.57,7.68-14.84,7.68-14.84s7.21,2.23,11.1-2c0,0,4.4-4.77,3-10.59-2.08-8.74-11.37-12.09-17.83-14.09-7.48-2.31-28.71,5.15-33.55,18.87S304.9,237.85,308.77,246.79Z" style="fill:#dbdbdb"></path><path d="M317.82,273.28l1.33-.16c0-.09-.31-2.53-5.08-11.33-4.64-8.59-7.82-27.1-7.11-33.4l-1.33-.15c-.73,6.46,2.52,25.41,7.27,34.19C317.46,270.85,317.81,273.18,317.82,273.28Z" style="fill:#dbdbdb"></path><path d="M342.49,259.58l1.24-.47c-2.26-5.93-5.25-24.34-4.44-33.46.84-9.3.37-11.66.35-11.75l-1.31.27s.44,2.38-.37,11.36C337.13,234.81,340.18,253.54,342.49,259.58Z" style="fill:#dbdbdb"></path><path d="M346,218.22c-4.42.47-10.24,1-12.7,5.28-2.07,4.32-2.58,9-3.31,13.66-.47,4.63-1.36,9.36-.67,14a131.94,131.94,0,0,0,2.64,13.7c-.47-4.11-1.3-9.76-1.62-13.81-.42-4.6.47-9.15,1-13.71.66-4.48,1.18-9.22,2.9-13.38.89-2.13,3.1-3.09,5.12-3.92a34.24,34.24,0,0,1,6.67-1.82Z" style="fill:#c7c7c7"></path><path d="M333.77,191.72c-6.58,3.2-14.07,7-17.62,13.84a55.52,55.52,0,0,0-4,13c-.94,5.95-2.13,12.12-.79,18.1a94.07,94.07,0,0,0,5.6,17.16,130.77,130.77,0,0,1-4.59-17.35,29.23,29.23,0,0,1-.22-8.81,89.83,89.83,0,0,1,3.44-17.51c2.3-9,10.6-14.07,18.18-18.46Z" style="fill:#c7c7c7"></path><path d="M315.53,228.32c-.36,16.22,6.78,31.57,15.8,44.69-.93-1.76-1.87-3.52-2.74-5.32-6.33-12.39-11.77-25.39-13.06-39.37Z" style="fill:#c7c7c7"></path><path d="M360.15,205.6c-6-5.36-15.15-8.6-22.87-5.12-5.45,2.56-11.17,6.43-13.28,12.29a33.47,33.47,0,0,0-1.46,5.9,43.66,43.66,0,0,1,2.07-5.67c2.35-5.36,8.09-8.88,13.19-11.3,7.45-3.34,15.89-.44,22.35,3.9Z" style="fill:#c7c7c7"></path><rect x="343.13" y="246.52" width="111.48" height="15.39" transform="translate(797.74 508.43) rotate(180)" style="fill:#5FDDAC"></rect><polygon points="349.24 261.91 448.5 261.91 443.16 446.02 354.58 446.02 349.24 261.91" style="fill:#5FDDAC"></polygon><polygon points="355.82 261.91 361.17 446.02 375.17 446.02 370.65 261.91 355.82 261.91" style="fill:#fff;opacity:0.2"></polygon><polygon points="448.5 261.91 448.28 269.58 349.35 265.75 349.24 261.91 448.5 261.91" style="opacity:0.1"></polygon><polygon points="354.58 446.02 354.37 438.76 443.27 442.16 443.16 446.02 354.58 446.02" style="opacity:0.1"></polygon><rect x="344.8" y="280.86" width="107.23" height="7.7" transform="translate(796.84 569.41) rotate(180)" style="fill:#5FDDAC"></rect><rect x="344.8" y="280.86" width="107.23" height="7.7" transform="translate(796.84 569.41) rotate(180)" style="opacity:0.30000000000000004"></rect><rect x="283.09" y="291.42" width="61.71" height="7.7" transform="translate(627.89 590.54) rotate(180)" style="fill:#5FDDAC"></rect><rect x="283.09" y="291.42" width="61.71" height="7.7" transform="translate(627.89 590.54) rotate(180)" style="opacity:0.30000000000000004"></rect><rect x="283.09" y="359.59" width="61.71" height="7.7" transform="translate(627.89 726.88) rotate(180)" style="fill:#5FDDAC"></rect><rect x="283.09" y="359.59" width="61.71" height="7.7" transform="translate(627.89 726.88) rotate(180)" style="opacity:0.30000000000000004"></rect><rect x="266.07" y="359.59" width="165.16" height="7.7" transform="translate(712.09 14.79) rotate(90)" style="fill:#5FDDAC"></rect><rect x="266.07" y="359.59" width="165.16" height="7.7" transform="translate(712.09 14.79) rotate(90)" style="opacity:0.30000000000000004"></rect><rect x="280.43" y="446.02" width="175.88" height="10.36" transform="translate(736.73 902.4) rotate(180)" style="fill:#5FDDAC"></rect><rect x="280.43" y="446.02" width="175.88" height="10.36" transform="translate(736.73 902.4) rotate(180)" style="opacity:0.30000000000000004"></rect><circle cx="420.78" cy="456.38" r="17.46" style="fill:#5FDDAC"></circle><circle cx="420.78" cy="456.38" r="17.46" style="opacity:0.4"></circle><circle cx="420.78" cy="456.38" r="9.31" transform="translate(-97.34 114.48) rotate(-13.9)" style="opacity:0.4"></circle><circle cx="304.1" cy="456.38" r="17.46" style="fill:#5FDDAC"></circle><circle cx="304.1" cy="456.38" r="17.46" style="opacity:0.4"></circle><circle cx="304.1" cy="456.38" r="9.31" transform="translate(-233.64 348.71) rotate(-45)" style="opacity:0.4"></circle><path d="M294.59,275.83h0a1.07,1.07,0,0,0-1.07,1.07v10.51h2.14V276.9A1.07,1.07,0,0,0,294.59,275.83Z" style="fill:#ebebeb"></path><path d="M297.15,275.83h0a1.07,1.07,0,0,0-1.07,1.07v10.51h2.14V276.9A1.07,1.07,0,0,0,297.15,275.83Z" style="fill:#ebebeb"></path><path d="M299.71,275.83h0a1.07,1.07,0,0,0-1.07,1.07v10.51h2.14V276.9A1.07,1.07,0,0,0,299.71,275.83Z" style="fill:#ebebeb"></path><path d="M302.26,275.83h0a1.07,1.07,0,0,0-1.07,1.07v10.51h2.14V276.9A1.07,1.07,0,0,0,302.26,275.83Z" style="fill:#ebebeb"></path><path d="M304.82,275.83h0a1.07,1.07,0,0,0-1.07,1.07v10.51h2.14V276.9A1.07,1.07,0,0,0,304.82,275.83Z" style="fill:#ebebeb"></path><path d="M307.38,275.83h0a1.07,1.07,0,0,0-1.07,1.07v10.51h2.14V276.9A1.07,1.07,0,0,0,307.38,275.83Z" style="fill:#ebebeb"></path><path d="M309.94,275.83h0a1.07,1.07,0,0,0-1.07,1.07v10.51H311V276.9A1.07,1.07,0,0,0,309.94,275.83Z" style="fill:#ebebeb"></path><path d="M312.49,275.83h0a1.07,1.07,0,0,0-1.07,1.07v10.51h2.14V276.9A1.07,1.07,0,0,0,312.49,275.83Z" style="fill:#ebebeb"></path><path d="M315.05,275.83h0A1.07,1.07,0,0,0,314,276.9v10.51h2.14V276.9A1.07,1.07,0,0,0,315.05,275.83Z" style="fill:#ebebeb"></path><path d="M317.61,275.83h0a1.07,1.07,0,0,0-1.07,1.07v10.51h2.14V276.9A1.07,1.07,0,0,0,317.61,275.83Z" style="fill:#ebebeb"></path><path d="M320.17,275.83h0a1.06,1.06,0,0,0-1.07,1.07v10.51h2.13V276.9A1.06,1.06,0,0,0,320.17,275.83Z" style="fill:#ebebeb"></path><path d="M322.72,275.83h0a1.07,1.07,0,0,0-1.07,1.07v10.51h2.14V276.9A1.07,1.07,0,0,0,322.72,275.83Z" style="fill:#ebebeb"></path><path d="M325.28,275.83h0a1.07,1.07,0,0,0-1.07,1.07v10.51h2.14V276.9A1.07,1.07,0,0,0,325.28,275.83Z" style="fill:#ebebeb"></path><rect x="292.2" y="283.4" width="35.72" height="8.02" style="fill:#5FDDAC"></rect><rect x="322.98" y="302.49" width="9.89" height="11.9" transform="translate(655.84 616.89) rotate(180)" style="fill:#5FDDAC"></rect><path d="M310.38,359.59h20.84a4.33,4.33,0,0,0,4.31-4.33v-41a4.34,4.34,0,0,0-2.66-4,3.93,3.93,0,0,0-1.65-.34h-6.43a12.3,12.3,0,0,0-1.82.15,11.38,11.38,0,0,0-9.39,8.93l-7.45,35.36A4.34,4.34,0,0,0,310.38,359.59Zm11-34-3.09,14.12a3.08,3.08,0,0,1-3.63,2.33,3,3,0,0,1-2.31-3.6l3.13-14.15a3,3,0,0,1,2.94-2.38,3,3,0,0,1,.66.07A3,3,0,0,1,321.35,325.59Z" style="fill:#37474f"></path><path d="M329.83,315.78H326a2.37,2.37,0,0,0-2.29,3.05,15.12,15.12,0,0,1,.29,7.32c-1.28,7.3-3.06,16.38-3.65,17.57-.49,1-2.83,2.85-6.44,1.86a2.41,2.41,0,0,0-3,1.72l-.81,3.34a2.39,2.39,0,0,0,2.31,2.95h17.39a2.39,2.39,0,0,0,2.39-2.39v-33A2.39,2.39,0,0,0,329.83,315.78Z" style="fill:#fff"></path><path d="M309.05,359.59s6.05-16.3,3.64-24.19c-1.61-5.29-9.56-8.82-9.56-14.43v-6.12h-6.88s-11.94,24.92-2,44.74Z" style="fill:#5FDDAC"></path><rect x="296.05" y="315.88" width="8.58" height="2.07" rx="0.47" transform="translate(600.69 633.84) rotate(180)" style="fill:#5FDDAC"></rect><rect x="296.05" y="317.95" width="8.58" height="2.07" rx="0.47" transform="translate(600.69 637.97) rotate(180)" style="fill:#5FDDAC"></rect><rect x="296.05" y="320.02" width="8.58" height="2.07" rx="0.47" transform="translate(600.69 642.1) rotate(180)" style="fill:#5FDDAC"></rect><path d="M308,305.93a5,5,0,0,0-1,3.09c.15,1.57.87,3,.63,3.14a4.84,4.84,0,0,1-2.64-3.31,5,5,0,0,1,.19-2.92Z" style="fill:#263238"></path><path d="M295.57,313.74v-4.23a2.33,2.33,0,0,0-2.3-1.95c-2.54,0-5.63,3-5.77,2s1.58-8.68,7.59-8.68h14.2v5.06H306.4c-.64,0-2.74.39-2.74,3.48v4.33Z" style="fill:#dbdbdb"></path><rect x="294.71" y="311.14" width="9.79" height="4.58" rx="0.49" transform="translate(599.22 626.85) rotate(180)" style="fill:#263238"></rect><polygon points="309.29 300.17 309.29 306.63 311.94 306.06 311.94 300.74 309.29 300.17" style="fill:#5FDDAC"></polygon><path d="M299.59,325.48c-4.32,0-6.87,6.15-6.87,14.5a55.22,55.22,0,0,0,1.47,12.41,2.84,2.84,0,0,0,2.77,2.19h9.21a2.84,2.84,0,0,0,2.75-2.1c1.15-4.31,3.32-14,.68-17.75-3.53-5-6.55-6.18-7.83-9.25Z" style="fill:#fff"></path></g><g id="freepik--Floor--inject-5"><path d="M52.81,473.77c206.42-.61,438-.61,644.38,0-206.42.62-438,.61-644.38,0Z" style="fill:#263238"></path></g><g id="freepik--Chair--inject-5"><polygon points="154.92 339.19 157.8 356.44 177.29 473.85 180.43 473.85 166.26 356.44 164.16 339.19 154.92 339.19" style="fill:#5FDDAC"></polygon><g style="opacity:0.30000000000000004"><polygon points="154.92 339.19 157.8 356.44 177.29 473.85 180.43 473.85 166.26 356.44 164.16 339.19 154.92 339.19"></polygon></g><polygon points="164.16 339.19 154.92 339.19 157.8 356.44 166.26 356.44 164.16 339.19" style="opacity:0.1"></polygon><polygon points="93.7 473.85 96.84 473.85 116.34 356.44 119.22 339.19 109.97 339.19 107.88 356.44 93.7 473.85" style="fill:#5FDDAC"></polygon><g style="opacity:0.30000000000000004"><polygon points="93.7 473.85 96.84 473.85 116.34 356.44 119.22 339.19 109.97 339.19 107.88 356.44 93.7 473.85"></polygon></g><polygon points="109.97 339.19 107.88 356.44 116.34 356.44 119.22 339.19 109.97 339.19" style="opacity:0.1"></polygon><polygon points="56.19 473.85 59.34 473.85 78.83 356.44 81.71 339.19 72.46 339.19 70.37 356.44 56.19 473.85" style="fill:#5FDDAC"></polygon><g style="opacity:0.30000000000000004"><polygon points="56.19 473.85 59.34 473.85 78.83 356.44 81.71 339.19 72.46 339.19 70.37 356.44 56.19 473.85"></polygon></g><polygon points="70.37 356.44 78.83 356.44 81.71 339.19 72.46 339.19 70.37 356.44" style="opacity:0.1"></polygon><polygon points="61.18 347.3 183.06 347.3 183.06 332.25 129.59 332.25 111.61 227.69 66.62 227.69 61.18 347.3" style="fill:#5FDDAC"></polygon><polygon points="61.18 347.3 183.06 347.3 183.06 332.25 129.59 332.25 111.61 227.69 66.62 227.69 61.18 347.3" style="opacity:0.30000000000000004"></polygon><polygon points="61.18 347.3 68.96 347.3 74.04 227.69 66.62 227.69 61.18 347.3" style="opacity:0.1"></polygon></g><g id="freepik--Table--inject-5"><rect x="87.02" y="276.89" width="191.06" height="4.99" style="fill:#5FDDAC"></rect><rect x="87.02" y="276.89" width="191.06" height="4.99" style="opacity:0.5"></rect><rect x="91.24" y="394.53" width="182.62" height="4.99" style="fill:#5FDDAC"></rect><rect x="91.24" y="394.53" width="182.62" height="4.99" style="opacity:0.5"></rect><rect x="96.02" y="281.88" width="173.05" height="10.39" style="fill:#5FDDAC"></rect><rect x="96.02" y="281.88" width="173.05" height="10.39" style="opacity:0.6000000000000001"></rect><polygon points="81.11 473.85 77.44 473.85 103.3 292.27 113.47 292.27 81.11 473.85" style="fill:#5FDDAC"></polygon><polygon points="81.11 473.85 77.44 473.85 103.3 292.27 113.47 292.27 81.11 473.85" style="opacity:0.5"></polygon><polygon points="283.99 473.85 287.66 473.85 261.8 292.27 251.62 292.27 283.99 473.85" style="fill:#5FDDAC"></polygon><polygon points="283.99 473.85 287.66 473.85 261.8 292.27 251.62 292.27 283.99 473.85" style="opacity:0.5"></polygon><polygon points="266.41 276.89 213.06 276.89 213.06 273.47 258.8 271.12 243.24 215.28 236.7 215.28 236.7 209.51 247.63 209.51 266.41 276.89" style="fill:#dbdbdb"></polygon><polygon points="242.41 209.51 240.35 215.29 236.7 215.29 236.7 209.51 242.41 209.51" style="fill:#c7c7c7"></polygon><rect x="223.04" y="149.98" width="5.96" height="113.22" transform="translate(40.49 -37.02) rotate(10.28)" style="fill:#c7c7c7"></rect><polygon points="245.18 179.25 234.36 238.88 218.84 262.83 239.05 151.42 245.18 179.25" style="fill:#dbdbdb"></polygon><polygon points="203.11 276.89 203.11 271.42 154.93 273.8 154.93 276.89 203.11 276.89" style="fill:#dbdbdb"></polygon></g><g id="freepik--trash-bin--inject-5"><polygon points="146.23 386.5 143.71 389.04 143.62 388.12 143.62 388.1 145.23 386.5 146.23 386.5" style="fill:#263238"></polygon><polygon points="155.77 386.5 147.21 395.12 144.44 397.86 144.4 397.29 144.4 397.27 144.37 396.95 146.7 394.61 154.85 386.5 155.77 386.5" style="fill:#263238"></polygon><polygon points="165.32 386.5 151.99 399.92 145.2 406.67 145.19 406.54 145.13 405.79 151.48 399.4 164.46 386.5 165.32 386.5" style="fill:#263238"></polygon><polygon points="174.88 386.5 156.79 404.71 145.95 415.48 145.88 414.64 156.27 404.19 174.06 386.5 174.88 386.5" style="fill:#263238"></polygon><path d="M184.39,386.51c-1.29,1.33-2.59,2.64-3.89,4l-18.92,19L146.7,424.3l-.06-.79L161.06,409l19-18.9q1.8-1.8,3.62-3.57Z" style="fill:#263238"></path><path d="M193.9,386.51l-8.62,8.75-18.9,19-18.94,18.8-.06-.73,18.47-18.58,19-18.92q4.23-4.19,8.48-8.35Z" style="fill:#263238"></path><path d="M203.35,386.51q-6.6,6.8-13.29,13.54l-18.9,19-19,18.91c-1.31,1.31-2.62,2.59-3.94,3.88l-.06-.61c1.19-1.23,2.4-2.45,3.6-3.66l18.92-19,19-18.9q6.68-6.6,13.4-13.15Z" style="fill:#263238"></path><path d="M212.67,386.61v.06q-8.86,9.12-17.81,18.17l-18.91,19-19,18.91-8,7.86-.05-.49q3.8-3.88,7.64-7.77l18.9-19,19-18.91Q203.52,395.49,212.67,386.61Z" style="fill:#263238"></path><path d="M211.81,396.92v0l0,.32v0q-6.06,6.19-12.13,12.35l-18.91,19-19,18.92c-4,3.95-8,7.9-12,11.82v0l0-.3q5.82-6,11.67-11.89l18.91-19,19-18.92Q205.51,403.07,211.81,396.92Z" style="fill:#263238"></path><path d="M210.93,407.25l-.06.65-6.42,6.52-18.92,19-19,18.9q-7.77,7.68-15.61,15.31h-.18q7.64-7.91,15.38-15.7l18.92-19L204,414Z" style="fill:#263238"></path><path d="M210.05,417.61l-.07.84-.75.76-18.9,19-19,18.91q-5.32,5.28-10.69,10.52h-.43q5.36-5.48,10.73-10.92l18.9-19,19-18.92C209.25,418.42,209.64,418,210.05,417.61Z" style="fill:#263238"></path><path d="M209.16,428l-.07.93-14,14.06-19,18.92-5.81,5.72h-.62c2-2.05,4-4.09,6-6.12l18.92-19Z" style="fill:#263238"></path><path d="M208.28,438.46l-.09,1-8.29,8.36-19,18.9c-.33.31-.63.63-.95.94h-.77c.44-.44.88-.9,1.32-1.33l18.91-19Z" style="fill:#263238"></path><polygon points="207.39 448.89 207.3 449.99 204.7 452.61 189.54 467.67 188.7 467.67 204.17 452.1 207.39 448.89" style="fill:#263238"></polygon><polygon points="206.51 459.36 206.51 459.4 206.42 460.45 199.17 467.67 198.26 467.67 206.51 459.36" style="fill:#263238"></polygon><polygon points="212.55 388.1 212.47 389.05 209.95 386.5 210.94 386.5 212.55 388.1" style="fill:#263238"></polygon><polygon points="211.81 396.95 211.72 397.86 208.97 395.12 200.4 386.5 201.33 386.5 209.48 394.61 211.81 396.95" style="fill:#263238"></polygon><polygon points="211.05 405.79 210.99 406.54 210.97 406.68 204.17 399.92 190.84 386.5 191.72 386.5 204.7 399.4 211.05 405.79" style="fill:#263238"></polygon><polygon points="210.3 414.66 210.23 415.49 199.38 404.71 181.3 386.5 182.1 386.5 199.9 404.19 210.3 414.66" style="fill:#263238"></polygon><path d="M209.55,423.52l-.07.78L194.6,409.51l-18.92-19c-1.3-1.32-2.6-2.63-3.89-4h.66c1.21,1.18,2.43,2.37,3.63,3.57l19,18.9Z" style="fill:#263238"></path><path d="M208.79,432.36l-.06.73-18.93-18.8-18.9-19-8.62-8.75h.53c2.82,2.78,5.66,5.56,8.48,8.35l19,18.92Z" style="fill:#263238"></path><path d="M208.05,441.26l-.06.63c-1.32-1.31-2.64-2.59-4-3.9l-19-18.91-18.92-19q-6.66-6.75-13.27-13.54h.28q6.7,6.54,13.4,13.15l19,18.9,18.92,19Q206.25,439.42,208.05,441.26Z" style="fill:#263238"></path><path d="M207.29,450.15l0,.49c-2.68-2.59-5.34-5.23-8-7.86l-19-18.91-18.91-19q-9-9-17.8-18.17v-.06q9.15,8.88,18.2,17.83l19,18.91,18.91,19Q203.49,446.27,207.29,450.15Z" style="fill:#263238"></path><path d="M206.54,459.06l0,.34q-6.06-5.88-12-11.82l-19-18.92-18.9-19c-4.05-4.1-8.11-8.22-12.13-12.35v0l0-.35q6.3,6.13,12.55,12.31l19,18.92,18.91,19Q200.73,453.1,206.54,459.06Z" style="fill:#263238"></path><path d="M205.46,467.67h-.18q-7.83-7.62-15.61-15.31l-19-18.9-18.92-19c-2.15-2.18-4.29-4.34-6.42-6.52l-.06-.65c2.3,2.26,4.59,4.51,6.88,6.78l19,18.9,18.9,19Q197.8,459.79,205.46,467.67Z" style="fill:#263238"></path><path d="M196,467.67h-.43q-5.37-5.25-10.69-10.52l-19-18.91-18.9-19-.75-.76-.07-.82c.41.38.8.79,1.21,1.18l19,18.92,18.9,19Q190.67,462.2,196,467.67Z" style="fill:#263238"></path><path d="M186.51,467.67h-.6q-2.92-2.85-5.82-5.72l-19-18.92-14-14L147,428l14.56,14.48,18.92,19C182.5,463.58,184.52,465.62,186.51,467.67Z" style="fill:#263238"></path><path d="M177,467.67h-.76l-.95-.94-19-18.9L148,439.49l-.08-1,8.89,8.84,18.91,19C176.14,466.77,176.57,467.23,177,467.67Z" style="fill:#263238"></path><polygon points="167.47 467.67 166.64 467.67 151.48 452.61 148.88 449.99 148.88 449.98 148.77 448.91 151.99 452.1 167.47 467.67" style="fill:#263238"></polygon><polygon points="157.92 467.67 157.01 467.67 149.75 460.45 149.67 459.36 157.92 467.67" style="fill:#263238"></polygon><rect x="146.47" y="386.5" width="1.46" height="81.34" transform="translate(-38.2 15.14) rotate(-5.21)" style="fill:#263238"></rect><rect x="168.49" y="426.44" width="81.34" height="1.46" transform="translate(-235.4 596.25) rotate(-84.74)" style="fill:#263238"></rect><rect x="139.23" y="377.65" width="77.61" height="13.14" style="fill:#263238"></rect><rect x="147.23" y="460.64" width="61.6" height="13.14" style="fill:#263238"></rect></g><g id="freepik--character-2--inject-5"><path d="M558.31,123.08c16.18,5.73,55.71,25.62,63.79,37.27,5.06,7.28-17.8,32.27-38.19,47.66-4.25,3.21-25.48-15.5-26.89-21.14-.95-3.84,29.26-19.28,27.64-21.93-3-4.9-24.87-22.48-35.36-34.26C543.44,124.1,548.24,119.51,558.31,123.08Z" style="fill:#d3766a"></path><path d="M580.4,164.42l25.37-19.82s-24.84-15.48-45-21.27c-15.77-4.52-18.56.36-9.24,10.63S580.4,164.42,580.4,164.42Z" style="fill:#5FDDAC"></path><path d="M595.8,152.38l-15.4,12S560.79,144.21,551.48,134c-7.52-8.3-7.15-13.08,1.58-12.23Z" style="opacity:0.1"></path><polygon points="580.15 167.93 609.14 146.23 607.73 145.81 608.16 143.45 607.1 143.13 605.19 140.7 576.98 163.38 578.46 163.83 578.47 165.95 579.87 166.19 580.15 167.93" style="fill:#5FDDAC"></polygon><polygon points="580.15 167.93 609.14 146.23 607.73 145.81 608.16 143.45 607.1 143.13 605.19 140.7 576.98 163.38 578.46 163.83 578.47 165.95 579.87 166.19 580.15 167.93" style="opacity:0.1"></polygon><path d="M616.45,396.28s.78,49.33.78,49.37c-.12,9.24-.39,17.34-.92,21.52a.17.17,0,0,1,0,.07,6.37,6.37,0,0,1-.72,2.84s0,.05-.05.06c-2.78,1.83-76.68,3-79.27,2.2s-.44-8.28,2.39-10.62,30.93-15.44,30.93-15.44l-.31-50Z" style="fill:#d3766a"></path><path d="M617.41,435.72s-.18,9.89-.18,9.93c-.12,9.24-.39,17.34-.92,21.52a.17.17,0,0,1,0,.07,12.19,12.19,0,0,1-.72,2.84s0,.05-.05.06c-2.78,1.83-76.68,3-79.27,2.2s-.44-8.28,2.39-10.62,30.93-15.44,30.93-15.44l0-10.07Z" style="fill:#fff"></path><path d="M565.06,446.26c4.92-.76,10.89.18,14.53,3.79.14.14-.06.33-.22.28a68.82,68.82,0,0,0-14.31-3.45A.31.31,0,0,1,565.06,446.26Z" style="fill:#263238"></path><path d="M561.45,448.28c4.93-.76,10.9.18,14.54,3.79.14.14-.06.34-.22.28a69.55,69.55,0,0,0-14.32-3.45A.31.31,0,0,1,561.45,448.28Z" style="fill:#263238"></path><path d="M557.85,450.3c4.93-.76,10.9.18,14.53,3.79.14.14-.06.34-.21.28a69.7,69.7,0,0,0-14.32-3.45A.31.31,0,0,1,557.85,450.3Z" style="fill:#263238"></path><path d="M536.26,472.34c2.59.83,76.46,1,79.24-.85,1.07-.68,1.56-12.81,1.73-25.84v-.41l-47.68.23,0,.81s-28.08,13.11-30.93,15.45S533.66,471.52,536.26,472.34Z" style="fill:#a6a6a6"></path><path d="M537.05,469.46c12.45-.51,62.72-1.38,75.07-.93.1,0,.1.07,0,.08-12.33.77-62.61,1.23-75.07,1.05C536.79,469.66,536.79,469.47,537.05,469.46Z" style="fill:#263238"></path><path d="M573.33,445.6l-27.74,27.15a89.12,89.12,0,0,1-9.33-.41c-2.6-.82-.44-8.28,2.39-10.61s30.93-15.45,30.93-15.45l0-.8,3.63,0Z" style="opacity:0.1"></path><path d="M618.94,445l-53.88.64s-1.24-91.19-1.19-120.22c.06-33.16,5-132.1,5-132.1l40,.39a127,127,0,0,1,8.7,31.23c.64,4.62-.09,18.09-1.68,24.24l-1.43,80.59Z" style="fill:#37474f"></path><path d="M572.48,387.44c-.48-14.4-.76-32.08-1-46.48q-.76-43.21.22-86.44c.37-16.17,1-32.32,1.6-48.48,0-.18-.27-.18-.29,0-1.81,28.91-2.68,57.89-3,86.85s0,60.92,1.1,89.71c.64,16.17,1.47,32.34,2.83,48.46a.11.11,0,0,0,.22,0C573.64,416.52,573,402,572.48,387.44Z" style="fill:#263238"></path><path d="M572.15,435.26c10.74-.73,21.55-.75,32.31-.54,3,.06,6.08.14,9.12.29a.09.09,0,0,1,0,.18c-10.74.65-21.54.79-32.3.57-3-.06-6.09-.15-9.12-.32A.09.09,0,0,1,572.15,435.26Z" style="fill:#263238"></path><path d="M543.27,399.93s-.18,46.39-.18,46.43c-.12,9.24-.39,17.34-.92,21.52a.2.2,0,0,1,0,.07,6.37,6.37,0,0,1-.72,2.84s0,0-.05.06c-2.78,1.83-76.68,3-79.27,2.2s-.44-8.28,2.39-10.62S495.44,447,495.44,447l2.72-46.93Z" style="fill:#d3766a"></path><path d="M543.27,436.43s-.18,9.89-.18,9.93c-.12,9.24-.39,17.34-.92,21.52a.2.2,0,0,1,0,.07,12.77,12.77,0,0,1-.72,2.84s0,0-.05.06c-2.78,1.83-76.68,3-79.27,2.2s-.44-8.28,2.39-10.62S495.44,447,495.44,447l.05-10.07Z" style="fill:#fff"></path><path d="M490.91,447c4.93-.76,10.9.18,14.54,3.79.14.14-.06.33-.22.28a68.91,68.91,0,0,0-14.32-3.45A.31.31,0,0,1,490.91,447Z" style="fill:#263238"></path><path d="M487.31,449c4.93-.76,10.9.18,14.53,3.79.15.14-.06.34-.21.28a69.55,69.55,0,0,0-14.32-3.45A.31.31,0,0,1,487.31,449Z" style="fill:#263238"></path><path d="M483.71,451c4.93-.76,10.9.18,14.53,3.79.14.14-.06.34-.22.28a69.46,69.46,0,0,0-14.31-3.45A.31.31,0,0,1,483.71,451Z" style="fill:#263238"></path><path d="M462.12,473.05c2.59.83,76.74,1.28,79.53-.55,1.07-.68,1.26-13.11,1.44-26.14V446l-47.68.23,0,.81s-28.08,13.11-30.93,15.45S459.52,472.23,462.12,473.05Z" style="fill:#a6a6a6"></path><path d="M462.9,470c12.46-.44,62.73-1,75.08-.49.1,0,.1.07,0,.08-12.34.7-62.61.86-75.07.61C462.64,470.14,462.64,470,462.9,470Z" style="fill:#263238"></path><path d="M585.18,244.67s-29.54,70-32.16,81.13c-2.47,10.55-6.84,120.56-6.84,120.56L493.52,446s7.75-111.19,8.72-122.47c1.29-14.82,14.19-48.6,27.86-84.72,5.79-15.3,13.58-30.3,17.67-45.63l59.86.59s-.79,27-13.27,46.46C594.36,240.18,588.76,242.7,585.18,244.67Z" style="fill:#37474f"></path><path d="M498.38,436.08c10.75-.52,21.55-.33,32.31.08q4.56.16,9.11.46a.09.09,0,0,1,0,.17c-10.76.46-21.56.38-32.32,0-3-.12-6.08-.27-9.11-.49A.09.09,0,0,1,498.38,436.08Z" style="fill:#263238"></path><path d="M571.43,245.87a48.42,48.42,0,0,0,8.25-.67,78.89,78.89,0,0,0,8-2.13,64.52,64.52,0,0,1,7.84-1.21,27.18,27.18,0,0,0,7.7-2.21c.11-.05.21.12.09.18a47,47,0,0,1-7.39,3.11c-2.64.81-5.39.9-8.07,1.52a64.4,64.4,0,0,1-8.24,1.81,29.48,29.48,0,0,1-8.23-.22C571.29,246,571.33,245.87,571.43,245.87Z" style="fill:#263238"></path><path d="M566.28,289.55c.58-1.63,1.13-3.27,1.74-4.9,1.23-3.3,2.49-6.59,3.85-9.86,2.72-6.49,5.29-13,8.16-19.47,1.63-3.66,3.09-7.37,5-10.95,0-.09.21-.05.19,0-1,3.35-2.34,6.63-3.56,9.93s-2.53,6.58-3.84,9.86c-2.59,6.52-5.14,13.05-8,19.52-.8,1.81-1.61,3.61-2.47,5.41s-1.57,3.73-2.61,5.52c-.06.09-.24.05-.21,0A52.72,52.72,0,0,1,566.28,289.55Z" style="fill:#263238"></path><path d="M555.31,196.8c0-.18.19-.06.18.07a59.36,59.36,0,0,1-3,14.63l-5.08,14.1-10.2,28.19C529.65,275,521.78,296,514.77,317.36a27,27,0,0,0-1.32,7.25c-2.41,27.11-5.94,76.82-8.24,104.53,0,.1-.26.22-.26,0,0-.43,2-29.88,2-29.88,1.24-17.79,2.85-42.32,4.27-59.81.39-5,.78-10,1.24-14.94a28.66,28.66,0,0,1,1.33-7.46c9.93-30,22.15-61.9,33.17-91.63l5.33-14c1.82-4.65,2.51-9.67,3.06-14.61Z" style="fill:#263238"></path><path d="M546.64,138.14c2.87-.93,6.75-8.42,7.37-13.73,0-.36-1.69-3.32-3.63-7-1.16-2.24-2.4-4.77-3.37-7.15L533.52,120a40.89,40.89,0,0,1,5.16,8.57,5.25,5.25,0,0,1,.29,1s0,.11,0,.18C539.47,131.71,542.14,139.61,546.64,138.14Z" style="fill:#d3766a"></path><path d="M539,129.72a9.78,9.78,0,0,0,1.57-.54c8.23-3.55,6.44-14.55,5.56-18.32L533.52,120a40.79,40.79,0,0,1,5.16,8.58,5,5,0,0,1,.29,1S539,129.66,539,129.72Z" style="fill:#263238"></path><path d="M522.09,92.6a8,8,0,0,0-4.09,8.34c.9,5.92,4.38,10.61,5,10.74S522.09,92.6,522.09,92.6Z" style="fill:#263238"></path><path d="M544.7,92.22c3.22,5,4.76,21.8,1.83,26.45-4.25,6.74-13.42,9.83-19.71,4.22-6.09-5.45-7.71-27.31-4.23-31.76C527.72,84.57,539.94,84.77,544.7,92.22Z" style="fill:#d3766a"></path><path d="M548,107.24c.23,4.82-.18,9.34-1.5,11.42-4.24,6.74-13.42,9.84-19.71,4.23-4.26-3.81-6.33-15.67-6-24h0c.15-3.55.73-6.45,1.77-7.78,5.13-6.56,17.35-6.36,22.11,1.09C546.48,95,547.75,101.34,548,107.24Z" style="fill:#d3766a"></path><path d="M531.69,107.45s.09,0,.09.1c.09,1.13.37,2.41,1.43,2.67,0,0,0,.07,0,.07C531.94,110.24,531.58,108.54,531.69,107.45Z" style="fill:#263238"></path><path d="M532.57,106.17c1.8-.32,2.32,3.3.65,3.6S531.06,106.45,532.57,106.17Z" style="fill:#263238"></path><path d="M525.12,108.12s-.08.07-.08.12c.2,1.11.24,2.42-.72,2.94,0,0,0,.07,0,.06C525.55,110.89,525.48,109.15,525.12,108.12Z" style="fill:#263238"></path><path d="M523.94,107.1c-1.82.12-1.44,3.76.25,3.64S525.47,107,523.94,107.1Z" style="fill:#263238"></path><path d="M533.74,104.41a12.1,12.1,0,0,1-1.48-.29,2.43,2.43,0,0,1-1.44-.58.77.77,0,0,1,0-1,1.92,1.92,0,0,1,1.88-.47,2.81,2.81,0,0,1,1.78,1A.82.82,0,0,1,533.74,104.41Z" style="fill:#263238"></path><path d="M522.42,105.69a14,14,0,0,0,1.38-.59,2.37,2.37,0,0,0,1.3-.86.77.77,0,0,0-.18-.92,1.9,1.9,0,0,0-1.94-.09,2.82,2.82,0,0,0-1.55,1.31A.83.83,0,0,0,522.42,105.69Z" style="fill:#263238"></path><path d="M534,117.56c-.23.3-.44.7-.85.79a3.08,3.08,0,0,1-1.24-.1s-.07,0,0,.06a1.51,1.51,0,0,0,1.51.4,1.21,1.21,0,0,0,.74-1.11C534.13,117.53,534,117.52,534,117.56Z" style="fill:#263238"></path><path d="M532.34,114.37a3.85,3.85,0,0,1-2.3,2.07,4.89,4.89,0,0,1-1.37.26,1.15,1.15,0,0,1-.26,0h-.26a.29.29,0,0,1-.26-.22h0a.48.48,0,0,1,0-.12h0v-.1c-.15-.86-.25-2.19-.25-2.19-.29.2-1.8,1.16-1.84.71A58.58,58.58,0,0,1,525.6,103a.11.11,0,0,1,.21,0c.44,3.6.25,7.27.64,10.9a6.87,6.87,0,0,1,1.73-.81c.12,0,.15,2.56.25,2.94a.1.1,0,0,0,0,0,5.37,5.37,0,0,0,3.77-1.8C532.29,114.21,532.39,114.27,532.34,114.37Z" style="fill:#263238"></path><path d="M529.12,116.19a4.54,4.54,0,0,0,2,1.14,2,2,0,0,0,1.25-.1c.86-.36.77-1.19.5-1.87a4.52,4.52,0,0,0-.55-1A5.92,5.92,0,0,1,529.12,116.19Z" style="fill:#263238"></path><path d="M531.13,117.33a2,2,0,0,0,1.25-.1c.86-.36.77-1.19.5-1.87A2.14,2.14,0,0,0,531.13,117.33Z" style="fill:#ff9abb"></path><path d="M547.07,107.44c-1.92.85-3.76-4.38-4.67-6.62-.81-2-2.22-8.34-2.36-8.77s-8,6.73-13.25,5.83a8,8,0,0,1-6.35-6c-.32-2.1,12.95-11.94,23.74-2.33C548.4,93.32,549.34,106.45,547.07,107.44Z" style="fill:#263238"></path><path d="M523.09,97.24A16.6,16.6,0,0,0,528,98.39a11.52,11.52,0,0,0,5.33-1.49,17.33,17.33,0,0,0,4.43-3.37c1.14-1.18,2.11-2.56,3.35-3.64.31-.27.75.17.58.5a18.24,18.24,0,0,1-8.35,7.78,10.46,10.46,0,0,1-10.31-.89S523.06,97.23,523.09,97.24Z" style="fill:#263238"></path><path d="M518.65,93.41c1.82-.53,12.12-.68,16.82,1.1s13.21,8.07,13.65,8.4S550.91,86.2,537,83.71C521.92,81,518.65,93.41,518.65,93.41Z" style="fill:#5FDDAC"></path><path d="M548.29,102.25s-9.61-11.58-14.78-14.09S517,84.6,510.11,88c-5.34,2.64,8.28,9.07,8.28,9.07a3.78,3.78,0,0,1,2-2.73c3.35-1.5,9.85-.75,13.59.33C538.69,96,548.29,102.25,548.29,102.25Z" style="fill:#5FDDAC"></path><path d="M548.29,102.25s-9.61-11.58-14.78-14.09S517,84.6,510.11,88c-5.34,2.64,8.28,9.07,8.28,9.07a3.78,3.78,0,0,1,2-2.73c3.35-1.5,9.85-.75,13.59.33C538.69,96,548.29,102.25,548.29,102.25Z" style="opacity:0.2"></path><path d="M543.93,107.2s2.29-6.11,5-5.43,1.9,8.9-.6,10.64a2.9,2.9,0,0,1-4.15-.54Z" style="fill:#d3766a"></path><path d="M548.62,104.12s.06,0,0,.07c-1.73,1.29-2.29,3.34-2.52,5.39a1.59,1.59,0,0,1,2.21-1c.06,0,0,.11,0,.11a1.78,1.78,0,0,0-1.74,1.09,8.45,8.45,0,0,0-.52,1.78c0,.19-.38.18-.37,0v0C545,109,546,105.05,548.62,104.12Z" style="fill:#263238"></path><path d="M608.87,193.73l-64.16,9.15c-1.2-.68-11.94-53.44-6-71.83,1.49-4.6,11.41-10.93,16.93-9.19C575,128,609.21,192.9,608.87,193.73Z" style="fill:#5FDDAC"></path><path d="M544.71,202.88s-4.77-13.33-6.38-34.95c0,0,11.79-7.4,12.24-16.69s-10.71-22.94-10.71-22.94l2.68-2.53s7.36,8.73,8.05,8.76,11.26-4.11,11.26-4.53-6.05-7.88-6.05-7.88l3,.69s22,12.09,50.12,70.92Z" style="fill:#37474f"></path><path d="M585,398.63H570.7a22.41,22.41,0,0,1-22.38-22.38V269.51a16.4,16.4,0,0,0-16.38-16.38H504.73v-6h27.21a22.41,22.41,0,0,1,22.38,22.38V376.25a16.4,16.4,0,0,0,16.38,16.38H585Z" style="fill:#c7c7c7"></path><path d="M372.59,464.88l-9.06-4.24,91.81-196.11a33.81,33.81,0,0,1,30.5-19.4h25.94v10H485.84a23.78,23.78,0,0,0-21.45,13.64Z" style="fill:#263238"></path><rect x="324.59" y="464.46" width="89.3" height="9.31" style="fill:#37474f"></rect><rect x="385.83" y="464.46" width="28.06" height="9.31" style="fill:#263238"></rect><rect x="348.8" y="457.92" width="47.58" height="6.54" style="fill:#37474f"></rect><rect x="373.5" y="457.92" width="22.87" height="6.54" style="fill:#263238"></rect><circle cx="612.42" cy="463.45" r="10.39" transform="translate(-148.34 568.79) rotate(-45)" style="fill:#37474f"></circle><path d="M609,463.45a3.44,3.44,0,1,0,3.43-3.43A3.44,3.44,0,0,0,609,463.45Z" style="fill:#263238"></path><rect x="594.92" y="341.51" width="87.28" height="113.12" transform="translate(1277.12 796.14) rotate(180)" style="fill:#5FDDAC"></rect><rect x="604.51" y="341.51" width="19.19" height="113.12" transform="translate(1228.22 796.14) rotate(180)" style="fill:#fff;opacity:0.2"></rect><rect x="592.39" y="454.63" width="92.35" height="9.02" transform="translate(1277.12 918.29) rotate(180)" style="fill:#263238"></rect><rect x="592.39" y="356.27" width="92.35" height="13.27" transform="translate(1277.12 725.81) rotate(180)" style="fill:#263238"></rect><path d="M592.39,331.65h92.35a0,0,0,0,1,0,0v13.9a3.54,3.54,0,0,1-3.54,3.54H595.93a3.54,3.54,0,0,1-3.54-3.54v-13.9A0,0,0,0,1,592.39,331.65Z" transform="translate(1277.12 680.74) rotate(180)" style="fill:#263238"></path><circle cx="681.01" cy="454.71" r="19.14" style="fill:#37474f"></circle><path d="M706.14,455.46h-6c0-10.93-8.58-19.81-19.13-19.81s-19.13,8.88-19.13,19.81h-6c0-14.24,11.27-25.81,25.13-25.81S706.14,441.22,706.14,455.46Z" style="fill:#263238"></path><path d="M674.68,454.71a6.33,6.33,0,1,0,6.33-6.34A6.33,6.33,0,0,0,674.68,454.71Z" style="fill:#263238"></path><path d="M596.8,321.2h43a0,0,0,0,1,0,0v6.52a3.93,3.93,0,0,1-3.93,3.93h-35.1a3.93,3.93,0,0,1-3.93-3.93V321.2A0,0,0,0,1,596.8,321.2Z" transform="translate(1236.56 652.85) rotate(180)" style="fill:#263238"></path><path d="M673.67,331.65h-5v-3.52a1.24,1.24,0,0,0-.42-.08H652a1.24,1.24,0,0,0-.42.08v3.52h-5v-3.8c0-2.65,2.43-4.8,5.42-4.8h16.25c3,0,5.42,2.15,5.42,4.8Z" style="fill:#5FDDAC"></path><rect x="588.18" y="385.94" width="6.74" height="19.4" style="fill:#263238"></rect><rect x="584.97" y="389.94" width="3.21" height="11.4" style="fill:#263238"></rect><path d="M545.73,135.92c7.34,11.78,12,61.67,10.84,66.47-3.29,13.44-25.45,29.46-38.81,36.11-3.63,1.8-17.49-30.47-13.35-31.77,8.12-2.53,24-15.85,25.51-18.78s4.07-32.52,5.13-47.12C535.94,128.52,542,130,545.73,135.92Z" style="fill:#d3766a"></path><path d="M504.41,206.73s-6,3.21-11.59,6.47c-6.68,3.91-21.25,16.75-18.85,38.37.92,8.29,7.13,11.26,7.71,2.49.4-6.19.15-10.51.85-12.49,0,0,5.41,7.79,10.9,7.85a100.71,100.71,0,0,0,14.37-.87,21.08,21.08,0,0,0,.08-2.7,11.57,11.57,0,0,0,9.88-7.35Z" style="fill:#d3766a"></path><path d="M486.83,217.68c-1.47,3.78-4.44,11.85-4.57,19.3-.15,8.28,1.79,24.25,7.9,24.3,4.47,0,4.27-6.13,4.27-6.13s2.19,6.44,6.25,5.58c3.69-.77,3.25-5.53,3.25-5.53s2,3.67,5.41,2.24c4.11-1.73-.76-9.15,1.89-14.49C511.82,241.75,486.83,217.68,486.83,217.68Z" style="fill:#d3766a"></path><path d="M491,235.68c-.79,3.79-.39,12.85,3.26,19.39.08.14.24.16.19,0a81.25,81.25,0,0,1-3.37-19.4S491,235.64,491,235.68Z" style="fill:#263238"></path><path d="M499.37,236.08c-.35,3.33.48,12.65,4.41,19.15.09.15.24.15.19,0a86.81,86.81,0,0,1-4.52-19.16S499.38,236,499.37,236.08Z" style="fill:#263238"></path><path d="M528.15,181.46l31.2,7.91s-3-29.41-10.79-48.93c-6.09-15.24-11.65-14.45-14.06-.8S528.15,181.46,528.15,181.46Z" style="fill:#5FDDAC"></path><path d="M534.5,139.64c2.41-13.65,8-14.44,14.06.8,7.8,19.52,10.79,48.93,10.79,48.93l-31.2-7.91S532.09,153.29,534.5,139.64Z" style="fill:#5FDDAC"></path><path d="M558.84,185.47c-2.66-10.94-4.38-22.63-6.6-33.67,3.57,10.88,5.25,22.32,6.6,33.67Z" style="fill:#263238"></path><path d="M553.86,153a7,7,0,0,1-.07,4.89,42,42,0,0,1,.07-4.89Z" style="fill:#263238"></path><polygon points="525.22 183.41 560.13 193.03 559.6 191.66 561.73 190.56 561.33 189.52 562.08 186.53 526.87 178.12 527.43 179.57 525.75 180.87 526.42 182.12 525.22 183.41" style="fill:#5FDDAC"></polygon><polygon points="525.22 183.41 560.13 193.03 559.6 191.66 561.73 190.56 561.33 189.52 562.08 186.53 526.87 178.12 527.43 179.57 525.75 180.87 526.42 182.12 525.22 183.41" style="opacity:0.1"></polygon></g><g id="freepik--character-1--inject-5"><path d="M149.35,144.48c11.07,13,43.27,71.45,45.83,75.45,3.38,5.27-25,18.26-26.89,14.42-1.25-2.51-27.42-69.39-28.68-85C138.5,135.32,145.1,139.48,149.35,144.48Z" style="fill:#f7a9a0"></path><path d="M186.71,241.94c-1.81-.3-2,.64.21,3.05s12.9,10.09,9.9,13.61-17.95-7.55-21.29-11.84-7.24-12.41-7.24-12.41C171.64,235.92,180.11,239,186.71,241.94Z" style="fill:#f7a9a0"></path><path d="M191,243.22c-2.24.67-5,3.24-5.19,5s-.18,4.86-.85,6.07-1.81,4-3,5.18-.74,4.52-1.86,5.65c-3.74,3.74-1.26,9.61-.19,9.58s-.28-4.4,5.32-6.89a54,54,0,0,1,11.19-4.07c6.09-1.48,8.84,1.89,14.45.54s14.29-10.74,11.3-14.79-5.65-9.93-8.25-10.66-12.32,3.33-14.07,3.71S194,242.33,191,243.22Z" style="fill:#5FDDAC"></path><path d="M191,243.22c-2.24.67-5,3.24-5.19,5s-.18,4.86-.85,6.07-1.81,4-3,5.18-.74,4.52-1.86,5.65c-3.74,3.74-1.26,9.61-.19,9.58s-.28-4.4,5.32-6.89a54,54,0,0,1,11.19-4.07c6.09-1.48,8.84,1.89,14.45.54s14.29-10.74,11.3-14.79-5.65-9.93-8.25-10.66-12.32,3.33-14.07,3.71S194,242.33,191,243.22Z" style="fill:#fff;opacity:0.6000000000000001"></path><path d="M184.36,258.46c2.64-.24,5.5-.22,8-1.11,2.46-1.08,4.8-2.58,7.24-3.79-4.73,4.39-8.7,6.39-15.21,4.9Z" style="fill:#5FDDAC"></path><path d="M203,243.2c3.91,1,7.79.47,11.74,1.21-3.93.65-8.25,1.1-11.74-1.21Z" style="fill:#5FDDAC"></path><path d="M187.29,254.94a19.66,19.66,0,0,1,7.64-.33,11.51,11.51,0,0,1-7.64.33Z" style="fill:#5FDDAC"></path><path d="M182,211.08c9.57,4.64,21.54,10.19,27.82,20.12a5.8,5.8,0,0,1,1,3.68c2.89,4.4,1.68,7.09,1.68,7.09,1.44,4.92-.18,7.5-.18,7.5s3.34,5.2.53,7.74c-3.14,2.85-7.21-5-12.09-8-11.19-6.77-29-13.26-32.42-14.89Z" style="fill:#f7a9a0"></path><path d="M194,233.91a84.6,84.6,0,0,1,9.46,6.48,84.61,84.61,0,0,1,8.7,9.06.1.1,0,0,0,.16-.12,44.48,44.48,0,0,0-18.23-15.57C193.89,233.68,193.8,233.8,194,233.91Z" style="fill:#263238"></path><path d="M197.07,226.56c3.05,2.18,8.4,6,15.28,15.48,0,0,.08,0,.06,0a39.8,39.8,0,0,0-15.24-15.59C197,226.29,196.87,226.42,197.07,226.56Z" style="fill:#263238"></path><path d="M198.81,222.64c5.06,3.9,7.75,7,11.92,12.24a0,0,0,0,0,.06,0c-4.12-6.45-6.34-8.32-11.87-12.39C198.73,222.31,198.62,222.49,198.81,222.64Z" style="fill:#263238"></path><path d="M170.82,174.69,149,192.83s-8.77-24.57-10-43.08c-.93-14.46,3.8-15.94,10.9-6S170.82,174.69,170.82,174.69Z" style="fill:#5FDDAC"></path><path d="M162.33,181.73,149,192.83s-8.77-24.57-10-43.08c-.48-7.5.56-11.5,2.66-12.23Z" style="opacity:0.1"></path><polygon points="173.9 175.13 149.73 196.04 149.63 194.75 147.52 194.68 147.44 193.7 145.7 191.6 170.57 171.54 170.68 172.91 172.51 173.31 172.45 174.56 173.9 175.13" style="fill:#5FDDAC"></polygon><polygon points="173.9 175.13 149.73 196.04 149.63 194.75 147.52 194.68 147.44 193.7 145.7 191.6 170.57 171.54 170.68 172.91 172.51 173.31 172.45 174.56 173.9 175.13" style="opacity:0.1"></polygon><path d="M83.3,373.7s-24.08,39.8-24.09,39.83c-3.92,8.05-7.21,15.19-8.56,19a.14.14,0,0,0,0,.07A6.2,6.2,0,0,0,50,435.4s0,.06,0,.08c1.61,2.78,65.06,35.95,67.66,36.36s4-7,2.55-10.22-20.06-26.82-20.06-26.82l23.66-40Z" style="fill:#f7a9a0"></path><path d="M120.24,461.62c1.43,3.25.06,10.65-2.54,10.23S51.65,438.27,50,435.48c0,0,0-.05,0-.08a6.2,6.2,0,0,1,.62-2.77.19.19,0,0,1,0-.07c1.35-3.84,4.64-11,8.56-19,0,0,3.83-6.35,8.44-14L83.3,373.7l40.55,21.13L107.94,421.7l-7.76,13.1S118.78,458.36,120.24,461.62Z" style="fill:#f7a9a0"></path><path d="M117.7,471.85c-2.61-.42-66.05-33.58-67.67-36.37,0,0,0-.05,0-.08a6.2,6.2,0,0,1,.62-2.77.19.19,0,0,1,0-.07c1.35-3.84,4.64-11,8.56-19,0,0,3.83-6.35,8.44-14l40.55,21.7-8,13.53s18.6,23.56,20.06,26.82S120.3,472.27,117.7,471.85Z" style="fill:#ebebeb"></path><path d="M118.27,472.33c-1.7-.28-28.89-14.39-48.44-25.14-4.52-2.5-8.63-4.81-11.93-6.72-4.54-2.65-7.53-4.54-7.86-5.12-.75-1.31,5.85-15.22,13.12-29.73l41.69,21.81-4.15,7.41s18.72,23.87,20.17,27.16S120.9,472.75,118.27,472.33Z" style="fill:#5FDDAC"></path><path d="M118.7,469.29c-10.58-5.92-53.84-28.78-64.75-33.83-.09,0-.12,0,0,.07,10.36,6.09,53.8,28.6,64.69,33.93C118.84,469.57,118.93,469.41,118.7,469.29Z" style="fill:#263238"></path><path d="M103.47,433.26c-3.81-3-9.31-5.09-14.12-3.78-.18,0-.11.31.05.34a66.71,66.71,0,0,1,13.77,4A.3.3,0,0,0,103.47,433.26Z" style="fill:#263238"></path><path d="M105.55,436.7c-3.81-3-9.31-5.09-14.12-3.78-.19.05-.11.31,0,.34a67.51,67.51,0,0,1,13.77,4A.3.3,0,0,0,105.55,436.7Z" style="fill:#263238"></path><path d="M107.63,440.14c-3.81-3-9.31-5.09-14.12-3.78-.19.05-.11.32,0,.34a67.7,67.7,0,0,1,13.77,4A.3.3,0,0,0,107.63,440.14Z" style="fill:#263238"></path><path d="M109.7,443.58c-3.8-3-9.3-5.08-14.11-3.78-.19.05-.11.32,0,.35a67.67,67.67,0,0,1,13.77,4A.3.3,0,0,0,109.7,443.58Z" style="fill:#263238"></path><path d="M116.41,427.61c-.46-3.16-4.09-3.76-6.63-3.21a25.4,25.4,0,0,0-11.59,6.24.12.12,0,0,0,0,.2.59.59,0,0,0,.38.88c4.17.55,8.55,1.65,12.76.9C113.81,432.18,116.84,430.59,116.41,427.61Zm-11.34,3.65c-2-.22-4.08-.54-6.14-.68a74.77,74.77,0,0,1,6.85-3.5,27.07,27.07,0,0,1,3.51-1.24c1.85-.48,8.11-.29,4.92,4C112.46,432.13,107.52,431.52,105.07,431.26Z" style="fill:#263238"></path><path d="M88,423.88c2.7,3.32,6.74,5.35,10.25,7.66a.59.59,0,0,0,.86-.41c.08,0,.16,0,.15-.14a25.45,25.45,0,0,0-4.7-12.3c-1.56-2.08-4.7-4-7.11-1.91S86.47,422,88,423.88Zm-.32-4c.36-5.29,5.22-1.35,6.31.23a28.67,28.67,0,0,1,1.85,3.23c1.16,2.31,2,4.73,2.9,7.13-1.65-1.24-3.4-2.33-5.1-3.51C91.66,425.55,87.52,422.79,87.72,419.87Z" style="fill:#263238"></path><path d="M118.27,472.33c-.85-.15-8-3.71-17.37-8.57l9.59-16.24c4.78,6.27,9.66,12.87,10.38,14.48C122.31,465.29,120.9,472.74,118.27,472.33Z" style="opacity:0.1"></path><path d="M62.47,401.26l46.14,24.64s58.25-83,59.42-104.82C169.64,291,143.4,195.24,143.4,195.24l-40.5-.18s16.67,98.34,15.32,115.11C117.51,319,62.47,401.26,62.47,401.26Z" style="fill:#37474f"></path><path d="M112.64,416.36c-2.37-1.71-24.25-14.39-40.9-22.48a.1.1,0,0,0-.09.17c5,3.34,37.7,21.22,40.87,22.49C112.62,416.58,112.75,416.44,112.64,416.36Z" style="fill:#263238"></path><path d="M123.91,289.16c-1.9-14.39-4-28.76-6.39-43.07s-4.93-28.76-7.94-43q-.56-2.61-1.13-5.22a.21.21,0,0,0-.42.08c2.52,14.16,5.12,28.3,7.45,42.49s4.5,28.41,6.44,42.66q.72,5.3,1.41,10.59a96.59,96.59,0,0,1,1,11,28.27,28.27,0,0,1-1.76,10.3,59.38,59.38,0,0,1-4.73,9.26c-7.42,12.55-40.66,67.42-41.52,69-.06.1.09.21.16.11,8-12.38,32.72-51.91,40.24-64.67,3.4-5.75,7.29-11.58,8.4-18.3C126.32,303.39,124.83,296.09,123.91,289.16Z" style="fill:#263238"></path><path d="M112.51,400.81s-1,46.79-1,46.83c.14,8.95.43,16.8,1,20.84a.15.15,0,0,0,0,.07,6.35,6.35,0,0,0,.7,2.75l.06.06c2.69,1.76,74.28,2.69,76.79,1.88s.4-8-2.35-10.27-30-14.87-30-14.87l.55-46.76Z" style="fill:#f7a9a0"></path><path d="M190,473.24c-2.51.81-74.1-.12-76.79-1.87l0-.06a6.42,6.42,0,0,1-.72-2.76v-.07c-.52-4-.82-11.89-1-20.85,0,0,.14-6.45.31-14.56l46-.06-.18,15.09s27.24,12.61,30,14.87S192.55,472.44,190,473.24Z" style="fill:#ebebeb"></path><path d="M190.57,473.53c-1.64.52-32.27.37-54.57-.28-5.16-.15-9.88-.33-13.69-.53-5.24-.28-8.76-.6-9.33-1-1.26-.82-1.73-16.21-1.88-32.44l47,.39-.31,8.48s27.55,12.7,30.34,15S193.1,472.7,190.57,473.53Z" style="fill:#5FDDAC"></path><path d="M189.57,470.62c-12.12-.43-61-1-73-.55-.1,0-.1.07,0,.08,12,.69,60.92.9,73.05.67C189.82,470.82,189.82,470.63,189.57,470.62Z" style="fill:#263238"></path><path d="M159.57,445.51c-4.76-.94-10.6-.28-14.28,3.08-.14.13,0,.33.2.29a66.53,66.53,0,0,1,14.06-2.76A.31.31,0,0,0,159.57,445.51Z" style="fill:#263238"></path><path d="M163,447.63c-4.76-.95-10.6-.28-14.28,3.08-.14.13,0,.33.2.28A67.17,67.17,0,0,1,163,448.23.3.3,0,0,0,163,447.63Z" style="fill:#263238"></path><path d="M166.41,449.74c-4.76-.94-10.6-.28-14.28,3.08-.15.13,0,.33.2.28a67.17,67.17,0,0,1,14.06-2.76A.3.3,0,0,0,166.41,449.74Z" style="fill:#263238"></path><path d="M169.83,451.85c-4.76-.94-10.6-.27-14.28,3.08-.15.13,0,.33.2.29a67.17,67.17,0,0,1,14.06-2.76A.31.31,0,0,0,169.83,451.85Z" style="fill:#263238"></path><path d="M168.51,434.58c-1.85-2.6-5.35-1.48-7.36.17a25.35,25.35,0,0,0-7.47,10.84.13.13,0,0,0,.11.18c0,.36.33.75.74.6,4-1.41,8.36-2.43,11.76-5C168.28,439.84,170.25,437,168.51,434.58ZM160.09,443c-1.93.74-3.88,1.39-5.78,2.2,1.46-2.11,2.83-4.27,4.5-6.24a28.38,28.38,0,0,1,2.56-2.7c1.43-1.27,7.08-4,6.18,1.27C167.06,440.41,162.39,442.12,160.09,443Z" style="fill:#263238"></path><path d="M141.57,444.21c3.91,1.72,8.43,1.69,12.61,2.14.43,0,.65-.4.58-.76a.13.13,0,0,0,.07-.19,25.51,25.51,0,0,0-9.8-8.81c-2.34-1.13-6-1.41-7.19,1.56C136.71,441,139.29,443.21,141.57,444.21Zm-2.11-3.42c-2.1-4.87,4-3.58,5.71-2.68a27,27,0,0,1,3.12,2,73.27,73.27,0,0,1,5.83,5c-2-.35-4.08-.52-6.13-.79C145.55,444.05,140.61,443.47,139.46,440.79Z" style="fill:#263238"></path><path d="M143.4,195.24v0c-.28.85-15,41.25-16.41,41.89-1.57.73,32.57,58.07,34.59,84.72,1.29,17-1.24,113.46-1.24,113.46H110.42s2.4-86.69,3.54-114.16c.44-10.65-34.27-63.68-34.7-96.71-.13-10.4,7.35-29.42,7.35-29.42Z" style="fill:#37474f"></path><path d="M114.24,320.45c0-.44-.34-.58-.38-.13-1.13,14.86-1.39,29.65-2.1,44.54s-.3,18.43-1,33.28c-.37,8.4,0,16.82-.21,25.23a.11.11,0,0,0,.21,0C112.34,408.57,114.23,328.87,114.24,320.45Z" style="fill:#263238"></path><path d="M161.57,322.47a73,73,0,0,0-1-10.94,54.29,54.29,0,0,0-3.08-10.28c-2.76-6.95-6-13.73-9.14-20.53S142,267,138.64,260.17q-2.8-5.75-5.65-11.46c-1.92-3.86-4-7.64-6-11.46a.13.13,0,0,0-.24.12c3.2,6.87,6.36,13.76,9.56,20.63s6.34,13.76,9.48,20.65,6.19,13.57,9.1,20.43a66.89,66.89,0,0,1,3.56,10.1,58.47,58.47,0,0,1,1.46,10.87c.49,8.53.72,17.08,1.56,25.58,0,.1.18.09.19,0C161.92,337.92,161.8,330.17,161.57,322.47Z" style="fill:#263238"></path><path d="M156.71,425.49c-2.9-.38-25-1.14-43.51-.35a.1.1,0,0,0,0,.19c6,.53,40.1.76,43.49.37C156.8,425.69,156.85,425.51,156.71,425.49Z" style="fill:#263238"></path><path d="M133.88,234.93a96.09,96.09,0,0,0-15.61,5.41c-.19.09-.1.39.11.32,5.24-1.64,10.57-3.18,15.71-5.1A.33.33,0,0,0,133.88,234.93Z" style="fill:#263238"></path><path d="M138.91,200.72c0-.18-.29-.25-.31-.06-.57,6-1.49,11.16-2.56,16.68-.5,2.56-4,16.63-8.42,15.13-.73-.25-1-1-1-2.17a17.81,17.81,0,0,1,1-4.32c.8-2.94,1.51-5.9,2.07-8.9a82,82,0,0,0,1.55-16.91.15.15,0,0,0-.29,0,155.2,155.2,0,0,1-3.75,23.19c-.94,3.66-3.39,9.06.44,10s7.42-8.12,8.16-10.63A85.75,85.75,0,0,0,138.91,200.72Z" style="fill:#263238"></path><path d="M127.7,232.87a24.48,24.48,0,0,0-1.31,2.85,7,7,0,0,0-.67,2.39.18.18,0,0,0,.31.1,8.52,8.52,0,0,0,1.28-2.26c.44-.88.89-1.75,1.3-2.65A.5.5,0,0,0,127.7,232.87Z" style="fill:#263238"></path><path d="M119.35,335.12c.26-7.1,1.05-14.54-1.28-21.39a71.47,71.47,0,0,0-4.55-9.71q-2.59-5-5.1-10.06c-6.67-13.47-13-27.15-18.56-41.1-2.71-6.71-5.12-13.61-6.09-20.81a64.16,64.16,0,0,1,1.39-22.64c.43-1.85.87-3.69,1.38-5.51a.11.11,0,0,0-.21-.08,74.68,74.68,0,0,0-3.89,21.66,61,61,0,0,0,3.76,20.69c2.39,7,5.39,13.74,8.34,20.48q4.56,10.43,9.48,20.7c3.26,6.8,6.75,13.5,10.19,20.21a36.36,36.36,0,0,1,3.83,10.2,52.17,52.17,0,0,1,.42,11.17c-.59,15.7-1.95,67.94-2.14,83.6,0,2,0,4-.08,6a.14.14,0,0,0,.28,0C117.51,402.89,118.79,350.77,119.35,335.12Z" style="fill:#263238"></path><path d="M108.16,205.41c0-.11-.18-.09-.19,0-.59,4.32-.93,8.8-3,12.72-1.92,3.6-5.25,5.91-8.89,7.54a65.35,65.35,0,0,1-6.48,2.39.13.13,0,0,0,0,.26c4.13-.86,8.32-1.82,11.91-4.14,3.84-2.48,5.82-6.45,6.45-10.9A38.45,38.45,0,0,0,108.16,205.41Z" style="fill:#263238"></path><path d="M145.22,116.76a4.24,4.24,0,0,0-1.41.74c-1.88,1.53-2.31,4.08-2.26,6.36.07,2.44.7,5-.05,7.41a4,4,0,0,1-1.67,2.33,3.74,3.74,0,0,1-3.09.12c-1.07-.33-2.27-1-3.42-.57a3.17,3.17,0,0,0-1.81,2.2c-.69,2.41.78,4.86,1.06,7.22a12.64,12.64,0,0,1-1.34,7.37,12.36,12.36,0,0,1-4.92,5,12.22,12.22,0,0,1-3.23,1.25c-1.27.28-2.57.28-3.85.51a4.5,4.5,0,0,0-3.14,1.75c-.51.83-.52,4.42,2.13,7.93.19.25-.28.57-.56.39a16.25,16.25,0,0,1-1.58-1.14,16.94,16.94,0,0,1-6.21-14.13,17.74,17.74,0,0,1,2.62-8.12,27.74,27.74,0,0,0,2.42-4.15,8.88,8.88,0,0,0,.53-4.15c-.24-2.7-1.13-5.3-.91-8a14.84,14.84,0,0,1,2.43-6.83,17.6,17.6,0,0,1,12.47-7.65C134.4,111.93,145.5,116.68,145.22,116.76Z" style="fill:#263238"></path><path d="M145.06,116.81a6.84,6.84,0,0,0-2.58,1.75,5.69,5.69,0,0,0-1.19,2.56,16,16,0,0,0,.41,6.22c.36,1.94.64,4-.2,5.86a4.69,4.69,0,0,1-1.63,2,3.6,3.6,0,0,1-2.74.42c-1.73-.34-3.81-1.33-5.4,0s-1.23,3.61-1,5.32c.53,4.19,1.83,9.55-1.66,12.88a15.59,15.59,0,0,1-6.61,3.34c-1.67.45-3.79,1-4.56,2.76,0,.06.07.09.1,0,.84-1.82,3.07-2,4.8-2.42a16.7,16.7,0,0,0,5.79-2.46,8,8,0,0,0,3.24-5.17,18.83,18.83,0,0,0-.11-6.44c-.16-1.09-.35-2.18-.48-3.28a6.75,6.75,0,0,1,.13-3,2.35,2.35,0,0,1,2.27-1.63,12.49,12.49,0,0,1,3,.58,4.72,4.72,0,0,0,2.71-.05,4.25,4.25,0,0,0,1.79-1.29,6.83,6.83,0,0,0,1.47-4.71c-.09-2.39-1-4.67-1-7.06a5.65,5.65,0,0,1,3.58-5.93A.13.13,0,0,0,145.06,116.81Z" style="fill:#263238"></path><path d="M127.57,111.33a14.38,14.38,0,0,0-11.3,8.87,17.88,17.88,0,0,0-1.25,8.21c.2,2.61.75,5.25.38,7.87-.42,2.9-2.35,5.05-3.9,7.41a15.71,15.71,0,0,0-2.43,6.32,16.79,16.79,0,0,0,3.08,12.46,14.53,14.53,0,0,0,1.06,1.29.05.05,0,1,0,.08-.07,16.19,16.19,0,0,1-3.8-12.24,16,16,0,0,1,1.87-6.15c1.29-2.33,3.25-4.26,4.23-6.77.92-2.35.69-4.94.41-7.39a23.56,23.56,0,0,1,0-8,14.45,14.45,0,0,1,9.6-10.76c5.49-1.67,11.09.42,16,2.94.65.34,1.3.68,1.94,1,.08,0,.15-.07.07-.11C138.73,113.44,133.32,110.69,127.57,111.33Z" style="fill:#263238"></path><path d="M146.94,114.31a2.46,2.46,0,0,0-2.37-.52c-.49.33-1.85,4.64-1.28,5.6s2.49.19,2.49.19Z" style="fill:#5FDDAC"></path><path d="M86.61,195.06l56.79.18,3.23-9.81s5.94-3.45,6.57-9.69c.54-5.31-5.48-30.4-6-31.9-2.33-6.11-9.88-7.44-14.16-5C110.91,151.31,86.61,195.06,86.61,195.06Z" style="fill:#5FDDAC"></path><path d="M86.61,195.06s10.58-20.72,20.69-32.19c0,0,15.39,1.6,18.17,1.55s8-12,8-12l16.85,3.43s4.61,17.31,2.94,21.94-6.62,7.61-6.62,7.61l-3.23,9.81Z" style="fill:#37474f"></path><path d="M135.73,179.28a23.54,23.54,0,0,1,5.35,2.49,28.49,28.49,0,0,1,2.49,1.84c.41.33.83.63,1.24.93a4,4,0,0,0,1.37.7s0,.13,0,.12a5.8,5.8,0,0,1-1.37-.25,6,6,0,0,1-1.26-.65c-.87-.54-1.71-1.17-2.58-1.73a53.46,53.46,0,0,0-5.28-3.17C135.59,179.51,135.64,179.25,135.73,179.28Z" style="fill:#263238"></path><path d="M130.67,181.58a23.27,23.27,0,0,1,4.72.3,15.4,15.4,0,0,1,2.29.59l1.08.39c.39.16.76.41,1.16.55,0,0,0,.14,0,.12-.37-.11-.77-.11-1.16-.19l-1.15-.23c-.77-.15-1.55-.28-2.32-.44-1.54-.33-3.08-.63-4.63-.86C130.55,181.8,130.59,181.59,130.67,181.58Z" style="fill:#263238"></path><path d="M133.46,152.45s2.29-10.68.35-14.45l2-.31s3.39,3.44,1.41,15.54Z" style="fill:#37474f"></path><path d="M146.4,142.31s2.58,10.09,3,13.39l.87.18S148.52,144.71,146.4,142.31Z" style="fill:#37474f"></path><path d="M137.94,139c-.16,1.17,2.3,10.08,7.29,11.72,1.63.54,4.92-8.21,4.92-8.21l.39-.59,5.47-8.25-8-10.86-1.19-1.49s-1.34,2.36-3,5.32c-.08.13-.15.27-.23.42s-.2.32-.28.47c-.25.44-.51.89-.75,1.34s-.37.68-.56,1-.37.73-.57,1.09A64.36,64.36,0,0,0,137.94,139Z" style="fill:#f7a9a0"></path><path d="M143.82,126.61a19.87,19.87,0,0,0,6.72,15.28l5.47-8.25-8-10.86-1.19-1.49S145.47,123.65,143.82,126.61Z" style="fill:#263238"></path><path d="M174.28,126.29c-5.71,16.42-16.19,14.86-19.73,13.62-3.21-1.12-14-5.34-10-22.26s13.42-19.46,20.9-17.28S180,109.87,174.28,126.29Z" style="fill:#f7a9a0"></path><path d="M172.48,121.58a11.08,11.08,0,0,1-1-.66c-.38-.26-.72-.43-.9-.88a.62.62,0,0,1,.28-.71,1.56,1.56,0,0,1,1.55.22,2.26,2.26,0,0,1,1,1.27A.66.66,0,0,1,172.48,121.58Z" style="fill:#263238"></path><path d="M160.85,118.59a12,12,0,0,0,1.19.25,1.94,1.94,0,0,0,1.26,0,.62.62,0,0,0,.3-.7,1.54,1.54,0,0,0-1.25-1,2.25,2.25,0,0,0-1.63.17A.66.66,0,0,0,160.85,118.59Z" style="fill:#263238"></path><path d="M161.83,122.21s-.1,0-.12.07c-.33,1.15-.91,2.41-2.06,2.45a0,0,0,0,0,0,.07C161,125,161.7,123.35,161.83,122.21Z" style="fill:#263238"></path><path d="M161.21,120.69c-1.79-.74-3.13,2.88-1.48,3.57S162.7,121.31,161.21,120.69Z" style="fill:#263238"></path><path d="M160.42,120.62c-.39.08-.83.33-1.23.23s-.65-.63-.8-1.1c0,0-.06,0-.08,0a1.41,1.41,0,0,0,.44,1.88c.65.35,1.36-.09,1.79-.72C160.62,120.81,160.58,120.58,160.42,120.62Z" style="fill:#263238"></path><path d="M168.65,124.68s.07.08,0,.13c-.5,1.09-.88,2.42,0,3.2,0,0,0,.08,0,.06C167.48,127.39,168,125.63,168.65,124.68Z" style="fill:#263238"></path><path d="M170.12,123.93c1.83.61.49,4.23-1.21,3.67S168.58,123.43,170.12,123.93Z" style="fill:#263238"></path><path d="M170.79,124.45c.21.3.36.75.7.9s.82-.11,1.21-.39c.05,0,.06,0,.05.06-.24.7-.74,1.34-1.45,1.22s-.88-.86-.79-1.61C170.53,124.49,170.7,124.33,170.79,124.45Z" style="fill:#263238"></path><path d="M158,131.08c.12.39.19.86.56,1.1a3.12,3.12,0,0,0,1.27.34s.06.06,0,.08a1.61,1.61,0,0,1-1.64-.14,1.26,1.26,0,0,1-.33-1.38C157.93,131,158,131,158,131.08Z" style="fill:#263238"></path><path d="M164.33,129.45s-.53,1.73-.88,2.49c0,.07-.24,0-.51-.09h0a4,4,0,0,1-2.89-3c0-.09.11-.13.16-.05a6,6,0,0,0,2.88,2.49c.15-.18.8-3,.93-2.93a7.38,7.38,0,0,1,1.55,1.2c1.21-3.56,1.83-7.29,3.09-10.81.05-.13.24-.08.22,0A61,61,0,0,1,166,130.57C165.88,131,164.58,129.72,164.33,129.45Z" style="fill:#263238"></path><path d="M162.61,131.18a4.2,4.2,0,0,1-2.05.64,1.92,1.92,0,0,1-1.11-.33c-.71-.5-.46-1.23-.09-1.79a4.57,4.57,0,0,1,.71-.82A5.52,5.52,0,0,0,162.61,131.18Z" style="fill:#263238"></path><path d="M160.56,131.82a1.92,1.92,0,0,1-1.11-.33c-.71-.5-.46-1.23-.09-1.79A2,2,0,0,1,160.56,131.82Z" style="fill:#ff99ba"></path><path d="M144.55,119.9c2.66,1.14,5.24-4.37,5.24-4.37s5.55,1.91,10.1-5.45a12.94,12.94,0,0,1-4.71,5.76s10.15,2.3,17.06-4.49c0,0-3.06,3.61-5.11,4.57,0,0,4.49.26,7.63-2.4,0,0,.18,5.5,1.05,7.25,0,0,8.24-18.14-11.13-21,0,0-10.16-2.73-16.41,3.92S144.55,119.9,144.55,119.9Z" style="fill:#263238"></path><path d="M177.4,107.35c-2-.61-13.22-1-18.39.86s-14.58,8.53-15.06,8.88-1.62-18.28,13.58-20.7C174.09,93.75,177.4,107.35,177.4,107.35Z" style="fill:#5FDDAC"></path><path d="M144.86,116.39s10.73-12.45,16.43-15.08,18.13-3.54,25.54.3c5.78,3-9.22,9.72-9.22,9.72a4.15,4.15,0,0,0-2.13-3c-3.62-1.71-10.74-1-14.84.08C155.47,109.77,144.86,116.39,144.86,116.39Z" style="fill:#5FDDAC"></path><path d="M144.86,116.39s10.73-12.45,16.43-15.08,18.13-3.54,25.54.3c5.78,3-9.22,9.72-9.22,9.72a4.15,4.15,0,0,0-2.13-3c-3.62-1.71-10.74-1-14.84.08C155.47,109.77,144.86,116.39,144.86,116.39Z" style="opacity:0.2"></path><path d="M148.12,119.19s-1.24-6.51-4-6.28-3.41,8.57-1.22,10.74a2.94,2.94,0,0,0,4.24.17Z" style="fill:#f7a9a0"></path><path d="M144,115.31s-.08,0-.05.06c1.52,1.58,1.72,3.73,1.61,5.81a1.61,1.61,0,0,0-2-1.39.06.06,0,0,0,0,.12,1.81,1.81,0,0,1,1.56,1.39,8.84,8.84,0,0,1,.21,1.86c0,.2.35.25.37,0a.11.11,0,0,0,0,0C146.74,120.8,146.39,116.68,144,115.31Z" style="fill:#263238"></path><path d="M163,257.12s14.37-11.65,16.43-20.18c1.39-5.72-4-13.26-.94-18.4l3.31-5.6-6.3-3.73s-24.42,16.36-26.07,39.88Z" style="fill:#5FDDAC"></path><rect x="173.59" y="212.23" width="9.13" height="2.2" rx="0.47" transform="translate(222.9 487.64) rotate(-149.4)" style="fill:#5FDDAC"></rect><rect x="172.47" y="214.12" width="9.13" height="2.2" rx="0.47" transform="translate(219.85 490.59) rotate(-149.4)" style="fill:#5FDDAC"></rect><rect x="171.35" y="216.01" width="9.13" height="2.2" rx="0.47" transform="translate(216.81 493.54) rotate(-149.4)" style="fill:#5FDDAC"></rect><path d="M191.11,207.4a5.41,5.41,0,0,0-2.61,2.28c-.71,1.52-.85,3.26-1.12,3.21a5.14,5.14,0,0,1-.63-4.46,5.39,5.39,0,0,1,1.76-2.56Z" style="fill:#263238"></path><path d="M175.51,207.83s1.94-3.29,2.29-3.87a2.49,2.49,0,0,0-1.05-3c-2.32-1.37-6.79-.28-6.37-1.3s6.15-7.09,11.65-3.83l13,7.69-2.74,4.63-2.65-1.57c-.58-.34-2.72-1.12-4.39,1.7l-2.35,4Z" style="fill:#dbdbdb"></path><rect x="174.17" y="207.3" width="10.41" height="4.87" rx="0.49" transform="translate(227 481.57) rotate(-149.4)" style="fill:#263238"></rect><polygon points="195.42 202.83 191.92 208.75 194.65 209.66 197.53 204.79 195.42 202.83" style="fill:#5FDDAC"></polygon><path d="M172.83,220.76c-4-2.35-9.63,1.91-14.15,9.55a58.79,58.79,0,0,0-5.37,12.16,3,3,0,0,0,1.35,3.52l8.43,5a3,3,0,0,0,3.66-.44c3.39-3.32,10.64-11.06,10.24-15.88-.55-6.47-2.66-9.21-2.16-12.72Z" style="fill:#fff"></path><path d="M214.68,207a17,17,0,0,1,5.84.77,17.24,17.24,0,0,1-5.84-.77Z" style="fill:#dbdbdb"></path><path d="M197.53,204.79a85.71,85.71,0,0,1,13.17,1.73,87.3,87.3,0,0,1-13.17-1.73Z" style="fill:#dbdbdb"></path><path d="M203,222.16a85.69,85.69,0,0,1,7.39,11,85.69,85.69,0,0,1-7.39-11Z" style="fill:#dbdbdb"></path><path d="M194.65,209.66a65.59,65.59,0,0,1,6.49,9.67,66.12,66.12,0,0,1-6.49-9.67Z" style="fill:#dbdbdb"></path><path d="M210.69,222.72a11.12,11.12,0,0,1,3.51,3.21,11.11,11.11,0,0,1-3.51-3.21Z" style="fill:#dbdbdb"></path><path d="M201.34,214.18a48.86,48.86,0,0,1,7.36,6.72,48.34,48.34,0,0,1-7.36-6.72Z" style="fill:#dbdbdb"></path><path d="M200.79,207.81a55.09,55.09,0,0,1,10.31,2.77,55.45,55.45,0,0,1-10.31-2.77Z" style="fill:#dbdbdb"></path><path d="M207,213.24a63,63,0,0,1,10.2,5,62.53,62.53,0,0,1-10.2-5Z" style="fill:#dbdbdb"></path><path d="M197.8,208.75a15.82,15.82,0,0,1,5.1,2.49,15.72,15.72,0,0,1-5.1-2.49Z" style="fill:#dbdbdb"></path><path d="M123.69,147.77c-5.76,8.71-22.12,47.4-19.25,53.43,7.19,15.09,28.47,25.23,37,29.06,2,.88,16.64-22.85,12.31-25.74-7-4.71-24.1-12.21-24.89-13.76-1.37-2.68,2.46-23.55,3.78-38.09C133.8,139.57,127.08,142.64,123.69,147.77Z" style="fill:#f7a9a0"></path><path d="M189.37,220c-1.34,3.25-9.06-.73-9.06-.73a6.45,6.45,0,0,1,1.07,4.27c-.39,2.64-4.7,3.17-4.7,3.17a8,8,0,0,1,.42,4.68c-.63,2.49-4.9,3.65-4.9,3.65a6.13,6.13,0,0,1-2.23,4.34c-3.06,2.22-9.41.92-13.6-.9-4-1.74-15.32-8.51-17.49-9.76l3.9-26.17s19.52-3,29.22,2.12C175.87,206.68,191.41,215,189.37,220Z" style="fill:#f7a9a0"></path><path d="M180.28,219.12c-3.72-3-8.15-5.1-12.44-7.09a.08.08,0,0,0-.07.15c4.3,1.93,8.18,5,12.39,7.13A.11.11,0,0,0,180.28,219.12Z" style="fill:#263238"></path><path d="M176.77,226.51a12.44,12.44,0,0,0-2.93-1.43c-1.07-.43-2.15-.84-3.23-1.23q-3.26-1.2-6.57-2.22c-.09,0-.16.11-.06.15,2.16.8,4.31,1.62,6.43,2.5l3.19,1.36a15.09,15.09,0,0,0,3,1.15A.16.16,0,0,0,176.77,226.51Z" style="fill:#263238"></path><path d="M172.11,235a8.67,8.67,0,0,0-2.71-1.14l-3-1c-2-.71-4-1.41-5.93-2.18-.1,0-.17.11-.07.15,2,.79,4,1.61,6,2.39l2.94,1.13a8.21,8.21,0,0,0,2.76.78S172.14,235,172.11,235Z" style="fill:#263238"></path><path d="M149.28,201.85a109.61,109.61,0,0,1,14.27.22,23.33,23.33,0,0,1,7,1.51A65.71,65.71,0,0,1,183,210.74c2.39,1.86,7.92,5.85,6.8,9.37-1.49,3-7.44.3-9.7-.61l.52-.59a8.6,8.6,0,0,1,1,2.63,4.27,4.27,0,0,1-3.57,5.28l-1.35.24.2-.39a7.11,7.11,0,0,1,.68,2.78c.19,3.15-2.69,5-5.45,5.52,4.28-1.12,6.38-4.24,4.14-8.37a10.91,10.91,0,0,0,2.83-.79c3.16-1.49,1.74-5.34.21-7.54,2,.76,8.33,3.71,9.66,1.49.76-2.82-4.47-6.6-6.51-8.24a66.72,66.72,0,0,0-12.16-7.19,22.59,22.59,0,0,0-6.79-1.65c-4.7-.53-9.46-.74-14.21-.83Z" style="fill:#263238"></path><path d="M131.05,187.93l-28.41.07s8.88-24.53,19.75-39.56c8.49-11.74,13.08-9.86,12.21,2.33S131.05,187.93,131.05,187.93Z" style="fill:#5FDDAC"></path><path d="M131.05,187.93l-28.41.07s8.88-24.53,19.75-39.56c8.49-11.74,13.08-9.86,12.21,2.33S131.05,187.93,131.05,187.93Z" style="fill:#5FDDAC"></path><path d="M103.92,184.78c3.51-9.46,7.42-18.9,12.88-27.41-4.26,9.16-8.11,18.49-12.88,27.41Z" style="fill:#263238"></path><path d="M115.15,158.09a25.4,25.4,0,0,1-1,4.2,5.79,5.79,0,0,1,1-4.2Z" style="fill:#263238"></path><path d="M131.25,185.79c.38-9.27,1.7-18.5,2.76-27.71.31,9.29-1,18.59-2.76,27.71Z" style="fill:#263238"></path><path d="M134.9,159.4a5.18,5.18,0,0,1-1.14,3.8,16.81,16.81,0,0,1,1.14-3.8Z" style="fill:#263238"></path><polygon points="133.14 190.23 101.19 190.97 101.94 189.91 100.35 188.51 100.91 187.71 100.91 184.98 132.86 185.35 132.07 186.47 133.23 187.94 132.38 188.87 133.14 190.23" style="fill:#5FDDAC"></polygon><polygon points="133.14 190.23 101.19 190.97 101.94 189.91 100.35 188.51 100.91 187.71 100.91 184.98 132.86 185.35 132.07 186.47 133.23 187.94 132.38 188.87 133.14 190.23" style="opacity:0.1"></polygon></g><g id="freepik--Sparkles--inject-5"><path d="M427.68,349.79l1.39-6.09,1.39,6.09,6.1,1.49-6.12,1.14-1.37,6.45-1.37-6.45-6.12-1.13Zm-235-72,6.12,1.13,1.37,6.46,1.36-6.46,6.12-1.13-6.09-1.49-1.39-6.09-1.4,6.09Zm340.07,48.61,6.12,1.13,1.37,6.45,1.37-6.45,6.12-1.13-6.1-1.49-1.39-6.1-1.39,6.1ZM311.48,458.28l6.12,1.13,1.36,6.46,1.37-6.46,6.12-1.13-6.09-1.49L319,450.7l-1.39,6.09ZM413.87,334.77l3.42.63.76,3.61.77-3.61,3.42-.63-3.41-.84-.78-3.4-.78,3.4Zm-187.06-99,3.42.63L231,240l.76-3.6,3.42-.64-3.41-.83-.77-3.4-.78,3.4ZM352.58,461.19l3.42.63.76,3.61.77-3.61,3.42-.63-3.41-.84-.78-3.4-.78,3.4Zm51.21-20.5,3.42.63.77,3.61.76-3.61,3.42-.63-3.4-.84-.78-3.4-.78,3.4Zm151.44-161.3,3.42.63.77,3.61.76-3.61,3.42-.63-3.4-.83-.78-3.41-.78,3.41ZM432.48,326.62a1.15,1.15,0,0,0,0-2.29A1.15,1.15,0,0,0,432.48,326.62ZM542,380.86a1.15,1.15,0,0,0,0-2.29A1.15,1.15,0,0,0,542,380.86ZM187.5,284.55a1.15,1.15,0,0,0,0-2.29A1.15,1.15,0,0,0,187.5,284.55Zm40.91-60.62a1.15,1.15,0,0,0,0-2.29A1.15,1.15,0,0,0,228.41,223.93ZM327,440.63a.81.81,0,0,0,0-1.62A.81.81,0,0,0,327,440.63Zm18.47,27.85a.81.81,0,0,0,0-1.62A.81.81,0,0,0,345.45,468.48Zm76.94-23.54a.81.81,0,0,0,0-1.62A.81.81,0,0,0,422.39,444.94Zm-4.34-50.26a.81.81,0,0,0,0-1.62A.81.81,0,0,0,418.05,394.68ZM551.32,271.13a.81.81,0,0,0,0-1.62A.81.81,0,0,0,551.32,271.13ZM213.64,286.22a.81.81,0,0,0,0-1.62A.81.81,0,0,0,213.64,286.22Z" style="fill:#5FDDAC"></path><path d="M427.68,349.79l1.39-6.09,1.39,6.09,6.1,1.49-6.12,1.14-1.37,6.45-1.37-6.45-6.12-1.13Zm-235-72,6.12,1.13,1.37,6.46,1.36-6.46,6.12-1.13-6.09-1.49-1.39-6.09-1.4,6.09Zm340.07,48.61,6.12,1.13,1.37,6.45,1.37-6.45,6.12-1.13-6.1-1.49-1.39-6.1-1.39,6.1ZM311.48,458.28l6.12,1.13,1.36,6.46,1.37-6.46,6.12-1.13-6.09-1.49L319,450.7l-1.39,6.09ZM413.87,334.77l3.42.63.76,3.61.77-3.61,3.42-.63-3.41-.84-.78-3.4-.78,3.4Zm-187.06-99,3.42.63L231,240l.76-3.6,3.42-.64-3.41-.83-.77-3.4-.78,3.4ZM352.58,461.19l3.42.63.76,3.61.77-3.61,3.42-.63-3.41-.84-.78-3.4-.78,3.4Zm51.21-20.5,3.42.63.77,3.61.76-3.61,3.42-.63-3.4-.84-.78-3.4-.78,3.4Zm151.44-161.3,3.42.63.77,3.61.76-3.61,3.42-.63-3.4-.83-.78-3.41-.78,3.41ZM432.48,326.62a1.15,1.15,0,0,0,0-2.29A1.15,1.15,0,0,0,432.48,326.62ZM542,380.86a1.15,1.15,0,0,0,0-2.29A1.15,1.15,0,0,0,542,380.86ZM187.5,284.55a1.15,1.15,0,0,0,0-2.29A1.15,1.15,0,0,0,187.5,284.55Zm40.91-60.62a1.15,1.15,0,0,0,0-2.29A1.15,1.15,0,0,0,228.41,223.93ZM327,440.63a.81.81,0,0,0,0-1.62A.81.81,0,0,0,327,440.63Zm18.47,27.85a.81.81,0,0,0,0-1.62A.81.81,0,0,0,345.45,468.48Zm76.94-23.54a.81.81,0,0,0,0-1.62A.81.81,0,0,0,422.39,444.94Zm-4.34-50.26a.81.81,0,0,0,0-1.62A.81.81,0,0,0,418.05,394.68ZM551.32,271.13a.81.81,0,0,0,0-1.62A.81.81,0,0,0,551.32,271.13ZM213.64,286.22a.81.81,0,0,0,0-1.62A.81.81,0,0,0,213.64,286.22Z" style="fill:#fff;opacity:0.8"></path></g></svg>
